<?xml version="1.0" encoding="UTF-8"?>
<!DOCTYPE svg PUBLIC "-//W3C//DTD SVG 1.1//EN" "http://www.w3.org/Graphics/SVG/1.1/DTD/svg11.dtd">
<!-- Creator: CorelDRAW 2019 (64-Bit) -->
<svg xmlns="http://www.w3.org/2000/svg" xml:space="preserve" width="367" height="93" version="1.1" style="shape-rendering:geometricPrecision; text-rendering:geometricPrecision; image-rendering:optimizeQuality; fill-rule:evenodd; clip-rule:evenodd"
viewBox="0 0 1156 308"
 xmlns:xlink="http://www.w3.org/1999/xlink">
 <defs>
  <style type="text/css">
   <![CDATA[
    .fil4 {fill:white;fill-rule:nonzero}
    .fil6 {fill:url(#id0)}
    .fil1 {fill:url(#id1)}
    .fil5 {fill:url(#id2)}
    .fil0 {fill:url(#id3)}
    .fil7 {fill:url(#id4)}
    .fil10 {fill:url(#id5)}
    .fil11 {fill:url(#id6)}
    .fil12 {fill:url(#id7)}
    .fil8 {fill:url(#id8)}
    .fil2 {fill:url(#id9)}
    .fil3 {fill:url(#id10)}
    .fil13 {fill:url(#id11)}
    .fil9 {fill:url(#id12)}
   ]]>
  </style>
  <linearGradient id="id0" gradientUnits="userSpaceOnUse" x1="209" y1="222" x2="209" y2="181">
   <stop offset="0" style="stop-opacity:1; stop-color:#D960AD"/>
   <stop offset="1" style="stop-opacity:1; stop-color:#AF4938"/>
  </linearGradient>
  <linearGradient id="id1" gradientUnits="userSpaceOnUse" x1="207" y1="255" x2="208" y2="169">
   <stop offset="0" style="stop-opacity:1; stop-color:#9C2473"/>
   <stop offset="1" style="stop-opacity:1; stop-color:#6E2E15"/>
  </linearGradient>
  <linearGradient id="id2" gradientUnits="userSpaceOnUse" x1="209" y1="149" x2="205" y2="273">
   <stop offset="0" style="stop-opacity:1; stop-color:#A5441D"/>
   <stop offset="1" style="stop-opacity:1; stop-color:#DB62B4"/>
  </linearGradient>
  <linearGradient id="id3" gradientUnits="userSpaceOnUse" x1="205" y1="112" x2="206" y2="53">
   <stop offset="0" style="stop-opacity:1; stop-color:#1A5A8C"/>
   <stop offset="1" style="stop-opacity:1; stop-color:#396561"/>
  </linearGradient>
  <linearGradient id="id4" gradientUnits="userSpaceOnUse" x1="219" y1="127" x2="197" y2="25">
   <stop offset="0" style="stop-opacity:1; stop-color:#1A5A8C"/>
   <stop offset="1" style="stop-opacity:1; stop-color:#8EBDBA"/>
  </linearGradient>
  <linearGradient id="id5" gradientUnits="userSpaceOnUse" x1="171" y1="278" x2="144" y2="264">
   <stop offset="0" style="stop-opacity:1; stop-color:#B0592D"/>
   <stop offset="1" style="stop-opacity:1; stop-color:#A02A5B"/>
  </linearGradient>
  <linearGradient id="id6" gradientUnits="userSpaceOnUse" x1="125" y1="231" x2="180" y2="266">
   <stop offset="0" style="stop-opacity:1; stop-color:#DB62B4"/>
   <stop offset="1" style="stop-opacity:1; stop-color:#C37A47"/>
  </linearGradient>
  <linearGradient id="id7" gradientUnits="userSpaceOnUse" x1="294" y1="286" x2="240" y2="257">
   <stop offset="0" style="stop-opacity:1; stop-color:#6E2E15"/>
   <stop offset="1" style="stop-opacity:1; stop-color:#A5441D"/>
  </linearGradient>
  <linearGradient id="id8" gradientUnits="userSpaceOnUse" x1="246" y1="94" x2="279" y2="175">
   <stop offset="0" style="stop-opacity:1; stop-color:#DB62B4"/>
   <stop offset="1" style="stop-opacity:1; stop-color:#A5441D"/>
  </linearGradient>
  <linearGradient id="id9" gradientUnits="userSpaceOnUse" x1="90" y1="106" x2="117" y2="144">
   <stop offset="0" style="stop-opacity:1; stop-color:#9C2473"/>
   <stop offset="1" style="stop-opacity:1; stop-color:#1A5A8C"/>
  </linearGradient>
  <linearGradient id="id10" gradientUnits="userSpaceOnUse" x1="306" y1="111" x2="318" y2="134">
   <stop offset="0" style="stop-opacity:1; stop-color:#942E6D"/>
   <stop offset="1" style="stop-opacity:1; stop-color:#A5441D"/>
  </linearGradient>
  <linearGradient id="id11" gradientUnits="userSpaceOnUse" x1="297" y1="213" x2="188" y2="243">
   <stop offset="0" style="stop-opacity:1; stop-color:#A5441D"/>
   <stop offset="1" style="stop-opacity:1; stop-color:#EDC784"/>
  </linearGradient>
  <linearGradient id="id12" gradientUnits="userSpaceOnUse" x1="159" y1="119" x2="129" y2="180">
   <stop offset="0" style="stop-opacity:1; stop-color:#1A5A8C"/>
   <stop offset="1" style="stop-opacity:1; stop-color:#D960AD"/>
  </linearGradient>
 </defs>
 <g id="Слой_x0020_1">
  <metadata id="CorelCorpID_0Corel-Layer"/>
  <path class="fil0" d="M172 103c2,-36 23,-61 36,-61 13,0 30,25 34,64 19,-31 -8,-78 -35,-78 -26,0 -50,52 -35,75z"/>
  <path class="fil1" d="M195 169c-26,40 -5,72 12,72 17,0 41,-32 12,-72 35,38 19,91 -12,91 -28,0 -45,-51 -12,-91z"/>
  <path class="fil2" d="M192 156c-20,-36 -43,-58 -77,-62 -23,-3 -54,5 -67,31 62,-35 133,15 144,31z"/>
  <path class="fil3" d="M222 156c20,-36 43,-58 77,-62 23,-3 54,5 67,31 -62,-35 -133,15 -144,31z"/>
  <path class="fil4" d="M492 252c-12,13 -28,20 -47,20 -19,0 -35,-7 -47,-20 -12,-13 -18,-29 -18,-47l0 0c0,-18 6,-34 19,-47 12,-13 28,-20 47,-20 19,0 35,7 47,20 12,13 18,29 18,47l0 0c0,18 -6,34 -19,47l0 0zm-83 -9c10,10 22,16 36,16 15,0 27,-5 36,-15 9,-10 14,-23 14,-38l0 0c0,-15 -5,-28 -14,-38 -10,-10 -22,-16 -36,-16 -15,0 -27,5 -36,15 -10,10 -14,23 -14,38l0 0c0,15 5,28 14,38l0 0zm132 27l0 -130 55 0c16,0 28,4 37,13 7,7 10,15 10,26l0 0c0,10 -3,19 -10,25 -6,6 -15,11 -25,13l40 53 -18 0 -37 -50 -37 0 0 50 -15 0zm15 -64l40 0c10,0 18,-2 24,-7 6,-5 9,-11 9,-19l0 0c0,-8 -3,-14 -9,-19 -6,-5 -14,-7 -24,-7l-40 0 0 53 0 0zm131 47c-12,-13 -18,-29 -18,-48l0 0c0,-19 6,-35 19,-48 12,-13 28,-20 47,-20 11,0 20,2 28,5 8,3 15,9 22,15l-10 11c-6,-6 -12,-10 -19,-13 -6,-3 -14,-5 -22,-5 -14,0 -26,5 -36,15 -10,10 -14,23 -14,38l0 0c0,15 5,28 14,38 10,10 21,16 36,16 8,0 16,-2 22,-5 6,-3 13,-8 19,-14l10 9c-7,7 -15,13 -23,17 -24,12 -56,6 -75,-13zm124 17l0 -130 15 0 0 58 74 0 0 -58 15 0 0 130 -15 0 0 -58 -74 0 0 58 -15 0 0 0zm141 0l0 -130 15 0 0 130 -15 0zm52 0l0 -130 45 0c20,0 36,6 49,18 13,12 19,28 19,46l0 0c0,19 -6,34 -19,46 -13,12 -29,19 -49,19l-45 0 0 0zm45 -116l-30 0 0 103 30 0c16,0 29,-5 39,-14 10,-10 15,-22 15,-37l0 0c0,-15 -5,-27 -15,-37 -10,-10 -23,-15 -39,-15l0 0z"/>
  <path class="fil5" d="M195 169c-32,47 -9,80 12,80 20,0 47,-33 13,-80 4,3 8,8 11,13 24,39 10,81 -23,81 -30,0 -46,-42 -22,-81 3,-5 6,-9 10,-13z"/>
  <path class="fil6" d="M209 181c8,0 14,6 14,14 0,8 -6,14 -14,14 -8,0 -14,-6 -14,-14 0,-8 6,-14 14,-14z"/>
  <path class="fil7" d="M172 103c-3,-41 23,-74 36,-74 13,0 36,36 34,77 4,-5 9,-9 14,-13 2,-43 -26,-84 -50,-84 -21,0 -50,40 -47,84 4,3 8,7 12,10l0 0z"/>
  <path class="fil8" d="M245 197c78,6 116,-68 108,-85 -9,-19 -100,-19 -133,49 20,-92 136,-93 154,-58 15,30 -43,121 -128,97 0,-1 0,-1 -1,-2l0 0z"/>
  <path class="fil9" d="M170 197c-78,7 -117,-67 -108,-85 9,-19 100,-19 133,49 -20,-92 -136,-93 -154,-58 -15,30 44,122 129,96 0,-1 0,-1 1,-2l0 0z"/>
  <path class="fil10" d="M182 260c-18,16 -77,51 -68,1 3,31 48,-2 60,-12 2,4 5,8 7,11z"/>
  <path class="fil11" d="M181 260c-10,8 -43,30 -53,19 -8,-9 -6,-42 17,-69l-10 0c-23,30 -36,71 -21,85 23,21 64,-21 72,-30 -1,-1 -3,-3 -4,-4z"/>
  <path class="fil12" d="M236 260c18,16 77,51 68,1 -3,31 -48,-2 -60,-12 -2,4 -5,8 -7,11z"/>
  <path class="fil13" d="M236 260c10,8 43,30 53,19 8,-9 6,-42 -17,-69l10 0c23,30 36,71 21,85 -23,21 -64,-21 -72,-30 1,-1 3,-3 4,-4z"/>
  <path class="fil4" d="M396 38c11,0 19,9 19,19 0,11 -9,19 -19,19 -11,0 -19,-9 -19,-19 0,-11 9,-19 19,-19zm0 3c-9,0 -16,7 -16,16 0,9 7,16 16,16 9,0 16,-7 16,-16 0,-9 -7,-16 -16,-16zm-8 27l0 -21 7 0c4,0 9,1 9,6 0,3 -3,6 -6,6 3,1 5,6 7,9l-4 0c-3,-5 -3,-9 -10,-9l0 9 -3 0zm3 -12l4 0c2,0 5,0 5,-3 0,-3 -3,-3 -5,-3l-4 0 0 6z"/>
 </g>
</svg>
