<svg xmlns="http://www.w3.org/2000/svg" width="367" height="93" viewBox="0 0 367 93">
    <defs>
        <linearGradient id="prefix__a" x1="46.406%" x2="47.691%" y1="67.373%" y2="-7.796%">
            <stop offset="0%" stop-color="#1A5A8C"/>
            <stop offset="100%" stop-color="#396561"/>
        </linearGradient>
        <linearGradient id="prefix__b" x1="49.214%" x2="50.223%" y1="99.985%" y2="4.47%">
            <stop offset="0%" stop-color="#9C2473"/>
            <stop offset="100%" stop-color="#6E2E15"/>
        </linearGradient>
        <linearGradient id="prefix__c" x1="17.799%" x2="58.211%" y1="36.889%" y2="61.679%">
            <stop offset="0%" stop-color="#9C2473"/>
            <stop offset="100%" stop-color="#1A5A8C"/>
        </linearGradient>
        <linearGradient id="prefix__d" x1="51.064%" x2="74.077%" y1="43.277%" y2="63.756%">
            <stop offset="0%" stop-color="#942E6D"/>
            <stop offset="100%" stop-color="#A5441D"/>
        </linearGradient>
        <linearGradient id="prefix__e" x1="50.927%" x2="48.454%" y1="-11.182%" y2="120.779%">
            <stop offset="0%" stop-color="#A5441D"/>
            <stop offset="100%" stop-color="#DB62B4"/>
        </linearGradient>
        <linearGradient id="prefix__f" x1="50.001%" x2="50.185%" y1="100%" y2="-46.924%">
            <stop offset="0%" stop-color="#D960AD"/>
            <stop offset="100%" stop-color="#AF4938"/>
        </linearGradient>
        <linearGradient id="prefix__g" x1="60.888%" x2="37.626%" y1="83.642%" y2="-21.414%">
            <stop offset="0%" stop-color="#1A5A8C"/>
            <stop offset="100%" stop-color="#8EBDBA"/>
        </linearGradient>
        <linearGradient id="prefix__h" x1="11.667%" x2="43.06%" y1="25.627%" y2="86.624%">
            <stop offset="0%" stop-color="#DB62B4"/>
            <stop offset="100%" stop-color="#A5441D"/>
        </linearGradient>
        <linearGradient id="prefix__i" x1="81.58%" x2="53.587%" y1="21.216%" y2="66.469%">
            <stop offset="0%" stop-color="#1A5A8C"/>
            <stop offset="100%" stop-color="#D960AD"/>
        </linearGradient>
        <linearGradient id="prefix__j" x1="87.217%" x2="40.942%" y1="51.31%" y2="37.932%">
            <stop offset="0%" stop-color="#B0592D"/>
            <stop offset="100%" stop-color="#A02A5B"/>
        </linearGradient>
        <linearGradient id="prefix__k" x1="26.036%" x2="90.181%" y1="32.782%" y2="80.395%">
            <stop offset="0%" stop-color="#DB62B4"/>
            <stop offset="100%" stop-color="#C37A47"/>
        </linearGradient>
        <linearGradient id="prefix__l" x1="92.61%" x2="-.354%" y1="55.438%" y2="28.173%">
            <stop offset="0%" stop-color="#6E2E15"/>
            <stop offset="100%" stop-color="#A5441D"/>
        </linearGradient>
        <linearGradient id="prefix__m" x1="80.772%" x2="-55.2%" y1="57.211%" y2="100.617%">
            <stop offset="0%" stop-color="#A5441D"/>
            <stop offset="100%" stop-color="#EDC784"/>
        </linearGradient>
    </defs>
    <g fill="none" fill-rule="evenodd">
        <path fill="url(#prefix__a)" d="M42.464 30.152c.715-11.543 7.512-19.542 11.628-19.646 4.22-.106 9.64 8.057 10.911 20.494 5.976-9.816-2.542-24.99-11.306-25-8.26-.01-16.01 16.707-11.233 24.152z"/>
        <path fill="url(#prefix__b)" d="M50.022 51c-8.47 12.733-1.745 23.097 3.735 23.084C59.212 74.07 66.89 63.879 57.703 51c11.252 12.259 6.212 28.985-3.953 29-8.907.014-14.528-16.477-3.728-29z"/>
        <path fill="url(#prefix__c)" d="M50 47c-6.248-11.677-13.673-18.404-24.683-19.816C18.116 26.26 7.982 28.7 4 37.186 23.729 25.949 46.617 42.059 50 47z"/>
        <path fill="url(#prefix__d)" d="M59 47c6.248-11.677 13.673-18.404 24.683-19.816C90.884 26.26 101.018 28.7 105 37.186 85.271 25.949 62.383 42.059 59 47z"/>
        <path fill="#FFF" fill-rule="nonzero" d="M145.059 77.674c-3.961 4.217-9 6.326-15.118 6.326s-11.137-2.089-15.058-6.266C110.96 73.557 109 68.519 109 62.618V62.5c0-5.9 1.98-10.958 5.94-15.175 3.962-4.216 9-6.325 15.118-6.325s11.138 2.088 15.06 6.266c3.921 4.177 5.882 9.216 5.882 15.115v.12c0 5.899-1.98 10.956-5.941 15.173zm-26.618-3c3.078 3.327 6.95 4.99 11.617 4.99 4.668 0 8.52-1.643 11.56-4.93 3.039-3.286 4.558-7.324 4.558-12.116V62.5c0-4.791-1.538-8.85-4.617-12.176-3.079-3.326-6.952-4.988-11.618-4.988-4.667 0-8.52 1.642-11.558 4.929-3.04 3.287-4.56 7.325-4.56 12.116v.12c0 4.79 1.54 8.849 4.618 12.174zm42.382 8.613V41.713h17.706c5.059 0 8.96 1.385 11.706 4.157 2.118 2.138 3.177 4.87 3.177 8.196v.119c0 3.326-1.02 6.028-3.06 8.107-2.039 2.078-4.744 3.415-8.117 4.01l12.647 16.985h-5.706l-11.94-16.155H165.47v16.155h-4.647zm4.647-20.372h12.647c3.138 0 5.687-.771 7.648-2.316 1.96-1.544 2.941-3.622 2.941-6.236v-.118c0-2.575-.922-4.584-2.765-6.03-1.843-1.444-4.431-2.166-7.765-2.166H165.47v16.866zM222.177 84c-5.883 0-10.794-2.059-14.736-6.177-3.941-4.118-5.912-9.186-5.912-15.205V62.5c0-5.98 1.98-11.057 5.941-15.234 3.961-4.178 8.922-6.266 14.883-6.266 3.53 0 6.54.554 9.03 1.663 2.49 1.109 4.833 2.752 7.029 4.93l-3.176 3.444c-1.962-1.86-3.952-3.276-5.971-4.246-2.02-.97-4.343-1.455-6.971-1.455-4.55 0-8.343 1.642-11.383 4.929-3.039 3.287-4.558 7.325-4.558 12.116v.12c0 4.83 1.52 8.898 4.558 12.204 3.04 3.306 6.834 4.959 11.383 4.959 2.667 0 5.02-.494 7.059-1.485 2.04-.99 4.118-2.494 6.235-4.513l3.06 3.028c-2.314 2.376-4.766 4.187-7.354 5.435-2.588 1.247-5.627 1.871-9.117 1.871zM247 83.287V41.713h4.647v18.471h23.764v-18.47h4.647v41.573h-4.647V64.58h-23.764v18.708H247zm45.118 0V41.713h4.647v41.574h-4.647zm16.705 0V41.713h14.294c6.393 0 11.638 1.97 15.736 5.909 4.098 3.94 6.147 8.86 6.147 14.759v.12c0 5.938-2.049 10.887-6.147 14.847-4.098 3.959-9.343 5.94-15.736 5.94h-14.294zm14.294-37.238h-9.647v32.903h9.647c5.138 0 9.266-1.545 12.383-4.633 3.118-3.088 4.677-6.988 4.677-11.7V62.5c0-4.712-1.57-8.632-4.706-11.76-3.138-3.127-7.256-4.691-12.354-4.691zM359.46 53.18L358.86 45.68 365.04 50.06 366.66 47.24 359.7 44.06 366.66 40.82 365.04 38.06 358.86 42.38 359.46 34.88 356.34 34.88 356.94 42.38 350.76 38.06 349.14 40.82 356.1 44.06 349.14 47.24 350.76 50.06 356.94 45.68 356.34 53.18z"/>
        <path fill="url(#prefix__e)" d="M49.969 51c-10.384 15.094-2.764 25.732 3.715 25.716C60.134 76.7 68.565 66.099 57.703 51c1.31.97 2.451 2.505 3.407 4.05 7.707 12.44 3.304 25.935-7.434 25.95-9.49.014-14.619-13.496-6.985-25.94.978-1.594 1.842-2.854 3.278-4.06z"/>
        <path fill="url(#prefix__f)" d="M54.5 55c2.485 0 4.5 2.015 4.5 4.5S56.985 64 54.5 64 50 61.985 50 59.5s2.015-4.5 4.5-4.5z"/>
        <path fill="url(#prefix__g)" d="M42.838 30.153c-.804-13.047 7.51-23.619 11.627-23.741C58.688 6.287 66.142 18.029 65.376 31c1.4-1.572 2.939-2.962 4.577-4.177C70.737 13.117 61.54.012 54.071 0c-6.63-.01-15.948 12.913-15.005 26.838 1.331.988 2.594 2.093 3.772 3.315z"/>
        <path fill="url(#prefix__h)" d="M66.078 60.08c24.841 1.99 37.228-21.614 34.51-27.295-2.865-5.989-31.87-5.962-42.588 15.636 6.368-29.3 43.41-29.889 49.21-18.68 4.938 9.542-13.823 38.876-40.917 30.9-.068-.187-.141-.373-.215-.56z"/>
        <path fill="url(#prefix__i)" d="M42.107 60.067C17.143 62.189 4.687 38.48 7.411 32.786c2.865-5.99 31.87-5.963 42.589 15.637C43.63 19.12 6.59 18.532.79 29.74c-4.951 9.569 13.923 39.032 41.133 30.836.06-.17.122-.34.184-.51z"/>
        <path fill="url(#prefix__j)" d="M46 80.367c-5.746 5.017-24.724 16.438-21.67.344 1.116 9.981 15.292-.633 19.299-3.711.65 1.274 1.448 2.41 2.371 3.367z"/>
        <path fill="url(#prefix__k)" d="M45.741 80.195c-3.258 2.703-13.61 9.569-17.034 5.98-2.615-2.741-2.044-13.517 5.387-22.175l-3.276.075c-7.417 9.467-11.59 22.65-6.72 27.07 7.41 6.724 20.5-6.774 22.902-9.693-.443-.382-.864-.802-1.259-1.257z"/>
        <path fill="url(#prefix__l)" d="M63 80.367c5.746 5.017 24.724 16.438 21.67.344-1.116 9.981-15.291-.633-19.298-3.711-.652 1.274-1.448 2.41-2.372 3.367z"/>
        <path fill="url(#prefix__m)" d="M63.259 80.195c3.258 2.703 13.611 9.569 17.035 5.98 2.615-2.741 2.044-13.517-5.388-22.175l3.276.075c7.417 9.467 11.59 22.65 6.72 27.07-7.41 6.724-20.5-6.774-22.902-9.693.444-.382.865-.802 1.259-1.257z"/>
    </g>
</svg>
