<svg id="Layer_1" data-name="Layer 1" xmlns="http://www.w3.org/2000/svg" viewBox="0 0 259.57 53.47"><defs><style>.cls-1{fill:#9c2371;}</style></defs><title>depletionScan</title><path class="cls-1" d="M69.4,20l-2.31-3.1H64.81V20h-.9v-8h3.43c1.75,0,2.88.94,2.88,2.38a2.34,2.34,0,0,1-2.17,2.34L70.51,20Zm-2.13-7.15H64.81v3.24h2.45c1.19,0,2-.62,2-1.66S68.56,12.88,67.27,12.88Z" transform="translate(-10.08 -11.66)"/><path class="cls-1" d="M74.78,19.4a2.45,2.45,0,0,0,1.86-.83l.55.49a3,3,0,0,1-2.43,1.1,2.93,2.93,0,0,1-2.94-3.07A2.91,2.91,0,0,1,74.65,14c1.74,0,2.74,1.39,2.74,3.12a2.62,2.62,0,0,1,0,.27H72.71A2.06,2.06,0,0,0,74.78,19.4Zm1.72-2.65a1.93,1.93,0,0,0-1.88-2,2,2,0,0,0-1.91,2Z" transform="translate(-10.08 -11.66)"/><path class="cls-1" d="M84,20V18.84a2.64,2.64,0,0,1-2.25,1.31,2.88,2.88,0,0,1-2.82-3.06A2.9,2.9,0,0,1,81.71,14,2.64,2.64,0,0,1,84,15.26V11.71h.88V20Zm-2.09-5.24a2.09,2.09,0,0,0-2.08,2.28,2.13,2.13,0,0,0,2.08,2.3A2.21,2.21,0,0,0,84,17.07,2.2,2.2,0,0,0,81.87,14.79Z" transform="translate(-10.08 -11.66)"/><path class="cls-1" d="M91.28,14.13h.87V20h-.87V19a2.22,2.22,0,0,1-2,1.15A2.15,2.15,0,0,1,87,17.79V14.13h.88v3.45a1.56,1.56,0,0,0,1.63,1.77,1.73,1.73,0,0,0,1.76-1.84Z" transform="translate(-10.08 -11.66)"/><path class="cls-1" d="M97.08,20.16a3.08,3.08,0,0,1,0-6.15,3.06,3.06,0,0,1,2.36,1.05l-.58.61a2.4,2.4,0,0,0-1.79-.89A2.18,2.18,0,0,0,95,17.07a2.21,2.21,0,0,0,2.16,2.31,2.41,2.41,0,0,0,1.8-.88l.56.52A3,3,0,0,1,97.08,20.16Z" transform="translate(-10.08 -11.66)"/><path class="cls-1" d="M103.66,19.4a2.45,2.45,0,0,0,1.86-.83l.54.49a3,3,0,0,1-2.42,1.1,2.94,2.94,0,0,1-3-3.07A2.91,2.91,0,0,1,103.52,14c1.75,0,2.75,1.39,2.75,3.12a2.62,2.62,0,0,1,0,.27h-4.68A2.07,2.07,0,0,0,103.66,19.4Zm1.72-2.65a1.94,1.94,0,0,0-1.88-2,2,2,0,0,0-1.92,2Z" transform="translate(-10.08 -11.66)"/><path class="cls-1" d="M112.7,20h-.88v-5.9h.88v1a2.24,2.24,0,0,1,2-1.15A2.16,2.16,0,0,1,117,16.37V20h-.88V16.58a1.56,1.56,0,0,0-1.63-1.77,1.73,1.73,0,0,0-1.77,1.84Z" transform="translate(-10.08 -11.66)"/><path class="cls-1" d="M121.83,20.16a3,3,0,0,1-3-3.06,3.07,3.07,0,1,1,3,3.06Zm0-5.38a2.17,2.17,0,0,0-2.15,2.29,2.22,2.22,0,0,0,2.18,2.31A2.17,2.17,0,0,0,124,17.1,2.23,2.23,0,0,0,121.83,14.78Z" transform="translate(-10.08 -11.66)"/><path class="cls-1" d="M127.69,20h-.88v-5.9h.88v1a2.21,2.21,0,0,1,2-1.15A2.15,2.15,0,0,1,132,16.37V20h-.88V16.58a1.56,1.56,0,0,0-1.63-1.77,1.73,1.73,0,0,0-1.76,1.84Z" transform="translate(-10.08 -11.66)"/><path class="cls-1" d="M137.26,20.15A2.64,2.64,0,0,1,135,18.9v3h-.88V14.13H135v1.19A2.64,2.64,0,0,1,137.26,14a2.87,2.87,0,0,1,2.82,3.06A2.89,2.89,0,0,1,137.26,20.15Zm-.16-5.36A2.2,2.2,0,0,0,135,17.07a2.21,2.21,0,0,0,2.13,2.3,2.09,2.09,0,0,0,2.08-2.28A2.13,2.13,0,0,0,137.1,14.79Z" transform="translate(-10.08 -11.66)"/><path class="cls-1" d="M142.88,20H142v-5.9h.88v1.54a2.52,2.52,0,0,1,2.4-1.64v1h-.07c-1.29,0-2.33.92-2.33,2.7Z" transform="translate(-10.08 -11.66)"/><path class="cls-1" d="M149.35,20.16a3,3,0,0,1-3-3.06,3.07,3.07,0,1,1,3,3.06Zm0-5.38a2.16,2.16,0,0,0-2.15,2.29,2.21,2.21,0,0,0,2.17,2.31,2.18,2.18,0,0,0,2.17-2.28A2.23,2.23,0,0,0,149.35,14.78Z" transform="translate(-10.08 -11.66)"/><path class="cls-1" d="M159.05,20V18.84a2.62,2.62,0,0,1-2.25,1.31A2.88,2.88,0,0,1,154,17.09,2.9,2.9,0,0,1,156.8,14a2.64,2.64,0,0,1,2.25,1.25V11.71h.88V20ZM157,14.79a2.09,2.09,0,0,0-2.08,2.28,2.13,2.13,0,0,0,2.08,2.3,2.21,2.21,0,0,0,2.13-2.3A2.2,2.2,0,0,0,157,14.79Z" transform="translate(-10.08 -11.66)"/><path class="cls-1" d="M166.38,14.13h.86V20h-.86V19a2.25,2.25,0,0,1-2,1.15,2.15,2.15,0,0,1-2.26-2.36V14.13H163v3.45a1.56,1.56,0,0,0,1.63,1.77,1.74,1.74,0,0,0,1.77-1.84Z" transform="translate(-10.08 -11.66)"/><path class="cls-1" d="M172.17,20.16a3.08,3.08,0,1,1,2.36-5.1l-.58.61a2.38,2.38,0,0,0-1.79-.89,2.18,2.18,0,0,0-2.11,2.29,2.21,2.21,0,0,0,2.16,2.31A2.45,2.45,0,0,0,174,18.5l.55.52A3,3,0,0,1,172.17,20.16Z" transform="translate(-10.08 -11.66)"/><path class="cls-1" d="M177.51,18.35a.87.87,0,0,0,1,1,1.89,1.89,0,0,0,.85-.2v.75a2.16,2.16,0,0,1-1.06.25,1.5,1.5,0,0,1-1.66-1.67V14.91h-.82v-.78h.82V12.36h.88v1.77h1.87v.78h-1.87Z" transform="translate(-10.08 -11.66)"/><path class="cls-1" d="M181.25,12.85v-1h1v1ZM181.3,20v-5.9h.88V20Z" transform="translate(-10.08 -11.66)"/><path class="cls-1" d="M188.89,14.13h.94l-2.56,5.94h-.78l-2.55-5.94h1l2,4.89Z" transform="translate(-10.08 -11.66)"/><path class="cls-1" d="M193.77,19.4a2.41,2.41,0,0,0,1.85-.83l.55.49a3,3,0,0,1-2.42,1.1,2.94,2.94,0,0,1-2.95-3.07A2.91,2.91,0,0,1,193.63,14c1.75,0,2.75,1.39,2.75,3.12a2.62,2.62,0,0,1,0,.27h-4.68A2.07,2.07,0,0,0,193.77,19.4Zm1.72-2.65a1.94,1.94,0,0,0-1.88-2,2,2,0,0,0-1.92,2Z" transform="translate(-10.08 -11.66)"/><path class="cls-1" d="M205,14.16v.75h-1.86V20h-.88V14.91h-.8v-.76h.8v-.52c0-1.29.65-2,1.78-2a2.71,2.71,0,0,1,1,.15v.76a3,3,0,0,0-.85-.15c-.69,0-1,.41-1,1.26v.48Z" transform="translate(-10.08 -11.66)"/><path class="cls-1" d="M206.49,20V11.71h.88V20Z" transform="translate(-10.08 -11.66)"/><path class="cls-1" d="M213.89,14.13h.87V20h-.87V19a2.23,2.23,0,0,1-2,1.15,2.15,2.15,0,0,1-2.26-2.36V14.13h.88v3.45a1.56,1.56,0,0,0,1.63,1.77,1.73,1.73,0,0,0,1.76-1.84Z" transform="translate(-10.08 -11.66)"/><path class="cls-1" d="M217.05,12.85v-1h1v1Zm.06,7.18v-5.9H218V20Z" transform="translate(-10.08 -11.66)"/><path class="cls-1" d="M225.06,20V18.84a2.65,2.65,0,0,1-2.26,1.31A2.88,2.88,0,0,1,220,17.09,2.9,2.9,0,0,1,222.8,14a2.67,2.67,0,0,1,2.26,1.25V11.71h.87V20ZM223,14.79a2.09,2.09,0,0,0-2.08,2.28,2.13,2.13,0,0,0,2.08,2.3,2.21,2.21,0,0,0,2.13-2.3A2.2,2.2,0,0,0,223,14.79Z" transform="translate(-10.08 -11.66)"/><path class="cls-1" d="M232,20V11.71h.88V20Z" transform="translate(-10.08 -11.66)"/><path class="cls-1" d="M237.9,20.16A3.08,3.08,0,1,1,241,17.07,3.06,3.06,0,0,1,237.9,20.16Zm0-5.38a2.17,2.17,0,0,0-2.16,2.29,2.22,2.22,0,0,0,2.18,2.31,2.18,2.18,0,0,0,2.17-2.28A2.23,2.23,0,0,0,237.9,14.78Z" transform="translate(-10.08 -11.66)"/><path class="cls-1" d="M244.82,20.14a4,4,0,0,1-2.44-.87l.45-.62a3.4,3.4,0,0,0,2,.75c.7,0,1.21-.37,1.21-.94v0c0-.59-.69-.82-1.46-1-.93-.26-2-.58-2-1.66v0a1.78,1.78,0,0,1,2-1.69,4,4,0,0,1,2.12.65l-.4.66a3.33,3.33,0,0,0-1.74-.57c-.7,0-1.14.37-1.14.86v0c0,.56.73.77,1.52,1s1.89.63,1.89,1.69v0A1.86,1.86,0,0,1,244.82,20.14Z" transform="translate(-10.08 -11.66)"/><path class="cls-1" d="M250.68,20.14a4,4,0,0,1-2.44-.87l.45-.62a3.4,3.4,0,0,0,2,.75c.7,0,1.22-.37,1.22-.94v0c0-.59-.7-.82-1.47-1-.93-.26-1.95-.58-1.95-1.66v0a1.78,1.78,0,0,1,2-1.69,4,4,0,0,1,2.12.65l-.4.66a3.33,3.33,0,0,0-1.74-.57c-.7,0-1.14.37-1.14.86v0c0,.56.73.77,1.52,1s1.89.63,1.89,1.69v0A1.86,1.86,0,0,1,250.68,20.14Z" transform="translate(-10.08 -11.66)"/><path class="cls-1" d="M63.41,30.23h4.11a13.42,13.42,0,0,1,5.89,1,7.79,7.79,0,0,1,3.18,3.25,10.64,10.64,0,0,1,1.24,5.25,10.8,10.8,0,0,1-.69,3.92,8.27,8.27,0,0,1-1.93,3,6.84,6.84,0,0,1-2.67,1.63,18.7,18.7,0,0,1-5,.45H63.41Zm3.44,3.39V45.27h1.61a7.91,7.91,0,0,0,3.44-.55,4.12,4.12,0,0,0,1.75-1.86,6.82,6.82,0,0,0,.68-3.22,6.17,6.17,0,0,0-1.62-4.56Q71.26,33.63,68,33.62Z" transform="translate(-10.08 -11.66)"/><path class="cls-1" d="M93.74,42.86H82.89a3.7,3.7,0,0,0,1.26,2.32,3.92,3.92,0,0,0,2.6.86A4.47,4.47,0,0,0,90,44.7l2.85,1.35a6.78,6.78,0,0,1-2.55,2.27,7.84,7.84,0,0,1-3.52.73A6.86,6.86,0,0,1,79.63,42a7.18,7.18,0,0,1,2-5.19,6.63,6.63,0,0,1,5-2.07,6.85,6.85,0,0,1,5.17,2.07,7.49,7.49,0,0,1,2,5.45Zm-3.38-2.7A3.37,3.37,0,0,0,89,38.31a3.75,3.75,0,0,0-2.28-.72,4,4,0,0,0-2.48.8A4.52,4.52,0,0,0,83,40.16Z" transform="translate(-10.08 -11.66)"/><path class="cls-1" d="M99.82,35v1.51a6.32,6.32,0,0,1,2-1.39,5.64,5.64,0,0,1,2.28-.47,5.84,5.84,0,0,1,4.48,2,7.45,7.45,0,0,1,1.84,5.19,7.22,7.22,0,0,1-1.91,5.1,5.94,5.94,0,0,1-4.51,2,5.47,5.47,0,0,1-2.16-.42,6.69,6.69,0,0,1-2-1.37V53.7H96.47V35Zm3.55,2.81A3.48,3.48,0,0,0,100.73,39a4,4,0,0,0-1,2.89,4.14,4.14,0,0,0,1,2.94,3.59,3.59,0,0,0,5.25,0,4.13,4.13,0,0,0,1-2.91A4.08,4.08,0,0,0,106,39,3.44,3.44,0,0,0,103.37,37.85Z" transform="translate(-10.08 -11.66)"/><path class="cls-1" d="M113.33,29.77h3.38V48.7h-3.38Z" transform="translate(-10.08 -11.66)"/><path class="cls-1" d="M133.25,42.86H122.41a3.65,3.65,0,0,0,1.25,2.32,3.93,3.93,0,0,0,2.61.86,4.49,4.49,0,0,0,3.25-1.34l2.84,1.35a6.78,6.78,0,0,1-2.55,2.27,7.81,7.81,0,0,1-3.52.73,6.86,6.86,0,0,1-7.15-7.1,7.14,7.14,0,0,1,2-5.19,6.59,6.59,0,0,1,5-2.07,6.84,6.84,0,0,1,5.17,2.07,7.5,7.5,0,0,1,2,5.45Zm-3.37-2.7a3.47,3.47,0,0,0-1.32-1.85,3.78,3.78,0,0,0-2.29-.72,4,4,0,0,0-2.48.8,4.62,4.62,0,0,0-1.24,1.77Z" transform="translate(-10.08 -11.66)"/><path class="cls-1" d="M137.41,30h3.37v5h2v3h-2V48.7h-3.37V38h-1.73V35h1.73Z" transform="translate(-10.08 -11.66)"/><path class="cls-1" d="M147.43,29.42a2.06,2.06,0,0,1,1.52.65,2.17,2.17,0,0,1,.64,1.58,2.19,2.19,0,0,1-.63,1.57,2,2,0,0,1-1.5.64,2,2,0,0,1-1.54-.66,2.24,2.24,0,0,1-.64-1.6,2.11,2.11,0,0,1,.63-1.54A2,2,0,0,1,147.43,29.42ZM145.74,35h3.38V48.7h-3.38Z" transform="translate(-10.08 -11.66)"/><path class="cls-1" d="M159,34.69a7.2,7.2,0,0,1,6.2,3.59,7.22,7.22,0,0,1,.94,3.58,7.31,7.31,0,0,1-1,3.62,6.93,6.93,0,0,1-2.58,2.63,7,7,0,0,1-3.6.94A6.64,6.64,0,0,1,154.08,47a7.32,7.32,0,0,1,.27-10.41A6.7,6.7,0,0,1,159,34.69Zm.06,3.23A3.45,3.45,0,0,0,156.45,39a4,4,0,0,0-1,2.84,4.1,4.1,0,0,0,1,2.89,3.44,3.44,0,0,0,2.63,1.1,3.47,3.47,0,0,0,2.63-1.11,4.43,4.43,0,0,0,0-5.73A3.44,3.44,0,0,0,159.07,37.92Z" transform="translate(-10.08 -11.66)"/><path class="cls-1" d="M169.41,35h3.38v1.4a7.94,7.94,0,0,1,2.08-1.36,4.91,4.91,0,0,1,1.91-.39,4.56,4.56,0,0,1,3.39,1.42,4.87,4.87,0,0,1,1.18,3.56v9H178v-6a14.91,14.91,0,0,0-.22-3.25,2.2,2.2,0,0,0-.75-1.22,2.09,2.09,0,0,0-1.33-.42,2.41,2.41,0,0,0-1.75.7,3.7,3.7,0,0,0-1,1.92,15.58,15.58,0,0,0-.15,2.77V48.7h-3.38Z" transform="translate(-10.08 -11.66)"/><path class="cls-1" d="M195.54,32.74,193,35c-.9-1.27-1.82-1.91-2.75-1.91a1.7,1.7,0,0,0-1.12.37,1.12,1.12,0,0,0-.43.84,1.43,1.43,0,0,0,.31.88,23.36,23.36,0,0,0,2.54,2.37c1.32,1.12,2.12,1.83,2.4,2.12a7.34,7.34,0,0,1,1.5,2.07,5.23,5.23,0,0,1,.44,2.15,5,5,0,0,1-1.55,3.75,5.59,5.59,0,0,1-4,1.49,6,6,0,0,1-3.38-1,7.48,7.48,0,0,1-2.47-3l2.91-1.78c.87,1.63,1.88,2.45,3,2.45a2.24,2.24,0,0,0,1.5-.53,1.59,1.59,0,0,0,.6-1.22,2.13,2.13,0,0,0-.45-1.25,13.4,13.4,0,0,0-2-1.92,20.33,20.33,0,0,1-3.84-3.8,4.86,4.86,0,0,1-.87-2.67,4.41,4.41,0,0,1,1.44-3.3,5,5,0,0,1,3.56-1.37,5.55,5.55,0,0,1,2.6.64A9.41,9.41,0,0,1,195.54,32.74Z" transform="translate(-10.08 -11.66)"/><path class="cls-1" d="M215.38,33.48,213,35.82a7.48,7.48,0,0,0-5.56-2.65A5.91,5.91,0,0,0,203,35a6.11,6.11,0,0,0-1.79,4.46,6.74,6.74,0,0,0,.79,3.28A5.7,5.7,0,0,0,204.25,45a6.34,6.34,0,0,0,3.21.82,6.55,6.55,0,0,0,2.76-.57A10,10,0,0,0,213,43.14l2.35,2.48a12.8,12.8,0,0,1-3.81,2.77,10.18,10.18,0,0,1-4.09.78,9.36,9.36,0,0,1-6.95-2.73,9.54,9.54,0,0,1-2.7-7A9.68,9.68,0,0,1,199,34.53a9.19,9.19,0,0,1,3.52-3.45,9.75,9.75,0,0,1,5-1.31,10.23,10.23,0,0,1,4.33,1A10.36,10.36,0,0,1,215.38,33.48Z" transform="translate(-10.08 -11.66)"/><path class="cls-1" d="M223.46,30.23H227l7,18.47h-3.59l-1.43-3.8h-7.42L220,48.7h-3.6Zm1.77,4.9-2.44,6.34h4.87Z" transform="translate(-10.08 -11.66)"/><path class="cls-1" d="M237.16,30.23h3.32l7.79,12.16V30.23h3.46V48.7H248.4l-7.78-12.11V48.7h-3.46Z" transform="translate(-10.08 -11.66)"/><polygon class="cls-1" points="19.9 4.62 19.9 12.27 16.48 12.27 22.07 19.11 27.67 12.27 24.25 12.27 24.25 4.62 35.17 4.62 35.17 0.32 8.95 0.32 8.95 4.62 19.9 4.62"/><polygon class="cls-1" points="21.9 22.64 21.9 22.64 21.9 22.64 21.9 22.64"/><path class="cls-1" d="M49.92,12V32.35a4.54,4.54,0,0,1-9.05-.58H36.68a4.55,4.55,0,1,1-9.09,0H23.4a4.54,4.54,0,0,1-9,.58V12H10.08V48.6h4.27V39.25A8.71,8.71,0,0,0,25.5,37.44a8.72,8.72,0,0,0,13.28,0,8.69,8.69,0,0,0,6.64,3.07,8.6,8.6,0,0,0,4.5-1.26V48.6H54.2V12Z" transform="translate(-10.08 -11.66)"/><path class="cls-1" d="M187.09,63.35h-.88V56.49h-2.57v-.8h6v.8h-2.57Z" transform="translate(-10.08 -11.66)"/><path class="cls-1" d="M192.9,62.75a2.34,2.34,0,0,0,1.78-.8l.53.47a2.94,2.94,0,0,1-2.33,1.06,3,3,0,0,1-.11-5.91,2.7,2.7,0,0,1,2.64,3,2.44,2.44,0,0,1,0,.26h-4.49A2,2,0,0,0,192.9,62.75Zm1.65-2.54a1.85,1.85,0,0,0-1.8-1.93,2,2,0,0,0-1.84,1.93Z" transform="translate(-10.08 -11.66)"/><path class="cls-1" d="M200.09,63.48a3,3,0,1,1,2.27-4.9l-.56.59a2.28,2.28,0,0,0-1.72-.85,2.08,2.08,0,0,0-2,2.19,2.12,2.12,0,0,0,2.08,2.21,2.35,2.35,0,0,0,1.73-.84l.53.51A2.93,2.93,0,0,1,200.09,63.48Z" transform="translate(-10.08 -11.66)"/><path class="cls-1" d="M205.29,63.35h-.84v-8h.84v3.32a2.15,2.15,0,0,1,1.94-1.11,2.07,2.07,0,0,1,2.17,2.27v3.51h-.84V60a1.5,1.5,0,0,0-1.57-1.7,1.67,1.67,0,0,0-1.7,1.77Z" transform="translate(-10.08 -11.66)"/><path class="cls-1" d="M212.7,63.35h-.85V57.69h.85v1a2.12,2.12,0,0,1,1.93-1.11,2.07,2.07,0,0,1,2.17,2.27v3.51H216V60a1.5,1.5,0,0,0-1.57-1.7,1.66,1.66,0,0,0-1.69,1.77Z" transform="translate(-10.08 -11.66)"/><path class="cls-1" d="M221.83,63.48a2.9,2.9,0,0,1-2.93-2.94,3,3,0,1,1,2.93,2.94Zm0-5.16a2.07,2.07,0,0,0-2.06,2.19,2.12,2.12,0,0,0,2.09,2.21,2.08,2.08,0,0,0,2.08-2.18A2.14,2.14,0,0,0,221.83,58.32Z" transform="translate(-10.08 -11.66)"/><path class="cls-1" d="M227.06,63.35v-8h.84v8Z" transform="translate(-10.08 -11.66)"/><path class="cls-1" d="M233.1,63.48a2.89,2.89,0,0,1-2.93-2.94,2.95,2.95,0,1,1,2.93,2.94Zm0-5.16A2.08,2.08,0,0,0,231,60.51a2.12,2.12,0,0,0,2.09,2.21,2.08,2.08,0,0,0,2.08-2.18A2.13,2.13,0,0,0,233.1,58.32Z" transform="translate(-10.08 -11.66)"/><path class="cls-1" d="M240.75,65.12a4.41,4.41,0,0,1-2.57-.79l.38-.65a3.63,3.63,0,0,0,2.18.72,1.86,1.86,0,0,0,2.06-2v-.67a2.66,2.66,0,0,1-2.22,1.19,2.67,2.67,0,0,1,0-5.34,2.66,2.66,0,0,1,2.21,1.14v-1h.84v4.67A2.57,2.57,0,0,1,240.75,65.12Zm0-6.8a1.87,1.87,0,0,0-2,1.91,1.91,1.91,0,0,0,2,1.94,1.93,1.93,0,1,0,0-3.85Z" transform="translate(-10.08 -11.66)"/><path class="cls-1" d="M248.93,63.53c-.48,1.18-1,1.6-1.88,1.6a2.69,2.69,0,0,1-1.21-.28l.29-.67a1.76,1.76,0,0,0,.88.21c.51,0,.82-.27,1.16-1.06l-2.57-5.64h.93l2.06,4.72,1.82-4.72h.89Z" transform="translate(-10.08 -11.66)"/><path class="cls-1" d="M259.93,33.37c1.36.3,2,.79,2,1.73s-.86,1.73-2.07,1.73a3.54,3.54,0,0,1-2.48-1l.42-.51a2.88,2.88,0,0,0,2.09.86c.81,0,1.35-.42,1.35-1s-.3-.89-1.58-1.16-2-.76-2-1.77a1.79,1.79,0,0,1,2-1.66,3.17,3.17,0,0,1,2.13.74l-.4.53a2.66,2.66,0,0,0-1.75-.66c-.79,0-1.29.44-1.29,1S258.6,33.09,259.93,33.37Z" transform="translate(-10.08 -11.66)"/><path class="cls-1" d="M266.75,35.08h0l-2.22-3.25v4.91h-.67V30.66h.7L266.74,34,269,30.66h.69v6.08H269V31.82Z" transform="translate(-10.08 -11.66)"/></svg>