<svg id="Layer_1" data-name="Layer 1" xmlns="http://www.w3.org/2000/svg" viewBox="0 0 237.2 52.69"><defs><style>.cls-1{fill:#9c2371;}</style></defs><title>diverterScan</title><path class="cls-1" d="M177.52,61.19h-.87V54.42h-2.53v-.79h5.94v.79h-2.54Z" transform="translate(-19.14 -10.26)"/><path class="cls-1" d="M183.25,60.6a2.28,2.28,0,0,0,1.76-.79l.52.46a2.87,2.87,0,0,1-2.3,1,2.92,2.92,0,0,1-.11-5.83,2.66,2.66,0,0,1,2.61,3,2.54,2.54,0,0,1,0,.26h-4.43A2,2,0,0,0,183.25,60.6Zm1.63-2.51a1.84,1.84,0,0,0-1.78-1.9,1.92,1.92,0,0,0-1.81,1.9Z" transform="translate(-19.14 -10.26)"/><path class="cls-1" d="M190.35,61.32a2.92,2.92,0,1,1,2.23-4.84l-.55.59a2.24,2.24,0,0,0-1.69-.85,2.19,2.19,0,0,0,0,4.36,2.33,2.33,0,0,0,1.71-.83l.53.49A2.86,2.86,0,0,1,190.35,61.32Z" transform="translate(-19.14 -10.26)"/><path class="cls-1" d="M195.47,61.19h-.84V53.31h.84v3.27a2.11,2.11,0,0,1,1.91-1.09,2,2,0,0,1,2.14,2.24v3.46h-.83V57.93a1.49,1.49,0,0,0-1.55-1.68A1.64,1.64,0,0,0,195.47,58Z" transform="translate(-19.14 -10.26)"/><path class="cls-1" d="M202.76,61.19h-.84V55.61h.84v1a2.11,2.11,0,0,1,1.91-1.09,2,2,0,0,1,2.14,2.24v3.46H206V57.93a1.49,1.49,0,0,0-1.55-1.68A1.64,1.64,0,0,0,202.76,58Z" transform="translate(-19.14 -10.26)"/><path class="cls-1" d="M211.78,61.32a2.86,2.86,0,0,1-2.9-2.9,2.91,2.91,0,1,1,2.9,2.9Zm0-5.1a2.06,2.06,0,0,0-2.05,2.18,2.1,2.1,0,0,0,2.07,2.18,2.05,2.05,0,0,0,2-2.16A2.12,2.12,0,0,0,211.78,56.22Z" transform="translate(-19.14 -10.26)"/><path class="cls-1" d="M216.92,61.19V53.31h.83v7.88Z" transform="translate(-19.14 -10.26)"/><path class="cls-1" d="M222.88,61.32a2.86,2.86,0,0,1-2.9-2.9,2.91,2.91,0,1,1,2.9,2.9Zm0-5.1a2.06,2.06,0,0,0-2,2.18,2.09,2.09,0,0,0,2.06,2.18,2.05,2.05,0,0,0,2-2.16A2.12,2.12,0,0,0,222.88,56.22Z" transform="translate(-19.14 -10.26)"/><path class="cls-1" d="M230.46,62.94a4.45,4.45,0,0,1-2.54-.77l.38-.65a3.6,3.6,0,0,0,2.15.71,1.84,1.84,0,0,0,2-2v-.66a2.65,2.65,0,0,1-2.19,1.18,2.64,2.64,0,0,1,0-5.27,2.64,2.64,0,0,1,2.18,1.12v-1h.83v4.61A2.53,2.53,0,0,1,230.46,62.94Zm0-6.72a1.85,1.85,0,0,0-1.94,1.89A1.89,1.89,0,0,0,230.45,60a1.91,1.91,0,1,0,0-3.81Z" transform="translate(-19.14 -10.26)"/><path class="cls-1" d="M238.53,61.38c-.48,1.15-1,1.57-1.86,1.57a2.46,2.46,0,0,1-1.19-.28l.28-.66a1.75,1.75,0,0,0,.87.21c.5,0,.82-.26,1.15-1l-2.54-5.56h.92l2,4.65L240,55.61h.89Z" transform="translate(-19.14 -10.26)"/><path class="cls-1" d="M246.76,30.94c1.34.29,2,.78,2,1.71s-.85,1.7-2,1.7a3.52,3.52,0,0,1-2.45-1l.42-.49a2.85,2.85,0,0,0,2.05.84c.81,0,1.34-.42,1.34-1s-.3-.89-1.56-1.15-2-.75-2-1.74a1.76,1.76,0,0,1,2-1.64,3.16,3.16,0,0,1,2.1.73l-.39.53a2.6,2.6,0,0,0-1.73-.65c-.78,0-1.28.42-1.28,1S245.44,30.66,246.76,30.94Z" transform="translate(-19.14 -10.26)"/><path class="cls-1" d="M253.48,32.62h0l-2.18-3.2v4.85h-.66v-6h.69l2.18,3.27,2.18-3.27h.69v6h-.68V29.41Z" transform="translate(-19.14 -10.26)"/><path class="cls-1" d="M77.62,11.46h-4.8v2.68h4.29V15H72.82v2.76h4.86v.81H71.93V10.65h5.69Z" transform="translate(-19.14 -10.26)"/><path class="cls-1" d="M80.41,18.52h-.86V12.7h.86v1a2.2,2.2,0,0,1,2-1.14,2.13,2.13,0,0,1,2.23,2.33v3.61h-.87v-3.4a1.54,1.54,0,0,0-1.6-1.75,1.71,1.71,0,0,0-1.75,1.82Z" transform="translate(-19.14 -10.26)"/><path class="cls-1" d="M87.56,18.52h-.87V10.31h.87v3.41a2.2,2.2,0,0,1,2-1.14,2.12,2.12,0,0,1,2.22,2.33v3.61h-.86v-3.4a1.55,1.55,0,0,0-1.61-1.75,1.71,1.71,0,0,0-1.74,1.82Z" transform="translate(-19.14 -10.26)"/><path class="cls-1" d="M94.18,13.82l-.26-.71A4.83,4.83,0,0,1,96,12.63,2.17,2.17,0,0,1,98.51,15v3.56h-.83v-.88a2.55,2.55,0,0,1-2.1,1,2,2,0,0,1-2.17-1.82c0-1.24,1-1.89,2.48-1.89a6.08,6.08,0,0,1,1.79.25V15c0-1.05-.64-1.59-1.73-1.59A4,4,0,0,0,94.18,13.82Zm.1,3c0,.74.68,1.17,1.47,1.17a1.76,1.76,0,0,0,1.94-1.58v-.56A6.2,6.2,0,0,0,96,15.57C94.89,15.57,94.28,16,94.28,16.79Z" transform="translate(-19.14 -10.26)"/><path class="cls-1" d="M101.44,18.52h-.87V12.7h.87v1a2.2,2.2,0,0,1,2-1.14,2.13,2.13,0,0,1,2.23,2.33v3.61h-.87v-3.4a1.54,1.54,0,0,0-1.61-1.75,1.71,1.71,0,0,0-1.74,1.82Z" transform="translate(-19.14 -10.26)"/><path class="cls-1" d="M110.34,18.65a3,3,0,1,1,2.32-5l-.57.6a2.35,2.35,0,0,0-1.76-.87,2.15,2.15,0,0,0-2.09,2.26,2.18,2.18,0,0,0,2.14,2.27,2.39,2.39,0,0,0,1.78-.87l.55.52A3,3,0,0,1,110.34,18.65Z" transform="translate(-19.14 -10.26)"/><path class="cls-1" d="M116.79,17.9a2.43,2.43,0,0,0,1.84-.82l.54.48a3,3,0,0,1-2.4,1.09,2.88,2.88,0,0,1-2.9-3,2.87,2.87,0,0,1,2.79-3c1.72,0,2.71,1.37,2.71,3.08a2.62,2.62,0,0,1,0,.27h-4.61A2,2,0,0,0,116.79,17.9Zm1.7-2.61a1.91,1.91,0,0,0-1.85-2,2,2,0,0,0-1.89,2Z" transform="translate(-19.14 -10.26)"/><path class="cls-1" d="M127.74,12.73v.74h-1.83v5H125v-5h-.8v-.75h.8v-.51c0-1.27.64-2,1.76-2a2.63,2.63,0,0,1,1,.15v.75a2.84,2.84,0,0,0-.84-.14c-.68,0-1,.4-1,1.23v.48Zm1.19,5.79V10.31h.86v8.21Z" transform="translate(-19.14 -10.26)"/><path class="cls-1" d="M136.17,12.7H137v5.82h-.85v-1a2.22,2.22,0,0,1-2,1.13A2.12,2.12,0,0,1,132,16.31V12.7h.87v3.4a1.54,1.54,0,0,0,1.6,1.75A1.72,1.72,0,0,0,136.17,16Z" transform="translate(-19.14 -10.26)"/><path class="cls-1" d="M139.21,11.43v-.95h1v.95Zm0,7.09V12.7h.87v5.82Z" transform="translate(-19.14 -10.26)"/><path class="cls-1" d="M147,18.52V17.35a2.59,2.59,0,0,1-2.22,1.29,2.83,2.83,0,0,1-2.78-3,2.86,2.86,0,0,1,2.78-3A2.62,2.62,0,0,1,147,13.82V10.31h.87v8.21ZM145,13.36a2.05,2.05,0,0,0-2,2.25,2.09,2.09,0,0,0,2,2.26,2.17,2.17,0,0,0,2.11-2.26A2.17,2.17,0,0,0,145,13.36Z" transform="translate(-19.14 -10.26)"/><path class="cls-1" d="M158.33,18.52V17.35a2.61,2.61,0,0,1-2.23,1.29,2.84,2.84,0,0,1-2.78-3,2.87,2.87,0,0,1,2.78-3,2.64,2.64,0,0,1,2.23,1.24V10.31h.87v8.21Zm-2.07-5.16a2.05,2.05,0,0,0-2,2.25,2.1,2.1,0,0,0,2,2.26,2.16,2.16,0,0,0,2.1-2.26A2.16,2.16,0,0,0,156.26,13.36Z" transform="translate(-19.14 -10.26)"/><path class="cls-1" d="M161.38,11.43v-.95h1v.95Zm.06,7.09V12.7h.86v5.82Z" transform="translate(-19.14 -10.26)"/><path class="cls-1" d="M166.46,18.63a4,4,0,0,1-2.4-.85l.44-.62a3.37,3.37,0,0,0,2,.74c.7,0,1.2-.36,1.2-.92v0c0-.59-.68-.81-1.45-1s-1.92-.57-1.92-1.64v0a1.76,1.76,0,0,1,2-1.67,4,4,0,0,1,2.09.64l-.39.66a3.3,3.3,0,0,0-1.73-.57c-.68,0-1.12.36-1.12.85v0c0,.55.72.76,1.5,1s1.86.62,1.86,1.67v0C168.53,18,167.62,18.63,166.46,18.63Z" transform="translate(-19.14 -10.26)"/><path class="cls-1" d="M171.54,16.87a.86.86,0,0,0,1,1,1.78,1.78,0,0,0,.84-.2v.74a2.17,2.17,0,0,1-1.05.25A1.48,1.48,0,0,1,170.67,17V13.47h-.81V12.7h.81V11h.87V12.7h1.84v.77h-1.84Z" transform="translate(-19.14 -10.26)"/><path class="cls-1" d="M176,18.52h-.86V12.7H176v1.52a2.51,2.51,0,0,1,2.38-1.62v.94h-.07c-1.27,0-2.31.91-2.31,2.66Z" transform="translate(-19.14 -10.26)"/><path class="cls-1" d="M179.93,11.43v-.95h1v.95Zm.06,7.09V12.7h.86v5.82Z" transform="translate(-19.14 -10.26)"/><path class="cls-1" d="M186.18,18.64A2.61,2.61,0,0,1,184,17.41v1.11h-.87V10.31H184v3.56a2.62,2.62,0,0,1,2.22-1.29,2.84,2.84,0,0,1,2.78,3A2.84,2.84,0,0,1,186.18,18.64ZM186,13.36a2.17,2.17,0,0,0-2.11,2.25A2.17,2.17,0,0,0,186,17.87a2.06,2.06,0,0,0,2-2.25A2.09,2.09,0,0,0,186,13.36Z" transform="translate(-19.14 -10.26)"/><path class="cls-1" d="M194.91,12.7h.86v5.82h-.86v-1a2.21,2.21,0,0,1-2,1.13,2.12,2.12,0,0,1-2.22-2.33V12.7h.86v3.4a1.55,1.55,0,0,0,1.61,1.75A1.71,1.71,0,0,0,194.91,16Z" transform="translate(-19.14 -10.26)"/><path class="cls-1" d="M199.11,16.87a.86.86,0,0,0,1,1,1.76,1.76,0,0,0,.84-.2v.74a2.13,2.13,0,0,1-1,.25A1.48,1.48,0,0,1,198.24,17V13.47h-.81V12.7h.81V11h.87V12.7H201v.77h-1.85Z" transform="translate(-19.14 -10.26)"/><path class="cls-1" d="M202.73,11.43v-.95h1v.95Zm.06,7.09V12.7h.87v5.82Z" transform="translate(-19.14 -10.26)"/><path class="cls-1" d="M208.55,18.65a3,3,0,0,1-3-3,3,3,0,1,1,3,3Zm0-5.3a2.14,2.14,0,0,0-2.13,2.26,2.19,2.19,0,0,0,2.15,2.27,2.14,2.14,0,0,0,2.14-2.25A2.2,2.2,0,0,0,208.55,13.35Z" transform="translate(-19.14 -10.26)"/><path class="cls-1" d="M214.25,18.52h-.86V12.7h.86v1a2.2,2.2,0,0,1,2-1.14,2.13,2.13,0,0,1,2.23,2.33v3.61h-.87v-3.4a1.54,1.54,0,0,0-1.6-1.75,1.71,1.71,0,0,0-1.75,1.82Z" transform="translate(-19.14 -10.26)"/><path class="cls-1" d="M71.94,28.27h4a13.22,13.22,0,0,1,5.81,1,7.69,7.69,0,0,1,3.14,3.2,11.38,11.38,0,0,1,.54,9,8,8,0,0,1-1.9,2.93A6.72,6.72,0,0,1,81,46a18.23,18.23,0,0,1-4.9.45H71.94Zm3.39,3.34v11.5h1.59a7.88,7.88,0,0,0,3.4-.55,4.16,4.16,0,0,0,1.73-1.83,6.93,6.93,0,0,0,.67-3.18,6.12,6.12,0,0,0-1.6-4.5q-1.44-1.44-4.63-1.44Z" transform="translate(-19.14 -10.26)"/><path class="cls-1" d="M91.36,27.46a2,2,0,0,1,1.5.65,2.23,2.23,0,0,1,0,3.1,2.07,2.07,0,0,1-3,0,2.2,2.2,0,0,1-.63-1.58,2.13,2.13,0,0,1,.62-1.53A2,2,0,0,1,91.36,27.46ZM89.69,33H93V46.49H89.69Z" transform="translate(-19.14 -10.26)"/><path class="cls-1" d="M95.63,33H99l3.36,8,3.34-8h3.38l-5.65,13.48h-2.16Z" transform="translate(-19.14 -10.26)"/><path class="cls-1" d="M125.32,40.73h-10.7A3.58,3.58,0,0,0,115.86,43a3.81,3.81,0,0,0,2.57.85,4.4,4.4,0,0,0,3.2-1.32l2.81,1.33a6.66,6.66,0,0,1-2.51,2.24,7.83,7.83,0,0,1-3.48.72,6.78,6.78,0,0,1-7-7,7.09,7.09,0,0,1,2-5.12,6.51,6.51,0,0,1,4.91-2,6.76,6.76,0,0,1,5.1,2,7.42,7.42,0,0,1,2,5.38ZM122,38.06a3.42,3.42,0,0,0-1.3-1.83,3.75,3.75,0,0,0-2.26-.7,3.92,3.92,0,0,0-2.44.79,4.36,4.36,0,0,0-1.22,1.74Z" transform="translate(-19.14 -10.26)"/><path class="cls-1" d="M128.21,33h2.85v1.7a3.52,3.52,0,0,1,1.24-1.52,2.91,2.91,0,0,1,1.68-.53,3.08,3.08,0,0,1,1.35.35l-1,2.91a2.24,2.24,0,0,0-1-.3,1.55,1.55,0,0,0-1.3,1,9.05,9.05,0,0,0-.53,3.79l0,.66v5.45h-3.31Z" transform="translate(-19.14 -10.26)"/><path class="cls-1" d="M138.38,28h3.33v5h2v2.91h-2V46.49h-3.33V35.92h-1.7V33h1.7Z" transform="translate(-19.14 -10.26)"/><path class="cls-1" d="M159.77,40.73h-10.7A3.63,3.63,0,0,0,150.31,43a3.83,3.83,0,0,0,2.57.85,4.43,4.43,0,0,0,3.21-1.32l2.8,1.33a6.59,6.59,0,0,1-2.51,2.24,7.83,7.83,0,0,1-3.48.72,6.78,6.78,0,0,1-7.05-7,7.09,7.09,0,0,1,2-5.12,6.51,6.51,0,0,1,4.91-2,6.76,6.76,0,0,1,5.1,2,7.42,7.42,0,0,1,2,5.38Zm-3.33-2.67a3.37,3.37,0,0,0-1.3-1.83,3.75,3.75,0,0,0-2.26-.7,3.94,3.94,0,0,0-2.44.79,4.36,4.36,0,0,0-1.22,1.74Z" transform="translate(-19.14 -10.26)"/><path class="cls-1" d="M162.66,33h2.86v1.7a3.57,3.57,0,0,1,1.23-1.52,2.91,2.91,0,0,1,1.68-.53,3.16,3.16,0,0,1,1.36.35l-1,2.91a2.24,2.24,0,0,0-1-.3,1.53,1.53,0,0,0-1.3,1,8.89,8.89,0,0,0-.53,3.79v6.11h-3.31Z" transform="translate(-19.14 -10.26)"/><path class="cls-1" d="M182.22,30.75,179.69,33c-.89-1.25-1.79-1.88-2.72-1.88a1.63,1.63,0,0,0-1.09.36,1.07,1.07,0,0,0-.43.83,1.48,1.48,0,0,0,.3.87,25.05,25.05,0,0,0,2.51,2.34c1.3,1.1,2.09,1.8,2.37,2.09a7.28,7.28,0,0,1,1.47,2,5.09,5.09,0,0,1,.44,2.12,4.88,4.88,0,0,1-1.53,3.7A5.51,5.51,0,0,1,177,47a5.81,5.81,0,0,1-3.34-1,7.45,7.45,0,0,1-2.44-3l2.87-1.75c.86,1.61,1.86,2.41,3,2.41a2.16,2.16,0,0,0,1.48-.52,1.56,1.56,0,0,0,.6-1.2,2.1,2.1,0,0,0-.45-1.24,13.52,13.52,0,0,0-2-1.89A20.13,20.13,0,0,1,173,35.05a4.83,4.83,0,0,1-.86-2.63,4.34,4.34,0,0,1,1.42-3.25A4.88,4.88,0,0,1,177,27.81a5.51,5.51,0,0,1,2.56.63A9.37,9.37,0,0,1,182.22,30.75Z" transform="translate(-19.14 -10.26)"/><path class="cls-1" d="M202.87,31.47l-2.39,2.31A7.34,7.34,0,0,0,195,31.17,5.86,5.86,0,0,0,190.66,33a6,6,0,0,0-1.76,4.4,6.58,6.58,0,0,0,.78,3.24,5.68,5.68,0,0,0,2.21,2.22,6.77,6.77,0,0,0,5.89.24,9.8,9.8,0,0,0,2.7-2l2.32,2.45A12.68,12.68,0,0,1,199,46.18a10.11,10.11,0,0,1-4,.77,9.21,9.21,0,0,1-6.85-2.7,9.38,9.38,0,0,1-2.67-6.9,9.6,9.6,0,0,1,1.22-4.85,9.1,9.1,0,0,1,3.48-3.4,9.64,9.64,0,0,1,4.87-1.29,10.15,10.15,0,0,1,4.28,1A10.29,10.29,0,0,1,202.87,31.47Z" transform="translate(-19.14 -10.26)"/><path class="cls-1" d="M211.81,28.27h3.46l6.91,18.22h-3.55l-1.41-3.76H209.9l-1.46,3.76h-3.55Zm1.75,4.83-2.4,6.25H216Z" transform="translate(-19.14 -10.26)"/><path class="cls-1" d="M225.87,28.27h3.27l7.68,12v-12h3.42V46.49H237l-7.67-12v12h-3.41Z" transform="translate(-19.14 -10.26)"/><path class="cls-1" d="M58.53,10.33v7.14a4.5,4.5,0,0,1-9,0H45.4a4.5,4.5,0,0,1-9,0H32.27a4.49,4.49,0,0,1-8.91.83v-8H19.14V46.54h4.22V39.91a8.64,8.64,0,0,0,11-1.82,8.63,8.63,0,0,0,13.13,0,8.63,8.63,0,0,0,11.06,1.77v6.68h4.23V10.33ZM54,37a4.5,4.5,0,0,1-4.5-4.49H45.4a4.5,4.5,0,0,1-9,0H32.27a4.49,4.49,0,0,1-8.91.83V24.89a8.64,8.64,0,0,0,11-1.82,8.63,8.63,0,0,0,13.13,0,8.63,8.63,0,0,0,11.06,1.77v7.65A4.5,4.5,0,0,1,54,37" transform="translate(-19.14 -10.26)"/></svg>