<svg id="Layer_1" data-name="Layer 1" xmlns="http://www.w3.org/2000/svg" viewBox="0 0 231.32 52.4"><defs><style>.cls-1{fill:#9c2371;}</style></defs><title>fracScan</title><path class="cls-1" d="M69.7,11.58v7.87h-.89V11.58Z" transform="translate(-16 -11.24)"/><path class="cls-1" d="M73,19.45h-.86V13.64H73v1a2.22,2.22,0,0,1,2-1.14,2.12,2.12,0,0,1,2.22,2.33v3.61h-.86V16.06a1.56,1.56,0,0,0-1.61-1.76A1.72,1.72,0,0,0,73,16.12Z" transform="translate(-16 -11.24)"/><path class="cls-1" d="M82,19.59a3,3,0,1,1,2.33-5l-.57.61A2.33,2.33,0,0,0,82,14.28a2.15,2.15,0,0,0-2.08,2.26A2.17,2.17,0,0,0,82,18.81,2.4,2.4,0,0,0,83.81,18l.55.51A3,3,0,0,1,82,19.59Z" transform="translate(-16 -11.24)"/><path class="cls-1" d="M86.94,19.45h-.86V13.64h.86v1.52a2.48,2.48,0,0,1,2.38-1.62v.93h-.07c-1.27,0-2.31.91-2.31,2.67Z" transform="translate(-16 -11.24)"/><path class="cls-1" d="M93.25,18.83A2.41,2.41,0,0,0,95.09,18l.54.49a3,3,0,0,1-2.4,1.09,2.89,2.89,0,0,1-2.9-3,2.87,2.87,0,0,1,2.79-3c1.72,0,2.71,1.38,2.71,3.09,0,.07,0,.16,0,.27H91.21A2,2,0,0,0,93.25,18.83ZM95,16.22a1.91,1.91,0,0,0-1.85-2,2,2,0,0,0-1.89,2Z" transform="translate(-16 -11.24)"/><path class="cls-1" d="M98,14.75,97.72,14a4.82,4.82,0,0,1,2.11-.48,2.17,2.17,0,0,1,2.48,2.34v3.55h-.83v-.87a2.58,2.58,0,0,1-2.11,1,2,2,0,0,1-2.17-1.83c0-1.23,1-1.89,2.49-1.89a6.43,6.43,0,0,1,1.79.25v-.2c0-1.05-.64-1.59-1.74-1.59A4,4,0,0,0,98,14.75Zm.1,3c0,.74.67,1.17,1.46,1.17a1.76,1.76,0,0,0,1.95-1.57v-.57a6.25,6.25,0,0,0-1.71-.24C98.69,16.51,98.08,17,98.08,17.72Z" transform="translate(-16 -11.24)"/><path class="cls-1" d="M106.36,19.56a4,4,0,0,1-2.41-.85l.44-.62a3.42,3.42,0,0,0,2,.74c.7,0,1.21-.36,1.21-.92v0c0-.59-.69-.81-1.45-1s-1.93-.58-1.93-1.65v0a1.76,1.76,0,0,1,2-1.66,3.89,3.89,0,0,1,2.09.64l-.39.65a3.28,3.28,0,0,0-1.72-.56c-.69,0-1.12.36-1.12.84v0c0,.56.72.77,1.49,1s1.87.62,1.87,1.67v0C108.43,18.92,107.52,19.56,106.36,19.56Z" transform="translate(-16 -11.24)"/><path class="cls-1" d="M112.9,18.83a2.39,2.39,0,0,0,1.83-.82l.54.49a3,3,0,0,1-2.4,1.09,2.9,2.9,0,0,1-2.9-3,2.87,2.87,0,0,1,2.79-3c1.72,0,2.71,1.38,2.71,3.09,0,.07,0,.16,0,.27h-4.61A2,2,0,0,0,112.9,18.83Zm1.69-2.61a1.91,1.91,0,0,0-1.85-2,2,2,0,0,0-1.89,2Z" transform="translate(-16 -11.24)"/><path class="cls-1" d="M124,19.58a2.62,2.62,0,0,1-2.22-1.24v2.91h-.87V13.64h.87v1.17a2.6,2.6,0,0,1,2.22-1.3,2.84,2.84,0,0,1,2.78,3A2.85,2.85,0,0,1,124,19.58Zm-.15-5.29a2.17,2.17,0,0,0-2.11,2.25,2.17,2.17,0,0,0,2.11,2.26,2.05,2.05,0,0,0,2-2.25A2.09,2.09,0,0,0,123.88,14.29Z" transform="translate(-16 -11.24)"/><path class="cls-1" d="M129,14.75l-.26-.71a4.83,4.83,0,0,1,2.12-.48,2.17,2.17,0,0,1,2.47,2.34v3.55h-.83v-.87a2.58,2.58,0,0,1-2.11,1,2,2,0,0,1-2.17-1.83c0-1.23,1-1.89,2.49-1.89a6.43,6.43,0,0,1,1.79.25v-.2c0-1.05-.64-1.59-1.73-1.59A4,4,0,0,0,129,14.75Zm.1,3c0,.74.68,1.17,1.46,1.17a1.76,1.76,0,0,0,2-1.57v-.57a6.25,6.25,0,0,0-1.71-.24C129.75,16.51,129.14,17,129.14,17.72Z" transform="translate(-16 -11.24)"/><path class="cls-1" d="M140.16,19.45V18.28a2.6,2.6,0,0,1-2.22,1.3,2.84,2.84,0,0,1-2.78-3,2.86,2.86,0,0,1,2.78-3,2.62,2.62,0,0,1,2.22,1.24V11.24H141v8.21Zm-2.07-5.16a2.05,2.05,0,0,0-2,2.25,2.09,2.09,0,0,0,2,2.26,2.17,2.17,0,0,0,2.11-2.26A2.17,2.17,0,0,0,138.09,14.29Z" transform="translate(-16 -11.24)"/><path class="cls-1" d="M149.55,19.59a3,3,0,0,1,0-6.08,3,3,0,0,1,2.33,1l-.58.61a2.33,2.33,0,0,0-1.76-.88,2.15,2.15,0,0,0-2.08,2.26,2.17,2.17,0,0,0,2.13,2.27,2.42,2.42,0,0,0,1.78-.86l.55.51A3,3,0,0,1,149.55,19.59Z" transform="translate(-16 -11.24)"/><path class="cls-1" d="M156.16,19.59a3,3,0,0,1-3-3,3,3,0,1,1,3,3Zm0-5.31A2.13,2.13,0,0,0,154,16.54a2.18,2.18,0,0,0,2.15,2.27,2.14,2.14,0,0,0,2.13-2.25A2.19,2.19,0,0,0,156.16,14.28Z" transform="translate(-16 -11.24)"/><path class="cls-1" d="M167.71,13.51a2.1,2.1,0,0,1,2.17,2.34v3.6H169V16.06c0-1.13-.56-1.76-1.51-1.76a1.63,1.63,0,0,0-1.61,1.8v3.35H165V16c0-1.09-.58-1.73-1.5-1.73a1.69,1.69,0,0,0-1.62,1.83v3.32h-.86V13.64h.86v1a2.13,2.13,0,0,1,1.88-1.11,2,2,0,0,1,1.87,1.16A2.3,2.3,0,0,1,167.71,13.51Z" transform="translate(-16 -11.24)"/><path class="cls-1" d="M178.71,13.51a2.09,2.09,0,0,1,2.16,2.34v3.6H180V16.06c0-1.13-.56-1.76-1.51-1.76a1.63,1.63,0,0,0-1.61,1.8v3.35H176V16c0-1.09-.57-1.73-1.49-1.73a1.68,1.68,0,0,0-1.62,1.83v3.32h-.87V13.64h.87v1a2.1,2.1,0,0,1,1.87-1.11,2,2,0,0,1,1.87,1.16A2.32,2.32,0,0,1,178.71,13.51Z" transform="translate(-16 -11.24)"/><path class="cls-1" d="M185.6,18.83a2.41,2.41,0,0,0,1.84-.82l.54.49a3,3,0,0,1-2.4,1.09,2.89,2.89,0,0,1-2.9-3,2.87,2.87,0,0,1,2.79-3c1.72,0,2.71,1.38,2.71,3.09,0,.07,0,.16,0,.27h-4.61A2,2,0,0,0,185.6,18.83Zm1.7-2.61a1.91,1.91,0,0,0-1.85-2,2,2,0,0,0-1.89,2Z" transform="translate(-16 -11.24)"/><path class="cls-1" d="M190.86,19.45H190V13.64h.87v1.52a2.48,2.48,0,0,1,2.37-1.62v.93h-.07c-1.27,0-2.3.91-2.3,2.67Z" transform="translate(-16 -11.24)"/><path class="cls-1" d="M197.23,19.59a3,3,0,1,1,2.32-5l-.57.61a2.33,2.33,0,0,0-1.77-.88,2.15,2.15,0,0,0-2.08,2.26,2.18,2.18,0,0,0,2.14,2.27,2.42,2.42,0,0,0,1.78-.86l.55.51A3,3,0,0,1,197.23,19.59Z" transform="translate(-16 -11.24)"/><path class="cls-1" d="M201.34,12.37v-1h1v1Zm.06,7.08V13.64h.87v5.81Z" transform="translate(-16 -11.24)"/><path class="cls-1" d="M204.91,14.75l-.26-.71a4.83,4.83,0,0,1,2.12-.48,2.17,2.17,0,0,1,2.47,2.34v3.55h-.83v-.87a2.58,2.58,0,0,1-2.11,1,2,2,0,0,1-2.17-1.83c0-1.23,1-1.89,2.49-1.89a6.43,6.43,0,0,1,1.79.25v-.2c0-1.05-.64-1.59-1.73-1.59A4,4,0,0,0,204.91,14.75Zm.1,3c0,.74.68,1.17,1.46,1.17a1.76,1.76,0,0,0,1.95-1.57v-.57a6.25,6.25,0,0,0-1.71-.24C205.62,16.51,205,17,205,17.72Z" transform="translate(-16 -11.24)"/><path class="cls-1" d="M211.45,19.45V11.24h.86v8.21Z" transform="translate(-16 -11.24)"/><path class="cls-1" d="M222.59,13.64h.94L221,19.5h-.77l-2.52-5.86h1l2,4.82Z" transform="translate(-16 -11.24)"/><path class="cls-1" d="M225.25,14.75,225,14a4.83,4.83,0,0,1,2.12-.48,2.17,2.17,0,0,1,2.47,2.34v3.55h-.83v-.87a2.58,2.58,0,0,1-2.11,1,2,2,0,0,1-2.17-1.83c0-1.23,1-1.89,2.49-1.89a6.43,6.43,0,0,1,1.79.25v-.2c0-1.05-.64-1.59-1.73-1.59A4,4,0,0,0,225.25,14.75Zm.1,3c0,.74.68,1.17,1.46,1.17a1.76,1.76,0,0,0,1.95-1.57v-.57a6.25,6.25,0,0,0-1.71-.24C226,16.51,225.35,17,225.35,17.72Z" transform="translate(-16 -11.24)"/><path class="cls-1" d="M231.79,19.45V11.24h.86v8.21Z" transform="translate(-16 -11.24)"/><path class="cls-1" d="M239.09,13.64h.85v5.81h-.85v-1a2.23,2.23,0,0,1-2,1.14,2.13,2.13,0,0,1-2.23-2.33V13.64h.86V17a1.56,1.56,0,0,0,1.61,1.76A1.72,1.72,0,0,0,239.09,17Z" transform="translate(-16 -11.24)"/><path class="cls-1" d="M244.75,18.83a2.39,2.39,0,0,0,1.83-.82l.54.49a3,3,0,0,1-2.4,1.09,2.89,2.89,0,0,1-2.9-3,2.87,2.87,0,0,1,2.79-3c1.72,0,2.71,1.38,2.71,3.09,0,.07,0,.16,0,.27H242.7A2,2,0,0,0,244.75,18.83Zm1.69-2.61a1.91,1.91,0,0,0-1.85-2,2,2,0,0,0-1.89,2Z" transform="translate(-16 -11.24)"/><path class="cls-1" d="M182.2,61.88h-.87V55.11h-2.54v-.79h6v.79H182.2Z" transform="translate(-16 -11.24)"/><path class="cls-1" d="M187.93,61.29a2.32,2.32,0,0,0,1.76-.79l.52.46a2.87,2.87,0,0,1-2.3,1,2.79,2.79,0,0,1-2.79-2.92,2.76,2.76,0,0,1,2.68-2.91,2.66,2.66,0,0,1,2.61,3,1.28,1.28,0,0,1,0,.26H186A2,2,0,0,0,187.93,61.29Zm1.63-2.51a1.84,1.84,0,0,0-1.78-1.9,1.92,1.92,0,0,0-1.81,1.9Z" transform="translate(-16 -11.24)"/><path class="cls-1" d="M195,62a2.92,2.92,0,1,1,2.23-4.84l-.55.58a2.26,2.26,0,0,0-1.69-.84,2.06,2.06,0,0,0-2,2.17,2.09,2.09,0,0,0,2,2.19,2.32,2.32,0,0,0,1.71-.84l.53.5A2.86,2.86,0,0,1,195,62Z" transform="translate(-16 -11.24)"/><path class="cls-1" d="M200.15,61.88h-.84V54h.84v3.27a2.09,2.09,0,0,1,1.91-1.09,2,2,0,0,1,2.14,2.23v3.47h-.83V58.62a1.5,1.5,0,0,0-1.55-1.69,1.64,1.64,0,0,0-1.67,1.75Z" transform="translate(-16 -11.24)"/><path class="cls-1" d="M207.44,61.88h-.84V56.3h.84v1a2.09,2.09,0,0,1,1.91-1.09,2,2,0,0,1,2.14,2.23v3.47h-.83V58.62a1.5,1.5,0,0,0-1.55-1.69,1.64,1.64,0,0,0-1.67,1.75Z" transform="translate(-16 -11.24)"/><path class="cls-1" d="M216.45,62a2.86,2.86,0,0,1-2.89-2.9,2.91,2.91,0,1,1,2.89,2.9Zm0-5.1a2,2,0,0,0-2,2.17,2.11,2.11,0,0,0,2.07,2.19,2.06,2.06,0,0,0,2.05-2.16A2.11,2.11,0,0,0,216.45,56.91Z" transform="translate(-16 -11.24)"/><path class="cls-1" d="M221.59,61.88V54h.84v7.88Z" transform="translate(-16 -11.24)"/><path class="cls-1" d="M227.56,62a2.86,2.86,0,0,1-2.9-2.9,2.91,2.91,0,1,1,2.9,2.9Zm0-5.1a2,2,0,0,0-2,2.17,2.1,2.1,0,0,0,2.06,2.19,2.06,2.06,0,0,0,2-2.16A2.11,2.11,0,0,0,227.56,56.91Z" transform="translate(-16 -11.24)"/><path class="cls-1" d="M235.09,63.63a4.35,4.35,0,0,1-2.53-.78l.37-.64a3.62,3.62,0,0,0,2.15.71,1.84,1.84,0,0,0,2-2v-.66a2.66,2.66,0,0,1-2.2,1.18,2.64,2.64,0,0,1,0-5.27,2.62,2.62,0,0,1,2.18,1.12v-1h.84v4.61A2.54,2.54,0,0,1,235.09,63.63Zm0-6.72a1.85,1.85,0,0,0-1.93,1.89,1.89,1.89,0,0,0,1.93,1.92,1.91,1.91,0,1,0,0-3.81Z" transform="translate(-16 -11.24)"/><path class="cls-1" d="M243.16,62.07c-.47,1.15-1,1.57-1.86,1.57a2.42,2.42,0,0,1-1.18-.28l.28-.66a1.75,1.75,0,0,0,.87.21c.5,0,.81-.26,1.15-1l-2.54-5.56h.92l2,4.65,1.79-4.65h.89Z" transform="translate(-16 -11.24)"/><path class="cls-1" d="M68.87,29.15h8.91v3.38H72.27v3.31h5.51v3.33H72.27v8.2h-3.4Z" transform="translate(-16 -11.24)"/><path class="cls-1" d="M80.67,33.9h2.86v1.69a3.56,3.56,0,0,1,1.23-1.52,2.9,2.9,0,0,1,1.68-.52,3,3,0,0,1,1.36.35l-1,2.91a2.24,2.24,0,0,0-1-.3,1.51,1.51,0,0,0-1.29,1A8.79,8.79,0,0,0,84,41.27l0,.65v5.45H80.67Z" transform="translate(-16 -11.24)"/><path class="cls-1" d="M100.24,33.9h3.33V47.37h-3.33V46a6.28,6.28,0,0,1-2,1.35,5.31,5.31,0,0,1-2.12.42,5.87,5.87,0,0,1-4.45-2,7.11,7.11,0,0,1-1.88-5,7.32,7.32,0,0,1,1.82-5.12,5.74,5.74,0,0,1,4.41-2A5.44,5.44,0,0,1,98.3,34a6,6,0,0,1,1.94,1.37Zm-3.5,2.77a3.35,3.35,0,0,0-2.57,1.11,4,4,0,0,0-1,2.84,4.11,4.11,0,0,0,1,2.88,3.34,3.34,0,0,0,2.56,1.12,3.39,3.39,0,0,0,2.6-1.11,4.07,4.07,0,0,0,1-2.9,4,4,0,0,0-1-2.85A3.43,3.43,0,0,0,96.74,36.67Z" transform="translate(-16 -11.24)"/><path class="cls-1" d="M120.93,36.62l-2.77,1.55A4.67,4.67,0,0,0,116.61,37a4.47,4.47,0,0,0-1.79-.33,4.12,4.12,0,0,0-3,1.14,3.87,3.87,0,0,0-1.15,2.9,3.74,3.74,0,0,0,1.11,2.8,4,4,0,0,0,2.92,1.09,4.19,4.19,0,0,0,3.48-1.55l2.63,1.83a8,8,0,0,1-11.52.71,7,7,0,0,1-2-4.93,7,7,0,0,1,1-3.6,6.87,6.87,0,0,1,2.7-2.59,7.88,7.88,0,0,1,3.86-.94,7.79,7.79,0,0,1,3.55.8A6.77,6.77,0,0,1,120.93,36.62Z" transform="translate(-16 -11.24)"/><path class="cls-1" d="M134.72,31.63l-2.53,2.27c-.89-1.26-1.8-1.89-2.72-1.89a1.66,1.66,0,0,0-1.1.37,1.08,1.08,0,0,0-.43.82,1.45,1.45,0,0,0,.31.87,23.89,23.89,0,0,0,2.51,2.34c1.3,1.11,2.09,1.8,2.37,2.09a7.28,7.28,0,0,1,1.47,2,5.17,5.17,0,0,1,.43,2.13,4.94,4.94,0,0,1-1.52,3.7,5.55,5.55,0,0,1-4,1.46,5.92,5.92,0,0,1-3.34-.95,7.58,7.58,0,0,1-2.43-3l2.87-1.76c.86,1.61,1.86,2.42,3,2.42a2.21,2.21,0,0,0,1.48-.52,1.57,1.57,0,0,0,.6-1.21,2.08,2.08,0,0,0-.45-1.23,13.13,13.13,0,0,0-2-1.9,20.79,20.79,0,0,1-3.79-3.75,4.79,4.79,0,0,1-.85-2.63A4.32,4.32,0,0,1,126,30.05a4.92,4.92,0,0,1,3.51-1.36,5.37,5.37,0,0,1,2.56.64A9.32,9.32,0,0,1,134.72,31.63Z" transform="translate(-16 -11.24)"/><path class="cls-1" d="M154.31,32.35l-2.39,2.32a7.32,7.32,0,0,0-5.48-2.62,5.87,5.87,0,0,0-4.34,1.79,6,6,0,0,0-1.76,4.4,6.57,6.57,0,0,0,.78,3.23,5.55,5.55,0,0,0,2.21,2.22,6.31,6.31,0,0,0,3.17.81,6.4,6.4,0,0,0,2.72-.57,9.61,9.61,0,0,0,2.7-2l2.32,2.46a12.86,12.86,0,0,1-3.76,2.73,10.07,10.07,0,0,1-4,.76,9.24,9.24,0,0,1-6.85-2.69,9.4,9.4,0,0,1-2.66-6.91,9.53,9.53,0,0,1,1.21-4.84A9.13,9.13,0,0,1,141.62,30a9.67,9.67,0,0,1,4.87-1.29,10,10,0,0,1,4.28,1A10.14,10.14,0,0,1,154.31,32.35Z" transform="translate(-16 -11.24)"/><path class="cls-1" d="M162.26,29.15h3.46l6.9,18.22h-3.55l-1.4-3.75h-7.32l-1.46,3.75h-3.55ZM164,34l-2.41,6.26h4.8Z" transform="translate(-16 -11.24)"/><path class="cls-1" d="M175.78,29.15h3.27l7.68,12v-12h3.42V47.37h-3.29l-7.67-11.95V47.37h-3.41Z" transform="translate(-16 -11.24)"/><path class="cls-1" d="M196,32c1.33.29,1.95.78,1.95,1.7s-.86,1.71-2.05,1.71a3.52,3.52,0,0,1-2.45-1l.42-.5a2.86,2.86,0,0,0,2.06.85c.8,0,1.33-.42,1.33-1s-.3-.88-1.56-1.15-2-.74-2-1.73a1.77,1.77,0,0,1,2-1.65,3.14,3.14,0,0,1,2.11.74l-.4.52a2.63,2.63,0,0,0-1.72-.65c-.78,0-1.28.43-1.28,1S194.7,31.72,196,32Z" transform="translate(-16 -11.24)"/><path class="cls-1" d="M202.73,33.68h0l-2.18-3.2v4.84h-.66v-6h.68l2.18,3.27,2.19-3.27h.68v6h-.67V30.47Z" transform="translate(-16 -11.24)"/><rect class="cls-1" y="32.08" width="42.73" height="4.2"/><polygon class="cls-1" points="16.96 9.71 11.56 1.34 6.17 9.71 9.47 9.71 9.47 27.44 13.66 27.44 13.66 9.71 16.96 9.71"/><path class="cls-1" d="M51.13,34.44a6.44,6.44,0,0,1-4,2.15V39.5H44.26V36.68a9.52,9.52,0,0,1-6.08-2.62l2.09-3.24a6.79,6.79,0,0,0,2.25,1.63,6.46,6.46,0,0,0,2.82.62,3,3,0,0,0,2.13-.71,2.35,2.35,0,0,0,.78-1.81,2.28,2.28,0,0,0-.84-1.85,11.61,11.61,0,0,0-2.61-1.49,28.14,28.14,0,0,1-3.09-1.42,6.26,6.26,0,0,1-2-1.86,5.24,5.24,0,0,1-.87-3.13,5.72,5.72,0,0,1,1.47-3.89,6.4,6.4,0,0,1,4-2.05v-3h2.85v3a8.86,8.86,0,0,1,5.07,2.23l-2,3.16a6,6,0,0,0-2.09-1.33,6.57,6.57,0,0,0-2.38-.45,2.67,2.67,0,0,0-1.85.62,2.09,2.09,0,0,0-.68,1.6A1.88,1.88,0,0,0,44,22.25a13.47,13.47,0,0,0,2.55,1.35,23.44,23.44,0,0,1,3.07,1.48,6.88,6.88,0,0,1,2.09,2,5.5,5.5,0,0,1,.89,3.21,6.26,6.26,0,0,1-1.43,4.17" transform="translate(-16 -11.24)"/></svg>