<svg id="Layer_1" data-name="Layer 1" xmlns="http://www.w3.org/2000/svg" viewBox="0 0 258.2 52.54"><defs><style>.cls-1{fill:#9c2371;}</style></defs><title>proppantScan</title><path class="cls-1" d="M69,17.75a4,4,0,0,1-4-4.06,4,4,0,0,1,4-4.08,4,4,0,0,1,4,4.06A4,4,0,0,1,69,17.75Zm0-7.32A3.1,3.1,0,0,0,66,13.67a3.14,3.14,0,0,0,3.11,3.26,3.09,3.09,0,0,0,3.08-3.24A3.13,3.13,0,0,0,69,10.43Z" transform="translate(-12 -9.57)"/><path class="cls-1" d="M78.18,17.74A2.62,2.62,0,0,1,76,16.5v2.91h-.87V11.8H76V13a2.59,2.59,0,0,1,2.22-1.29,2.83,2.83,0,0,1,2.78,3A2.85,2.85,0,0,1,78.18,17.74ZM78,12.45a2.17,2.17,0,0,0-2.11,2.25A2.17,2.17,0,0,0,78,17a2.05,2.05,0,0,0,2-2.25A2.09,2.09,0,0,0,78,12.45Z" transform="translate(-12 -9.57)"/><path class="cls-1" d="M84,16a.86.86,0,0,0,1,1,1.77,1.77,0,0,0,.84-.21v.75a2.25,2.25,0,0,1-1,.24,1.47,1.47,0,0,1-1.64-1.64V12.56h-.81V11.8h.81V10H84V11.8h1.85v.76H84Z" transform="translate(-12 -9.57)"/><path class="cls-1" d="M87.71,10.53v-1h1v1Zm.06,7.08V11.8h.86v5.81Z" transform="translate(-12 -9.57)"/><path class="cls-1" d="M97.6,11.68A2.08,2.08,0,0,1,99.76,14v3.6h-.87V14.22c0-1.13-.56-1.76-1.51-1.76a1.63,1.63,0,0,0-1.6,1.8v3.35h-.86V14.19c0-1.09-.57-1.73-1.49-1.73a1.69,1.69,0,0,0-1.62,1.84v3.31h-.87V11.8h.87v1a2.1,2.1,0,0,1,1.87-1.1,2,2,0,0,1,1.87,1.15A2.33,2.33,0,0,1,97.6,11.68Z" transform="translate(-12 -9.57)"/><path class="cls-1" d="M102,10.53v-1h1v1Zm.06,7.08V11.8h.87v5.81Z" transform="translate(-12 -9.57)"/><path class="cls-1" d="M105,12.53V11.8h4.9v.55L106,16.88h3.86v.73h-5v-.55l3.85-4.53Z" transform="translate(-12 -9.57)"/><path class="cls-1" d="M114.13,17a2.39,2.39,0,0,0,1.83-.82l.54.49a3,3,0,0,1-2.4,1.09,2.9,2.9,0,0,1-2.9-3,2.86,2.86,0,0,1,2.79-3c1.72,0,2.71,1.37,2.71,3.08a2.62,2.62,0,0,1,0,.27h-4.61A2,2,0,0,0,114.13,17Zm1.69-2.6a1.91,1.91,0,0,0-1.85-2,2,2,0,0,0-1.89,2Z" transform="translate(-12 -9.57)"/><path class="cls-1" d="M123.05,17.61h-.87V11.8h.87v1.52a2.47,2.47,0,0,1,2.37-1.62v.93h-.07c-1.27,0-2.3.91-2.3,2.67Z" transform="translate(-12 -9.57)"/><path class="cls-1" d="M129.35,17a2.38,2.38,0,0,0,1.83-.82l.54.49a3,3,0,0,1-2.4,1.09,2.9,2.9,0,0,1-2.9-3,2.86,2.86,0,0,1,2.79-3c1.72,0,2.71,1.37,2.71,3.08a2.62,2.62,0,0,1,0,.27H127.3A2,2,0,0,0,129.35,17Zm1.7-2.6a1.92,1.92,0,0,0-1.86-2,2,2,0,0,0-1.89,2Z" transform="translate(-12 -9.57)"/><path class="cls-1" d="M135.66,17.73a4,4,0,0,1-2.41-.86l.44-.62a3.42,3.42,0,0,0,2,.74c.7,0,1.21-.36,1.21-.92v0c0-.58-.69-.81-1.45-1-.91-.26-1.93-.58-1.93-1.65v0a1.76,1.76,0,0,1,2-1.66,3.89,3.89,0,0,1,2.09.64l-.39.65a3.28,3.28,0,0,0-1.72-.56c-.69,0-1.12.36-1.12.84v0c0,.56.71.77,1.49,1s1.87.61,1.87,1.66v0A1.84,1.84,0,0,1,135.66,17.73Z" transform="translate(-12 -9.57)"/><path class="cls-1" d="M142.19,17a2.41,2.41,0,0,0,1.84-.82l.54.49a3,3,0,0,1-2.4,1.09,2.89,2.89,0,0,1-2.9-3,2.86,2.86,0,0,1,2.79-3c1.72,0,2.71,1.37,2.71,3.08a2.62,2.62,0,0,1,0,.27h-4.61A2,2,0,0,0,142.19,17Zm1.7-2.6a1.91,1.91,0,0,0-1.85-2,2,2,0,0,0-1.89,2Z" transform="translate(-12 -9.57)"/><path class="cls-1" d="M147.45,17.61h-.87V11.8h.87v1.52a2.48,2.48,0,0,1,2.37-1.62v.93h-.07c-1.27,0-2.3.91-2.3,2.67Z" transform="translate(-12 -9.57)"/><path class="cls-1" d="M155.73,11.8h.93l-2.53,5.86h-.76l-2.52-5.86h1l2,4.82Z" transform="translate(-12 -9.57)"/><path class="cls-1" d="M160.64,17.75a3,3,0,1,1,3.05-3.05A3,3,0,0,1,160.64,17.75Zm0-5.31a2.13,2.13,0,0,0-2.12,2.26A2.18,2.18,0,0,0,160.67,17a2.14,2.14,0,0,0,2.13-2.25A2.19,2.19,0,0,0,160.64,12.44Z" transform="translate(-12 -9.57)"/><path class="cls-1" d="M165.57,10.53v-1h1v1Zm.06,7.08V11.8h.87v5.81Z" transform="translate(-12 -9.57)"/><path class="cls-1" d="M169.67,17.61h-.87V11.8h.87v1.52A2.48,2.48,0,0,1,172,11.7v.93H172c-1.27,0-2.3.91-2.3,2.67Z" transform="translate(-12 -9.57)"/><path class="cls-1" d="M179.94,17.75a3,3,0,1,1,2.33-5l-.58.61a2.33,2.33,0,0,0-1.76-.88,2.15,2.15,0,0,0-2.08,2.26A2.17,2.17,0,0,0,180,17a2.4,2.4,0,0,0,1.78-.86l.55.51A3,3,0,0,1,179.94,17.75Z" transform="translate(-12 -9.57)"/><path class="cls-1" d="M186.52,17.75a3,3,0,1,1,3-3.05A3,3,0,0,1,186.52,17.75Zm0-5.31a2.14,2.14,0,0,0-2.13,2.26A2.19,2.19,0,0,0,186.54,17a2.14,2.14,0,0,0,2.14-2.25A2.19,2.19,0,0,0,186.52,12.44Z" transform="translate(-12 -9.57)"/><path class="cls-1" d="M192.28,17.61h-.86V11.8h.86v1a2.19,2.19,0,0,1,2-1.13A2.12,2.12,0,0,1,196.5,14v3.61h-.87V14.22A1.55,1.55,0,0,0,194,12.46a1.71,1.71,0,0,0-1.74,1.82Z" transform="translate(-12 -9.57)"/><path class="cls-1" d="M199.81,16a.86.86,0,0,0,1,1,1.8,1.8,0,0,0,.84-.21v.75a2.29,2.29,0,0,1-1,.24,1.48,1.48,0,0,1-1.64-1.64V12.56h-.81V11.8h.81V10h.87V11.8h1.84v.76h-1.84Z" transform="translate(-12 -9.57)"/><path class="cls-1" d="M203.81,12.91l-.26-.71a4.83,4.83,0,0,1,2.12-.48,2.17,2.17,0,0,1,2.47,2.34v3.55h-.83v-.87a2.58,2.58,0,0,1-2.1,1A2,2,0,0,1,203,15.91c0-1.23,1-1.88,2.48-1.88a6.46,6.46,0,0,1,1.79.24v-.2c0-1.05-.64-1.59-1.73-1.59A4,4,0,0,0,203.81,12.91Zm.1,3c0,.74.68,1.17,1.47,1.17a1.76,1.76,0,0,0,1.94-1.57v-.57a6.25,6.25,0,0,0-1.71-.24C204.52,14.67,203.91,15.14,203.91,15.88Z" transform="translate(-12 -9.57)"/><path class="cls-1" d="M212.89,17.75a3,3,0,1,1,2.33-5l-.58.61a2.31,2.31,0,0,0-1.76-.88,2.15,2.15,0,0,0-2.08,2.26A2.17,2.17,0,0,0,212.93,17a2.4,2.4,0,0,0,1.78-.86l.55.51A3,3,0,0,1,212.89,17.75Z" transform="translate(-12 -9.57)"/><path class="cls-1" d="M218.16,16a.86.86,0,0,0,1,1,1.81,1.81,0,0,0,.85-.21v.75a2.29,2.29,0,0,1-1,.24,1.48,1.48,0,0,1-1.64-1.64V12.56h-.81V11.8h.81V10h.87V11.8H220v.76h-1.84Z" transform="translate(-12 -9.57)"/><path class="cls-1" d="M191.09,60.35h-.87V53.58h-2.54v-.79h5.94v.79h-2.53Z" transform="translate(-12 -9.57)"/><path class="cls-1" d="M196.82,59.76a2.32,2.32,0,0,0,1.76-.79l.52.46a2.87,2.87,0,0,1-2.3,1A2.79,2.79,0,0,1,194,57.56a2.76,2.76,0,0,1,2.68-2.91,2.66,2.66,0,0,1,2.6,3v.26h-4.43A2,2,0,0,0,196.82,59.76Zm1.63-2.51a1.84,1.84,0,0,0-1.78-1.9,1.92,1.92,0,0,0-1.81,1.9Z" transform="translate(-12 -9.57)"/><path class="cls-1" d="M203.92,60.48a2.92,2.92,0,1,1,2.23-4.84l-.55.58a2.26,2.26,0,0,0-1.69-.84,2.06,2.06,0,0,0-2,2.17A2.09,2.09,0,0,0,204,59.74a2.32,2.32,0,0,0,1.71-.84l.53.5A2.89,2.89,0,0,1,203.92,60.48Z" transform="translate(-12 -9.57)"/><path class="cls-1" d="M209,60.35h-.84V52.46H209v3.28A2.09,2.09,0,0,1,211,54.65a2,2,0,0,1,2.14,2.23v3.47h-.83V57.09a1.5,1.5,0,0,0-1.55-1.69A1.64,1.64,0,0,0,209,57.15Z" transform="translate(-12 -9.57)"/><path class="cls-1" d="M216.34,60.35h-.84V54.77h.84v1a2.09,2.09,0,0,1,1.91-1.09,2,2,0,0,1,2.14,2.23v3.47h-.83V57.09A1.5,1.5,0,0,0,218,55.4a1.64,1.64,0,0,0-1.67,1.75Z" transform="translate(-12 -9.57)"/><path class="cls-1" d="M225.34,60.48a2.86,2.86,0,0,1-2.89-2.9,2.91,2.91,0,1,1,2.89,2.9Zm0-5.1a2,2,0,0,0-2,2.17,2.11,2.11,0,0,0,2.07,2.19,2.06,2.06,0,0,0,2-2.16A2.11,2.11,0,0,0,225.34,55.38Z" transform="translate(-12 -9.57)"/><path class="cls-1" d="M230.48,60.35V52.46h.84v7.89Z" transform="translate(-12 -9.57)"/><path class="cls-1" d="M236.45,60.48a2.86,2.86,0,0,1-2.9-2.9,2.91,2.91,0,1,1,2.9,2.9Zm0-5.1a2.06,2.06,0,0,0-2,2.17,2.11,2.11,0,0,0,2.07,2.19,2.06,2.06,0,0,0,2.05-2.16A2.11,2.11,0,0,0,236.45,55.38Z" transform="translate(-12 -9.57)"/><path class="cls-1" d="M244,62.1a4.36,4.36,0,0,1-2.54-.78l.37-.64a3.62,3.62,0,0,0,2.15.71,1.84,1.84,0,0,0,2-2v-.66a2.66,2.66,0,0,1-2.2,1.18,2.64,2.64,0,0,1,0-5.27A2.62,2.62,0,0,1,246,55.77v-1h.84v4.61A2.54,2.54,0,0,1,244,62.1Zm0-6.72a1.85,1.85,0,0,0-1.93,1.89A1.88,1.88,0,0,0,244,59.18a1.91,1.91,0,1,0,0-3.8Z" transform="translate(-12 -9.57)"/><path class="cls-1" d="M252.06,60.54c-.47,1.15-1,1.57-1.85,1.57a2.43,2.43,0,0,1-1.19-.28l.28-.66a1.75,1.75,0,0,0,.87.21c.5,0,.81-.26,1.15-1.05l-2.54-5.56h.92l2,4.65,1.79-4.65h.89Z" transform="translate(-12 -9.57)"/><path class="cls-1" d="M260.61,30.35c1.34.29,2,.78,2,1.7s-.86,1.71-2.05,1.71a3.52,3.52,0,0,1-2.45-1l.42-.5a2.88,2.88,0,0,0,2.06.85c.8,0,1.33-.42,1.33-1s-.3-.88-1.56-1.15-2-.74-2-1.74a1.77,1.77,0,0,1,2-1.64,3.14,3.14,0,0,1,2.11.74l-.4.52a2.63,2.63,0,0,0-1.73-.65c-.78,0-1.27.43-1.27,1S259.3,30.07,260.61,30.35Z" transform="translate(-12 -9.57)"/><path class="cls-1" d="M267.34,32h0l-2.18-3.21v4.85h-.66v-6h.69L267.33,31l2.18-3.27h.69v6h-.68V28.82Z" transform="translate(-12 -9.57)"/><path class="cls-1" d="M65,27.77h3.67a12,12,0,0,1,4.31.56,4.34,4.34,0,0,1,2.08,1.78,5.49,5.49,0,0,1,.76,3,4.93,4.93,0,0,1-1,3.17A5.09,5.09,0,0,1,72.16,38a15.53,15.53,0,0,1-3.66.29V46H65ZM68.5,34.9h1.11a6,6,0,0,0,1.8-.19,1.55,1.55,0,0,0,.8-.62,1.74,1.74,0,0,0,.29-1,1.65,1.65,0,0,0-.81-1.54,4.68,4.68,0,0,0-2.21-.36h-1Z" transform="translate(-12 -9.57)"/><path class="cls-1" d="M79.1,32.52H82v1.69a3.73,3.73,0,0,1,1.25-1.52A3.07,3.07,0,0,1,85,32.17a3.2,3.2,0,0,1,1.38.35l-1.06,2.91a2.28,2.28,0,0,0-1-.3,1.55,1.55,0,0,0-1.32,1,8.79,8.79,0,0,0-.54,3.79V46H79.1Z" transform="translate(-12 -9.57)"/><path class="cls-1" d="M95.35,32.17a7.22,7.22,0,0,1,3.59.95,7,7,0,0,1,3.56,6.12,7.12,7.12,0,0,1-1,3.57A6.76,6.76,0,0,1,99,45.4a7.07,7.07,0,0,1-3.61.94,6.71,6.71,0,0,1-4.94-2.06A7.16,7.16,0,0,1,90.68,34,6.78,6.78,0,0,1,95.35,32.17Zm.06,3.18a3.5,3.5,0,0,0-2.63,1.1,3.89,3.89,0,0,0-1,2.8,4,4,0,0,0,1,2.85,3.46,3.46,0,0,0,2.62,1.09A3.51,3.51,0,0,0,98,42.09a3.94,3.94,0,0,0,1-2.84,3.86,3.86,0,0,0-1-2.81A3.51,3.51,0,0,0,95.41,35.35Z" transform="translate(-12 -9.57)"/><path class="cls-1" d="M109.6,32.52V34a6.42,6.42,0,0,1,2-1.37,5.63,5.63,0,0,1,2.28-.46,5.9,5.9,0,0,1,4.49,2,7.2,7.2,0,0,1,1.84,5.11,7.05,7.05,0,0,1-1.91,5,6,6,0,0,1-4.52,2,5.54,5.54,0,0,1-2.16-.42,6.6,6.6,0,0,1-2-1.35v6.35h-3.35V32.52Zm3.56,2.77a3.54,3.54,0,0,0-2.65,1.09,3.91,3.91,0,0,0-1.06,2.85,4,4,0,0,0,1.06,2.9,3.49,3.49,0,0,0,2.65,1.11,3.41,3.41,0,0,0,2.6-1.12,4,4,0,0,0,1.06-2.88,4,4,0,0,0-1-2.84A3.44,3.44,0,0,0,113.16,35.29Z" transform="translate(-12 -9.57)"/><path class="cls-1" d="M127.36,32.52V34a6.42,6.42,0,0,1,2-1.37,5.63,5.63,0,0,1,2.28-.46,5.88,5.88,0,0,1,4.48,2A7.21,7.21,0,0,1,138,39.28a7.05,7.05,0,0,1-1.91,5,6,6,0,0,1-4.52,2,5.56,5.56,0,0,1-2.17-.42,6.68,6.68,0,0,1-2-1.35v6.35H124V32.52Zm3.55,2.77a3.57,3.57,0,0,0-2.65,1.09,4,4,0,0,0-1,2.85,4,4,0,0,0,1,2.9,3.52,3.52,0,0,0,2.65,1.11,3.44,3.44,0,0,0,2.61-1.12,4.42,4.42,0,0,0,0-5.72A3.44,3.44,0,0,0,130.91,35.29Z" transform="translate(-12 -9.57)"/><path class="cls-1" d="M151.71,32.52h3.38V46h-3.38V44.57a6.81,6.81,0,0,1-2,1.35,5.47,5.47,0,0,1-2.16.42,6,6,0,0,1-4.51-2,7.05,7.05,0,0,1-1.91-5A7.25,7.25,0,0,1,143,34.17a5.89,5.89,0,0,1,4.48-2,5.63,5.63,0,0,1,2.28.46,6.38,6.38,0,0,1,2,1.37Zm-3.56,2.77a3.41,3.41,0,0,0-2.6,1.11,4.42,4.42,0,0,0,0,5.72,3.39,3.39,0,0,0,2.59,1.12,3.47,3.47,0,0,0,2.64-1.11,4,4,0,0,0,1-2.9,4,4,0,0,0-1-2.85A3.53,3.53,0,0,0,148.15,35.29Z" transform="translate(-12 -9.57)"/><path class="cls-1" d="M159.52,32.52h3.38V33.9A8,8,0,0,1,165,32.55a5.12,5.12,0,0,1,1.91-.38,4.63,4.63,0,0,1,3.4,1.4,4.79,4.79,0,0,1,1.18,3.52V46h-3.35v-5.9a15.32,15.32,0,0,0-.21-3.2,2.29,2.29,0,0,0-.75-1.21,2.17,2.17,0,0,0-1.33-.41,2.5,2.5,0,0,0-1.76.68,3.68,3.68,0,0,0-1,1.9,15.16,15.16,0,0,0-.15,2.74V46h-3.38Z" transform="translate(-12 -9.57)"/><path class="cls-1" d="M176.2,27.55h3.38v5h2v2.91h-2V46H176.2V35.43h-1.74V32.52h1.74Z" transform="translate(-12 -9.57)"/><path class="cls-1" d="M195.35,30.25l-2.56,2.27c-.91-1.26-1.83-1.88-2.76-1.88a1.71,1.71,0,0,0-1.12.36,1.05,1.05,0,0,0-.43.82,1.38,1.38,0,0,0,.31.87A22.28,22.28,0,0,0,191.33,35c1.33,1.11,2.13,1.81,2.41,2.09a7.2,7.2,0,0,1,1.49,2,5,5,0,0,1,.45,2.13,4.86,4.86,0,0,1-1.56,3.7,5.64,5.64,0,0,1-4,1.46,6.09,6.09,0,0,1-3.39-1,7.64,7.64,0,0,1-2.47-3l2.91-1.76c.88,1.61,1.89,2.42,3,2.42a2.2,2.2,0,0,0,1.5-.53,1.51,1.51,0,0,0,.61-1.2,2,2,0,0,0-.46-1.23,13.07,13.07,0,0,0-2-1.9,20.7,20.7,0,0,1-3.85-3.74,4.77,4.77,0,0,1-.87-2.64,4.33,4.33,0,0,1,1.45-3.25,5,5,0,0,1,3.56-1.35,5.64,5.64,0,0,1,2.6.63A9.54,9.54,0,0,1,195.35,30.25Z" transform="translate(-12 -9.57)"/><path class="cls-1" d="M216.24,31l-2.43,2.31a7.5,7.5,0,0,0-5.57-2.62,6.1,6.1,0,0,0-6.18,6.19,6.47,6.47,0,0,0,.79,3.23,5.57,5.57,0,0,0,2.24,2.22,6.43,6.43,0,0,0,3.21.81,6.55,6.55,0,0,0,2.76-.57,9.73,9.73,0,0,0,2.75-2L216.16,43a13,13,0,0,1-3.81,2.73,10.41,10.41,0,0,1-4.1.76,9.48,9.48,0,0,1-7-2.69,9.35,9.35,0,0,1-2.7-6.91A9.47,9.47,0,0,1,199.82,32a9.2,9.2,0,0,1,3.53-3.41,10,10,0,0,1,5-1.28,10.26,10.26,0,0,1,4.34.95A10.38,10.38,0,0,1,216.24,31Z" transform="translate(-12 -9.57)"/><path class="cls-1" d="M225.31,27.77h3.52l7,18.22h-3.6l-1.43-3.75h-7.43L221.89,46h-3.61Zm1.78,4.83-2.45,6.26h4.88Z" transform="translate(-12 -9.57)"/><path class="cls-1" d="M239.58,27.77h3.32l7.8,12v-12h3.47V46h-3.34L243,34V46h-3.46Z" transform="translate(-12 -9.57)"/><rect class="cls-1" y="0.05" width="43.7" height="4.26"/><rect class="cls-1" y="32.04" width="43.7" height="4.29"/><rect class="cls-1" x="12.29" y="16.03" width="19.11" height="4.29"/><rect class="cls-1" x="19.7" y="8.62" width="4.29" height="19.11"/></svg>