<svg xmlns="http://www.w3.org/2000/svg" width="126.818" height="126.86" viewBox="0 0 126.818 126.86">
  <g id="Analytics-Icon" transform="translate(-1035 -1606.983)">
    <g id="Group_245" data-name="Group 245" transform="translate(1035 1606.983)">
      <rect id="Rectangle_142" data-name="Rectangle 142" width="44.7" height="13.99" transform="translate(95.211 85.36) rotate(45)" fill="#0a78be"/>
      <rect id="Rectangle_143" data-name="Rectangle 143" width="19.9" height="13.99" transform="translate(27.1 74.4) rotate(-90)" fill="#0a78be"/>
      <rect id="Rectangle_144" data-name="Rectangle 144" width="30.4" height="13.99" transform="translate(49.3 74.4) rotate(-90)" fill="#0a78be"/>
      <rect id="Rectangle_145" data-name="Rectangle 145" width="41.1" height="13.99" transform="translate(71.5 74.4) rotate(-90)" fill="#0a78be"/>
      <path id="Path_205" data-name="Path 205" d="M56.4,112.8a56.4,56.4,0,1,1,56.4-56.4,56.4,56.4,0,0,1-56.4,56.4ZM56.4,12a44.4,44.4,0,1,0,44.4,44.4A44.4,44.4,0,0,0,56.4,12Z" transform="translate(0 0)" fill="#0a78be"/>
    </g>
  </g>
</svg>
