<svg xmlns="http://www.w3.org/2000/svg" width="533.1" height="79.323" viewBox="0 0 533.1 79.323">
  <g id="Group_410" data-name="Group 410" transform="translate(-232 -1766.229)">
    <path id="Path_563" data-name="Path 563" d="M4.2,40H17.85c11,0,18.6-7.65,18.6-17.5v-.1c0-9.85-7.6-17.4-18.6-17.4H4.2Zm7.7-6.95V11.95h5.95c6.3,0,10.55,4.35,10.55,10.55v.1c0,6.2-4.25,10.45-10.55,10.45ZM54.7,40.6a13.4,13.4,0,0,0,10.95-5L61.3,31.75a8.782,8.782,0,0,1-6.5,2.75,6.216,6.216,0,0,1-6.55-5.25H66.9c.05-.7.1-1.4.1-2,0-7.6-4.1-14.55-13.05-14.55-7.8,0-13.25,6.3-13.25,13.95v.1C40.7,34.95,46.65,40.6,54.7,40.6ZM48.15,24.5c.6-3.45,2.65-5.7,5.8-5.7,3.2,0,5.2,2.3,5.65,5.7Zm24,23.5h7.6V36.5a10.292,10.292,0,0,0,8.35,4c6.35,0,12.2-4.9,12.2-13.85v-.1c0-8.95-5.95-13.85-12.2-13.85a9.842,9.842,0,0,0-8.35,4.35V13.2h-7.6Zm14-13.95c-3.55,0-6.5-2.95-6.5-7.4v-.1c0-4.45,2.95-7.4,6.5-7.4s6.55,2.95,6.55,7.4v.1C92.7,31.15,89.7,34.05,86.15,34.05ZM105.75,40h7.6V3.5h-7.6Zm26.95.6a13.4,13.4,0,0,0,10.95-5l-4.35-3.85a8.782,8.782,0,0,1-6.5,2.75,6.216,6.216,0,0,1-6.55-5.25H144.9c.05-.7.1-1.4.1-2,0-7.6-4.1-14.55-13.05-14.55-7.8,0-13.25,6.3-13.25,13.95v.1C118.7,34.95,124.65,40.6,132.7,40.6Zm-6.55-16.1c.6-3.45,2.65-5.7,5.8-5.7,3.2,0,5.2,2.3,5.65,5.7ZM159.2,40.45a11.2,11.2,0,0,0,6-1.55V32.8a7.729,7.729,0,0,1-3.75.95c-1.7,0-2.45-.85-2.45-2.6V19.7h6.3V13.2H159V6.35h-7.6V13.2h-3.2v6.5h3.2V32.4C151.4,38.6,154.55,40.45,159.2,40.45Zm11.35-30.2h8V3.5h-8Zm.2,29.75h7.6V13.2h-7.6Zm27.4.6c8.35,0,14.55-6.25,14.55-13.95v-.1c0-7.7-6.15-13.85-14.45-13.85-8.35,0-14.55,6.25-14.55,13.95v.1C183.7,34.45,189.85,40.6,198.15,40.6Zm.1-6.55a7.12,7.12,0,0,1-7.05-7.4v-.1c0-3.95,2.6-7.3,6.95-7.3a7.121,7.121,0,0,1,7.05,7.4v.1C205.2,30.7,202.6,34.05,198.25,34.05ZM217.7,40h7.6V25.05c0-3.6,1.85-5.45,4.75-5.45s4.6,1.85,4.6,5.45V40h7.6V22.65c0-6.15-3.35-9.95-9.1-9.95-3.85,0-6.1,2.05-7.85,4.3V13.2h-7.6Zm43.9.5c7.55,0,12.85-3.9,12.85-10.85v-.1c0-6.1-4-8.65-11.1-10.5-6.05-1.55-7.55-2.3-7.55-4.6v-.1c0-1.7,1.55-3.05,4.5-3.05s6,1.3,9.1,3.45l4-5.8a20.26,20.26,0,0,0-13-4.45c-7.15,0-12.25,4.2-12.25,10.55v.1c0,6.95,4.55,8.9,11.6,10.7,5.85,1.5,7.05,2.5,7.05,4.45v.1c0,2.05-1.9,3.3-5.05,3.3-4,0-7.3-1.65-10.45-4.25l-4.55,5.45A22.272,22.272,0,0,0,261.6,40.5Zm35.45.1a17.89,17.89,0,0,0,14.35-6.25l-4.9-4.95c-2.75,2.5-5.2,4.1-9.2,4.1-6,0-10.15-5-10.15-11v-.1c0-6,4.25-10.9,10.15-10.9,3.5,0,6.25,1.5,8.95,3.95l4.9-5.65c-3.25-3.2-7.2-5.4-13.8-5.4A17.789,17.789,0,0,0,279.1,22.5v.1A17.667,17.667,0,0,0,297.05,40.6Zm17-.6h7.85l3.2-7.85h14.8L343.1,40h8.05l-15-35.25h-7.1Zm13.8-14.65L332.5,14l4.65,11.35ZM356.05,40h7.6V17.75L380.6,40h6.55V5h-7.6V26.55L363.15,5h-7.1Zm43.1-19.35c3.15,0,5.65-1.75,5.65-4.55,0-2.5-1.95-3.65-5.35-4.4-3.2-.7-4.05-1.45-4.05-2.75s1.2-2.3,3.2-2.3a7.234,7.234,0,0,1,4.5,1.65l1.25-1.6a8.624,8.624,0,0,0-5.65-1.95c-3.25,0-5.5,1.85-5.5,4.4,0,2.65,1.95,3.7,5.4,4.45,3.1.7,4,1.35,4,2.7,0,1.45-1.35,2.45-3.4,2.45a8.219,8.219,0,0,1-5.45-2.15l-1.3,1.55A10.2,10.2,0,0,0,399.15,20.65Zm9.35-.25h2.2V8.6l5.45,8.35h.3l5.5-8.35V20.4h2.15V5h-2.3l-5.45,8.45L410.85,5H408.5Z" transform="translate(341 1762.729)" fill="#69374b"/>
    <path id="Path_564" data-name="Path 564" d="M1.98,16H3.56V10.56h4L11.62,16h1.94l-4.3-5.72c2.2-.4,3.8-1.76,3.8-4.08V6.16A3.867,3.867,0,0,0,11.98,3.4,5.52,5.52,0,0,0,8,2H1.98ZM3.56,9.14V3.46H7.88c2.26,0,3.58,1.04,3.58,2.76v.04c0,1.8-1.5,2.88-3.6,2.88ZM16.9,11.46h8.2c.02-.24.02-.4.02-.54,0-3.04-1.76-5.48-4.82-5.48a5.106,5.106,0,0,0-4.96,5.4,5.145,5.145,0,0,0,5.16,5.4,5.337,5.337,0,0,0,4.26-1.94l-.96-.86a4.279,4.279,0,0,1-3.26,1.46A3.613,3.613,0,0,1,16.9,11.46Zm0-1.24a3.57,3.57,0,0,1,3.36-3.48c2.04,0,3.12,1.6,3.3,3.48Zm15.26,6a4.649,4.649,0,0,0,3.96-2.3V16h1.54V1.4H36.12V7.64a4.665,4.665,0,0,0-3.96-2.2,5.074,5.074,0,0,0-4.94,5.38v.04A5.043,5.043,0,0,0,32.16,16.22Zm.28-1.38a3.723,3.723,0,0,1-3.64-4V10.8a3.649,3.649,0,0,1,3.64-3.98,3.843,3.843,0,0,1,3.74,3.98v.04A3.861,3.861,0,0,1,32.44,14.84ZM44.9,16.22a3.939,3.939,0,0,0,3.54-2.02V16h1.52V5.66H48.44v5.92a3.053,3.053,0,0,1-3.1,3.24c-1.82,0-2.86-1.2-2.86-3.12V5.66H40.94v6.42C40.94,14.54,42.4,16.22,44.9,16.22Zm13.18.02a5.328,5.328,0,0,0,4.22-2l-.98-.92a4.267,4.267,0,0,1-3.16,1.54,3.863,3.863,0,0,1-3.8-4.02V10.8a3.816,3.816,0,0,1,3.7-4A4.175,4.175,0,0,1,61.2,8.36l1.02-1.08a5.386,5.386,0,0,0-9.44,3.56v.04A5.309,5.309,0,0,0,58.08,16.24Zm7.38-4.78h8.2c.02-.24.02-.4.02-.54,0-3.04-1.76-5.48-4.82-5.48a5.106,5.106,0,0,0-4.96,5.4,5.145,5.145,0,0,0,5.16,5.4,5.337,5.337,0,0,0,4.26-1.94l-.96-.86A4.279,4.279,0,0,1,69.1,14.9,3.613,3.613,0,0,1,65.46,11.46Zm0-1.24a3.57,3.57,0,0,1,3.36-3.48c2.04,0,3.12,1.6,3.3,3.48ZM82.38,16h1.54V10.08a3.042,3.042,0,0,1,3.1-3.24c1.82,0,2.86,1.2,2.86,3.12V16h1.54V9.58c0-2.46-1.46-4.14-3.96-4.14a3.916,3.916,0,0,0-3.54,2.02V5.66H82.38Zm17.04.24a5.369,5.369,0,0,0,5.42-5.4V10.8a5.39,5.39,0,0,0-10.78.04v.04A5.3,5.3,0,0,0,99.42,16.24Zm.04-1.38a3.879,3.879,0,0,1-3.82-4.02V10.8a3.816,3.816,0,0,1,3.78-4,3.913,3.913,0,0,1,3.84,4.04v.04A3.815,3.815,0,0,1,99.46,14.86ZM107.62,16h1.54V10.08a3.042,3.042,0,0,1,3.1-3.24c1.82,0,2.86,1.2,2.86,3.12V16h1.54V9.58c0-2.46-1.46-4.14-3.96-4.14a3.916,3.916,0,0,0-3.54,2.02V5.66h-1.54Zm12.32,3.2h1.54V14.02a4.665,4.665,0,0,0,3.96,2.2,5.062,5.062,0,0,0,4.94-5.38V10.8a5.043,5.043,0,0,0-4.94-5.36,4.649,4.649,0,0,0-3.96,2.3V5.66h-1.54Zm5.22-4.36a3.848,3.848,0,0,1-3.74-4V10.8a3.856,3.856,0,0,1,3.74-3.98,3.723,3.723,0,0,1,3.64,4v.04A3.649,3.649,0,0,1,125.16,14.84ZM133.22,16h1.54V11.88c0-3.12,1.84-4.74,4.1-4.74h.12V5.48a4.428,4.428,0,0,0-4.22,2.88V5.66h-1.54Zm12.38.24a5.369,5.369,0,0,0,5.42-5.4V10.8a5.39,5.39,0,0,0-10.78.04v.04A5.3,5.3,0,0,0,145.6,16.24Zm.04-1.38a3.879,3.879,0,0,1-3.82-4.02V10.8a3.816,3.816,0,0,1,3.78-4,3.913,3.913,0,0,1,3.84,4.04v.04A3.815,3.815,0,0,1,145.64,14.86Zm12.5,1.36a4.649,4.649,0,0,0,3.96-2.3V16h1.54V1.4H162.1V7.64a4.665,4.665,0,0,0-3.96-2.2,5.074,5.074,0,0,0-4.94,5.38v.04A5.043,5.043,0,0,0,158.14,16.22Zm.28-1.38a3.723,3.723,0,0,1-3.64-4V10.8a3.649,3.649,0,0,1,3.64-3.98,3.843,3.843,0,0,1,3.74,3.98v.04A3.861,3.861,0,0,1,158.42,14.84Zm12.46,1.38a3.939,3.939,0,0,0,3.54-2.02V16h1.52V5.66h-1.52v5.92a3.053,3.053,0,0,1-3.1,3.24c-1.82,0-2.86-1.2-2.86-3.12V5.66h-1.54v6.42C166.92,14.54,168.38,16.22,170.88,16.22Zm13.18.02a5.328,5.328,0,0,0,4.22-2l-.98-.92a4.267,4.267,0,0,1-3.16,1.54,3.863,3.863,0,0,1-3.8-4.02V10.8a3.816,3.816,0,0,1,3.7-4,4.175,4.175,0,0,1,3.14,1.56l1.02-1.08a5.386,5.386,0,0,0-9.44,3.56v.04A5.309,5.309,0,0,0,184.06,16.24Zm10.22-.06a3.873,3.873,0,0,0,1.86-.44V14.42a3.238,3.238,0,0,1-1.5.36,1.53,1.53,0,0,1-1.74-1.72V7.02h3.28V5.66H192.9V2.54h-1.54V5.66h-1.44V7.02h1.44v6.24A2.632,2.632,0,0,0,194.28,16.18ZM198.94,3.4h1.76V1.7h-1.76Zm.1,12.6h1.54V5.66h-1.54Zm8.58.08h1.36l4.5-10.42h-1.66l-3.5,8.58-3.48-8.58h-1.7Zm8.6-4.62h8.2c.02-.24.02-.4.02-.54,0-3.04-1.76-5.48-4.82-5.48a5.106,5.106,0,0,0-4.96,5.4,5.145,5.145,0,0,0,5.16,5.4,5.337,5.337,0,0,0,4.26-1.94l-.96-.86a4.279,4.279,0,0,1-3.26,1.46A3.613,3.613,0,0,1,216.22,11.46Zm0-1.24a3.57,3.57,0,0,1,3.36-3.48c2.04,0,3.12,1.6,3.3,3.48ZM233.72,16h1.54V7.02h3.26V5.7h-3.28V4.86c0-1.48.6-2.2,1.8-2.2a5.145,5.145,0,0,1,1.5.26V1.58a4.676,4.676,0,0,0-1.7-.26,3.044,3.044,0,0,0-2.22.8,3.649,3.649,0,0,0-.9,2.66v.9H232.3V7.02h1.42Zm6.92,0h1.52V1.4h-1.52Zm8.92.22a3.939,3.939,0,0,0,3.54-2.02V16h1.52V5.66H253.1v5.92a3.053,3.053,0,0,1-3.1,3.24c-1.82,0-2.86-1.2-2.86-3.12V5.66H245.6v6.42C245.6,14.54,247.06,16.22,249.56,16.22ZM258.12,3.4h1.76V1.7h-1.76Zm.1,12.6h1.54V5.66h-1.54Zm9.46.22a4.649,4.649,0,0,0,3.96-2.3V16h1.54V1.4h-1.54V7.64a4.665,4.665,0,0,0-3.96-2.2,5.074,5.074,0,0,0-4.94,5.38v.04A5.043,5.043,0,0,0,267.68,16.22Zm.28-1.38a3.723,3.723,0,0,1-3.64-4V10.8a3.649,3.649,0,0,1,3.64-3.98,3.843,3.843,0,0,1,3.74,3.98v.04A3.861,3.861,0,0,1,267.96,14.84ZM282.76,16h1.54V1.4h-1.54Zm9.84.24a5.369,5.369,0,0,0,5.42-5.4V10.8a5.39,5.39,0,0,0-10.78.04v.04A5.3,5.3,0,0,0,292.6,16.24Zm.04-1.38a3.879,3.879,0,0,1-3.82-4.02V10.8a3.816,3.816,0,0,1,3.78-4,3.913,3.913,0,0,1,3.84,4.04v.04A3.815,3.815,0,0,1,292.64,14.86Zm11.58,1.34c2.06,0,3.68-1.14,3.68-3.1v-.04c0-1.86-1.72-2.48-3.32-2.96-1.38-.42-2.66-.8-2.66-1.78V8.28c0-.86.78-1.5,2-1.5a5.846,5.846,0,0,1,3.06,1l.7-1.16a7.069,7.069,0,0,0-3.72-1.14c-2.04,0-3.52,1.18-3.52,2.96v.04c0,1.9,1.8,2.46,3.42,2.92,1.36.38,2.58.78,2.58,1.82v.04c0,1-.9,1.64-2.14,1.64a6.044,6.044,0,0,1-3.58-1.32l-.78,1.1A7.112,7.112,0,0,0,304.22,16.2Zm9.76,0c2.06,0,3.68-1.14,3.68-3.1v-.04c0-1.86-1.72-2.48-3.32-2.96-1.38-.42-2.66-.8-2.66-1.78V8.28c0-.86.78-1.5,2-1.5a5.846,5.846,0,0,1,3.06,1l.7-1.16a7.069,7.069,0,0,0-3.72-1.14c-2.04,0-3.52,1.18-3.52,2.96v.04c0,1.9,1.8,2.46,3.42,2.92,1.36.38,2.58.78,2.58,1.82v.04c0,1-.9,1.64-2.14,1.64a6.044,6.044,0,0,1-3.58-1.32l-.78,1.1A7.112,7.112,0,0,0,313.98,16.2Z" transform="translate(341 1826.351)" fill="#69374b"/>
    <g id="DepletionSCAN" transform="translate(277 1807.073)">
      <g id="DepletionSCAN-2" data-name="DepletionSCAN" transform="translate(-45 -37.344)">
        <path id="Path_523" data-name="Path 523" d="M54.39,77.264V62.4H61.41L49.983,44.7,38.556,62.4h7.021V77.264H21.9V86H79.112V77.264Z" transform="translate(-5.543 -11.314)" fill="#69374b"/>
        <path id="Path_524" data-name="Path 524" d="M59.8,60.9Z" transform="translate(-15.136 -15.415)" fill="#69374b"/>
        <path id="Path_525" data-name="Path 525" d="M81.261,0V9.934a9.261,9.261,0,0,1-18.448-1.2H54.3a9.261,9.261,0,0,1-18.523,0H27.187a9.261,9.261,0,0,1-18.448,1.2V0H0V74.689H8.739V23.975a17.776,17.776,0,0,0,22.705-3.734,17.776,17.776,0,0,0,27.112,0,17.776,17.776,0,0,0,22.705,3.734V74.689H90V0Z" fill="#69374b"/>
      </g>
    </g>
  </g>
</svg>
