<svg xmlns="http://www.w3.org/2000/svg" width="120.5" height="100" viewBox="0 0 120.5 100">
  <g id="DepletionSCAN" transform="translate(-1509 -867)">
    <g id="DepletionSCAN-2" data-name="DepletionSCAN" transform="translate(1509 867)">
      <path id="Path_219" data-name="Path 219" d="M65.4,88.3V68.4h9.4L59.5,44.7,44.2,68.4h9.4V88.3H21.9V100H98.5V88.3Z" fill="#69374b"/>
      <path id="Path_220" data-name="Path 220" d="M59.8,60.9Z" fill="#69374b"/>
      <path id="Path_221" data-name="Path 221" d="M108.8,0V13.3a12.4,12.4,0,0,1-24.7-1.6H72.7a12.4,12.4,0,0,1-24.8,0H36.4a12.4,12.4,0,0,1-24.7,1.6V0H0V100H11.7V32.1a23.8,23.8,0,0,0,30.4-5,23.8,23.8,0,0,0,36.3,0,23.8,23.8,0,0,0,30.4,5V100h11.7V0Z" fill="#69374b"/>
    </g>
  </g>
</svg>
