<svg xmlns="http://www.w3.org/2000/svg" width="500.523" height="83.223" viewBox="0 0 500.523 83.223">
  <g id="Group_410" data-name="Group 410" transform="translate(-232 -1769.729)">
    <path id="Path_571" data-name="Path 571" d="M4,54V18.99h12.4q18.652,0,18.652,17.065,0,8.179-5.09,13.062T16.406,54ZM11.89,25.411V47.6H15.8a10.555,10.555,0,0,0,8.044-3.076,11.672,11.672,0,0,0,2.917-8.374,10.588,10.588,0,0,0-2.893-7.874q-2.893-2.869-8.118-2.869ZM62.073,43.7H45.765q.391,5.444,6.86,5.444a13.394,13.394,0,0,0,7.251-1.953v5.566a19.049,19.049,0,0,1-9.009,1.855q-6.055,0-9.4-3.357t-3.345-9.363q0-6.226,3.613-9.863a12.038,12.038,0,0,1,8.887-3.638q5.469,0,8.459,3.247t2.991,8.813ZM54.92,38.961q0-5.371-4.346-5.371a4.149,4.149,0,0,0-3.21,1.538,6.981,6.981,0,0,0-1.648,3.833ZM73.976,51.095h-.1V65.5H66.163V29h7.715v3.76h.1a9.817,9.817,0,0,1,15.54-1.038q2.649,3.333,2.649,9.07,0,6.25-3.088,10.034A10.07,10.07,0,0,1,80.86,54.61,7.784,7.784,0,0,1,73.976,51.095Zm-.22-10.254v2a6.364,6.364,0,0,0,1.367,4.224A4.45,4.45,0,0,0,78.712,48.7,4.73,4.73,0,0,0,82.8,46.664a9.843,9.843,0,0,0,1.453-5.774q0-6.592-5.127-6.592a4.815,4.815,0,0,0-3.87,1.794A7.157,7.157,0,0,0,73.756,40.841ZM104.384,54H96.669V16.988h7.715Zm28.455-10.3H116.53q.391,5.444,6.86,5.444a13.394,13.394,0,0,0,7.251-1.953v5.566a19.049,19.049,0,0,1-9.009,1.855q-6.055,0-9.4-3.357t-3.345-9.363q0-6.226,3.613-9.863a12.038,12.038,0,0,1,8.887-3.638q5.469,0,8.459,3.247t2.991,8.813Zm-7.153-4.736q0-5.371-4.346-5.371a4.149,4.149,0,0,0-3.21,1.538,6.981,6.981,0,0,0-1.648,3.833Zm26.355,14.746a11.4,11.4,0,0,1-5.151.9q-8.154,0-8.154-8.472V34.688h-4.053V29h4.053V23.6l7.69-2.2V29h5.615v5.688h-5.615V44.8q0,3.906,3.1,3.906a5.227,5.227,0,0,0,2.515-.708Zm7.752-28.662a4.506,4.506,0,0,1-3.2-1.16,3.736,3.736,0,0,1-1.245-2.844,3.6,3.6,0,0,1,1.245-2.832,5.222,5.222,0,0,1,6.409,0,3.619,3.619,0,0,1,1.233,2.832A3.722,3.722,0,0,1,163,23.922,4.583,4.583,0,0,1,159.793,25.045ZM163.6,54h-7.715V29H163.6Zm17.908.61q-6.25,0-9.827-3.5T168.106,41.6q0-6.2,3.711-9.7t10.034-3.5q6.226,0,9.766,3.5a12.453,12.453,0,0,1,3.54,9.265q0,6.226-3.65,9.839T181.51,54.61Zm.2-20.312a5.146,5.146,0,0,0-4.248,1.88,8.29,8.29,0,0,0-1.514,5.322q0,7.2,5.811,7.2,5.542,0,5.542-7.4Q187.3,34.3,181.705,34.3Zm42.1,19.7h-7.69V40.108q0-5.811-4.15-5.811a4.118,4.118,0,0,0-3.3,1.538,5.86,5.86,0,0,0-1.294,3.906V54h-7.715V29h7.715v3.955h.1a8.841,8.841,0,0,1,8.032-4.565q8.3,0,8.3,10.3Zm4.749-1.343V44.845a15.012,15.012,0,0,0,4.614,2.673,14.832,14.832,0,0,0,5.029.891,11.153,11.153,0,0,0,2.6-.269,6.09,6.09,0,0,0,1.855-.745,3.248,3.248,0,0,0,1.111-1.123,2.8,2.8,0,0,0,.366-1.4,3.035,3.035,0,0,0-.586-1.831,6.305,6.305,0,0,0-1.6-1.489,16.709,16.709,0,0,0-2.4-1.318q-1.392-.635-3-1.294a15.326,15.326,0,0,1-6.116-4.175A9.114,9.114,0,0,1,228.41,28.8a9.488,9.488,0,0,1,1.1-4.7A9.331,9.331,0,0,1,232.5,20.87,13.41,13.41,0,0,1,236.882,19a22.518,22.518,0,0,1,5.273-.6,31.718,31.718,0,0,1,4.846.33,19.059,19.059,0,0,1,3.894,1.013v7.3a11.775,11.775,0,0,0-1.917-1.074,15.184,15.184,0,0,0-2.136-.769,16.3,16.3,0,0,0-2.185-.452,15.465,15.465,0,0,0-2.063-.146,10.758,10.758,0,0,0-2.441.256,6.262,6.262,0,0,0-1.855.72,3.583,3.583,0,0,0-1.172,1.111,2.633,2.633,0,0,0-.415,1.453,2.774,2.774,0,0,0,.464,1.575,5.321,5.321,0,0,0,1.318,1.318,13.99,13.99,0,0,0,2.075,1.221q1.221.6,2.759,1.233A30.742,30.742,0,0,1,247.1,35.36a13.409,13.409,0,0,1,2.869,2.234,8.7,8.7,0,0,1,1.831,2.844,10.05,10.05,0,0,1,.635,3.723,9.973,9.973,0,0,1-1.111,4.919,9.018,9.018,0,0,1-3.015,3.223,13.075,13.075,0,0,1-4.431,1.77,25.609,25.609,0,0,1-5.334.537,29.662,29.662,0,0,1-5.481-.488A16.545,16.545,0,0,1,228.557,52.657Zm54.236.1a23.087,23.087,0,0,1-10.01,1.855q-8.057,0-12.671-4.736T255.5,37.252q0-8.4,5.188-13.623T274.15,18.4a25.18,25.18,0,0,1,8.643,1.294v7.593a15.314,15.314,0,0,0-8.008-2.1,10.623,10.623,0,0,0-7.959,3.1,11.505,11.505,0,0,0-3.027,8.4,11.284,11.284,0,0,0,2.856,8.093,10.091,10.091,0,0,0,7.69,3.015,16.4,16.4,0,0,0,8.447-2.246ZM319.183,54h-8.594l-2.49-7.788H295.647L293.182,54h-8.545l12.744-35.01h9.351ZM306.292,40.157l-3.76-11.768a15.334,15.334,0,0,1-.586-3.149h-.2a13.353,13.353,0,0,1-.61,3.052l-3.809,11.865ZM354.547,54h-7.959L332.159,32A31.814,31.814,0,0,1,330.4,29.1h-.1q.2,1.855.2,5.664V54h-7.446V18.99h8.5L345.44,40.3q.952,1.44,1.758,2.856h.1a37.43,37.43,0,0,1-.2-4.81V18.99h7.446Zm36.976-18.848h-2.637V23.482h-.1l-5.347,11.67H382l-5.225-11.67h-.1v11.67h-2.49V18.99h3.1L382.782,31.1h.1l5.566-12.109h3.076Zm-30.737-3.564a5.861,5.861,0,0,0,1.917,1.025,7.192,7.192,0,0,0,2.307.391,5.776,5.776,0,0,0,1.135-.11,2.768,2.768,0,0,0,.952-.366,2,2,0,0,0,.647-.659,1.875,1.875,0,0,0,.244-.989,2.126,2.126,0,0,0-.146-.818,1.83,1.83,0,0,0-.513-.671,5.353,5.353,0,0,0-.952-.635q-.586-.317-1.465-.732-1.05-.488-1.831-.952a6.606,6.606,0,0,1-1.306-.989,3.475,3.475,0,0,1-.781-1.16,4.035,4.035,0,0,1-.256-1.514,4.335,4.335,0,0,1,.513-2.173,4.286,4.286,0,0,1,1.318-1.453,5.712,5.712,0,0,1,1.782-.806,7.4,7.4,0,0,1,1.88-.256q.464,0,1.038.037t1.135.122q.562.085,1.086.22a4.6,4.6,0,0,1,.916.33v2.637a5.287,5.287,0,0,0-.806-.415,8.01,8.01,0,0,0-1-.342,9.585,9.585,0,0,0-1.111-.232,7.7,7.7,0,0,0-1.135-.085,3.807,3.807,0,0,0-2.075.513,1.8,1.8,0,0,0-.806,1.636,1.738,1.738,0,0,0,.183.83,2.081,2.081,0,0,0,.525.623,4.416,4.416,0,0,0,.83.525q.488.244,1.123.537.83.391,1.648.818a7.927,7.927,0,0,1,1.477.989,4.546,4.546,0,0,1,1.062,1.306,3.668,3.668,0,0,1,.4,1.77,4.575,4.575,0,0,1-.415,1.978,4.3,4.3,0,0,1-1.172,1.5,5.3,5.3,0,0,1-1.819.952,7.837,7.837,0,0,1-2.332.33,10.39,10.39,0,0,1-2.319-.256,6.252,6.252,0,0,1-1.88-.72Z" transform="translate(341 1762.729)" fill="#69374b"/>
    <path id="Path_572" data-name="Path 572" d="M11.875,22H9.922L7.578,18.074a8.55,8.55,0,0,0-.625-.933,3.563,3.563,0,0,0-.62-.63,2.148,2.148,0,0,0-.684-.356,2.811,2.811,0,0,0-.825-.112H3.477V22H1.836V8h4.18a5.957,5.957,0,0,1,1.694.229,3.791,3.791,0,0,1,1.348.7,3.245,3.245,0,0,1,.894,1.167,3.87,3.87,0,0,1,.322,1.636,3.939,3.939,0,0,1-.22,1.343,3.507,3.507,0,0,1-.625,1.089,3.789,3.789,0,0,1-.977.815,4.986,4.986,0,0,1-1.284.522v.039a2.954,2.954,0,0,1,.61.356,3.359,3.359,0,0,1,.493.474,6.274,6.274,0,0,1,.464.62q.229.347.513.806ZM3.477,9.48v5.078H5.7a3.377,3.377,0,0,0,1.138-.186,2.634,2.634,0,0,0,.9-.532,2.414,2.414,0,0,0,.6-.85,2.844,2.844,0,0,0,.215-1.128,2.2,2.2,0,0,0-.728-1.753,3.125,3.125,0,0,0-2.1-.63ZM21.035,17.4H13.975a3.74,3.74,0,0,0,.9,2.578,3.1,3.1,0,0,0,2.363.908,4.913,4.913,0,0,0,3.105-1.113v1.5a5.8,5.8,0,0,1-3.486.957,4.227,4.227,0,0,1-3.33-1.362,5.576,5.576,0,0,1-1.211-3.833,5.468,5.468,0,0,1,1.323-3.8,4.243,4.243,0,0,1,3.286-1.47,3.76,3.76,0,0,1,3.037,1.27,5.293,5.293,0,0,1,1.074,3.525Zm-1.641-1.357a3.259,3.259,0,0,0-.669-2.158,2.279,2.279,0,0,0-1.831-.771,2.587,2.587,0,0,0-1.924.811,3.678,3.678,0,0,0-.977,2.119ZM31.992,22h-1.6V20.3h-.039a3.7,3.7,0,0,1-3.437,1.934A3.735,3.735,0,0,1,23.9,20.892a5.509,5.509,0,0,1-1.128-3.657,5.993,5.993,0,0,1,1.25-3.975,4.123,4.123,0,0,1,3.33-1.494,3.206,3.206,0,0,1,3,1.621h.039V7.2h1.6Zm-1.6-4.521V16a2.861,2.861,0,0,0-.8-2.051,2.686,2.686,0,0,0-2.031-.84,2.766,2.766,0,0,0-2.3,1.074,4.707,4.707,0,0,0-.84,2.969,4.234,4.234,0,0,0,.806,2.729,2.633,2.633,0,0,0,2.163,1,2.735,2.735,0,0,0,2.173-.967A3.6,3.6,0,0,0,30.391,17.479ZM43.32,22h-1.6V20.418H41.68a3.289,3.289,0,0,1-3.086,1.816q-3.574,0-3.574-4.258V12h1.592v5.723q0,3.164,2.422,3.164a2.45,2.45,0,0,0,1.929-.864,3.307,3.307,0,0,0,.757-2.261V12h1.6Zm10.049-.459a5.2,5.2,0,0,1-2.734.693,4.527,4.527,0,0,1-3.452-1.392,5.043,5.043,0,0,1-1.313-3.608,5.544,5.544,0,0,1,1.416-3.97,4.954,4.954,0,0,1,3.779-1.5,5.261,5.261,0,0,1,2.324.488v1.641a4.072,4.072,0,0,0-2.383-.781,3.22,3.22,0,0,0-2.515,1.1A4.169,4.169,0,0,0,47.51,17.1a3.969,3.969,0,0,0,.923,2.773,3.181,3.181,0,0,0,2.476,1.016,4.014,4.014,0,0,0,2.461-.869ZM63.828,17.4H56.768a3.74,3.74,0,0,0,.9,2.578,3.1,3.1,0,0,0,2.363.908,4.913,4.913,0,0,0,3.105-1.113v1.5a5.8,5.8,0,0,1-3.486.957,4.227,4.227,0,0,1-3.33-1.362,5.576,5.576,0,0,1-1.211-3.833,5.468,5.468,0,0,1,1.323-3.8,4.243,4.243,0,0,1,3.286-1.47,3.76,3.76,0,0,1,3.037,1.27,5.293,5.293,0,0,1,1.074,3.525Zm-1.641-1.357a3.259,3.259,0,0,0-.669-2.158,2.279,2.279,0,0,0-1.831-.771,2.587,2.587,0,0,0-1.924.811,3.678,3.678,0,0,0-.977,2.119ZM80.029,22h-1.6V16.3q0-3.184-2.324-3.184a2.521,2.521,0,0,0-1.987.9,3.348,3.348,0,0,0-.786,2.28V22h-1.6V12h1.6v1.66h.039a3.609,3.609,0,0,1,3.281-1.895,3.059,3.059,0,0,1,2.51,1.06,4.72,4.72,0,0,1,.869,3.062Zm7.2.234a4.638,4.638,0,0,1-3.54-1.4,5.191,5.191,0,0,1-1.323-3.716,5.407,5.407,0,0,1,1.377-3.936,4.95,4.95,0,0,1,3.721-1.416,4.485,4.485,0,0,1,3.491,1.377,5.46,5.46,0,0,1,1.255,3.818,5.372,5.372,0,0,1-1.353,3.833A4.739,4.739,0,0,1,87.227,22.234Zm.117-9.121a3.046,3.046,0,0,0-2.441,1.05,4.312,4.312,0,0,0-.9,2.9,4.078,4.078,0,0,0,.908,2.8,3.087,3.087,0,0,0,2.432,1.025,2.928,2.928,0,0,0,2.388-1.006,4.365,4.365,0,0,0,.835-2.861,4.44,4.44,0,0,0-.835-2.891A2.915,2.915,0,0,0,87.344,13.113ZM103.066,22h-1.6V16.3q0-3.184-2.324-3.184a2.521,2.521,0,0,0-1.987.9,3.348,3.348,0,0,0-.786,2.28V22h-1.6V12h1.6v1.66h.039a3.609,3.609,0,0,1,3.281-1.895,3.059,3.059,0,0,1,2.51,1.06,4.72,4.72,0,0,1,.869,3.062Zm4.658-1.445h-.039V26.6h-1.6V12h1.6v1.758h.039a3.787,3.787,0,0,1,3.457-1.992,3.662,3.662,0,0,1,3.018,1.343,5.562,5.562,0,0,1,1.084,3.6,6.2,6.2,0,0,1-1.221,4.019,4.064,4.064,0,0,1-3.34,1.509A3.346,3.346,0,0,1,107.725,20.555Zm-.039-4.033v1.4a2.973,2.973,0,0,0,.806,2.1,2.874,2.874,0,0,0,4.326-.249,5.107,5.107,0,0,0,.825-3.1,4.032,4.032,0,0,0-.771-2.617,2.553,2.553,0,0,0-2.09-.947,2.838,2.838,0,0,0-2.246.972A3.568,3.568,0,0,0,107.686,16.521Zm15.371-2.9a1.958,1.958,0,0,0-1.211-.322,2.044,2.044,0,0,0-1.714.967,4.47,4.47,0,0,0-.688,2.637V22h-1.6V12h1.6v2.061h.039a3.492,3.492,0,0,1,1.045-1.646,2.383,2.383,0,0,1,1.572-.591,2.615,2.615,0,0,1,.957.137Zm5.918,8.613a4.638,4.638,0,0,1-3.54-1.4,5.191,5.191,0,0,1-1.323-3.716,5.407,5.407,0,0,1,1.377-3.936,4.95,4.95,0,0,1,3.721-1.416,4.485,4.485,0,0,1,3.491,1.377,5.46,5.46,0,0,1,1.255,3.818,5.372,5.372,0,0,1-1.353,3.833A4.739,4.739,0,0,1,128.975,22.234Zm.117-9.121a3.046,3.046,0,0,0-2.441,1.05,4.312,4.312,0,0,0-.9,2.9,4.078,4.078,0,0,0,.908,2.8,3.087,3.087,0,0,0,2.432,1.025,2.928,2.928,0,0,0,2.388-1.006,4.365,4.365,0,0,0,.835-2.861,4.44,4.44,0,0,0-.835-2.891A2.915,2.915,0,0,0,129.092,13.113ZM145.049,22h-1.6V20.3h-.039a3.7,3.7,0,0,1-3.437,1.934,3.735,3.735,0,0,1-3.013-1.343,5.509,5.509,0,0,1-1.128-3.657,5.993,5.993,0,0,1,1.25-3.975,4.123,4.123,0,0,1,3.33-1.494,3.206,3.206,0,0,1,3,1.621h.039V7.2h1.6Zm-1.6-4.521V16a2.861,2.861,0,0,0-.8-2.051,2.686,2.686,0,0,0-2.031-.84,2.766,2.766,0,0,0-2.3,1.074,4.707,4.707,0,0,0-.84,2.969,4.234,4.234,0,0,0,.806,2.729,2.633,2.633,0,0,0,2.163,1,2.735,2.735,0,0,0,2.173-.967A3.6,3.6,0,0,0,143.447,17.479ZM156.377,22h-1.6V20.418h-.039a3.289,3.289,0,0,1-3.086,1.816q-3.574,0-3.574-4.258V12h1.592v5.723q0,3.164,2.422,3.164a2.45,2.45,0,0,0,1.929-.864,3.307,3.307,0,0,0,.757-2.261V12h1.6Zm10.049-.459a5.2,5.2,0,0,1-2.734.693,4.527,4.527,0,0,1-3.452-1.392,5.043,5.043,0,0,1-1.313-3.608,5.544,5.544,0,0,1,1.416-3.97,4.954,4.954,0,0,1,3.779-1.5,5.261,5.261,0,0,1,2.324.488v1.641a4.072,4.072,0,0,0-2.383-.781,3.22,3.22,0,0,0-2.515,1.1,4.169,4.169,0,0,0-.981,2.886,3.969,3.969,0,0,0,.923,2.773,3.181,3.181,0,0,0,2.476,1.016,4.014,4.014,0,0,0,2.461-.869Zm7.061.361a3.088,3.088,0,0,1-1.494.313q-2.627,0-2.627-2.93V13.367h-1.719V12h1.719V9.559l1.6-.518V12h2.52v1.367h-2.52V19a2.336,2.336,0,0,0,.342,1.436,1.364,1.364,0,0,0,1.133.43,1.684,1.684,0,0,0,1.045-.332Zm2.959-12.441a1.015,1.015,0,0,1-.732-.293.989.989,0,0,1-.3-.742,1.026,1.026,0,0,1,1.035-1.045,1.034,1.034,0,0,1,.747.3,1.043,1.043,0,0,1,0,1.479A1.025,1.025,0,0,1,176.445,9.461ZM177.227,22h-1.6V12h1.6Zm11.1-10-3.984,10h-1.572l-3.789-10h1.758l2.539,7.266a6.522,6.522,0,0,1,.352,1.4h.039a6.6,6.6,0,0,1,.313-1.357l2.656-7.3Zm9.756,5.4h-7.061a3.74,3.74,0,0,0,.9,2.578,3.1,3.1,0,0,0,2.363.908,4.913,4.913,0,0,0,3.105-1.113v1.5a5.8,5.8,0,0,1-3.486.957,4.227,4.227,0,0,1-3.33-1.362,5.576,5.576,0,0,1-1.211-3.833,5.468,5.468,0,0,1,1.323-3.8,4.243,4.243,0,0,1,3.286-1.47,3.76,3.76,0,0,1,3.037,1.27,5.293,5.293,0,0,1,1.074,3.525Zm-1.641-1.357a3.259,3.259,0,0,0-.669-2.158,2.279,2.279,0,0,0-1.831-.771,2.587,2.587,0,0,0-1.924.811,3.678,3.678,0,0,0-.977,2.119ZM210.928,8.6a2.133,2.133,0,0,0-1.064-.264q-1.68,0-1.68,2.119V12h2.344v1.367h-2.344V22h-1.592V13.367h-1.709V12h1.709V10.379a3.369,3.369,0,0,1,.908-2.485,3.066,3.066,0,0,1,2.266-.913,3.138,3.138,0,0,1,1.162.176Zm2.92,13.4h-1.6V7.2h1.6Zm11.328,0h-1.6V20.418h-.039a3.289,3.289,0,0,1-3.086,1.816q-3.574,0-3.574-4.258V12h1.592v5.723q0,3.164,2.422,3.164a2.45,2.45,0,0,0,1.929-.864,3.307,3.307,0,0,0,.757-2.261V12h1.6Zm4.053-12.539a1.015,1.015,0,0,1-.732-.293.989.989,0,0,1-.3-.742,1.026,1.026,0,0,1,1.035-1.045,1.034,1.034,0,0,1,.747.3,1.043,1.043,0,0,1,0,1.479A1.025,1.025,0,0,1,229.229,9.461ZM230.01,22h-1.6V12h1.6Zm11.777,0h-1.6V20.3h-.039a3.7,3.7,0,0,1-3.437,1.934,3.735,3.735,0,0,1-3.013-1.343,5.509,5.509,0,0,1-1.128-3.657,5.993,5.993,0,0,1,1.25-3.975,4.123,4.123,0,0,1,3.33-1.494,3.206,3.206,0,0,1,3,1.621h.039V7.2h1.6Zm-1.6-4.521V16a2.861,2.861,0,0,0-.8-2.051,2.686,2.686,0,0,0-2.031-.84,2.766,2.766,0,0,0-2.3,1.074,4.707,4.707,0,0,0-.84,2.969,4.234,4.234,0,0,0,.806,2.729,2.633,2.633,0,0,0,2.163,1,2.735,2.735,0,0,0,2.173-.967A3.6,3.6,0,0,0,240.186,17.479ZM252.109,22h-1.6V7.2h1.6Zm7.422.234a4.638,4.638,0,0,1-3.54-1.4,5.191,5.191,0,0,1-1.323-3.716,5.407,5.407,0,0,1,1.377-3.936,4.95,4.95,0,0,1,3.721-1.416,4.485,4.485,0,0,1,3.491,1.377,5.46,5.46,0,0,1,1.255,3.818,5.372,5.372,0,0,1-1.353,3.833A4.739,4.739,0,0,1,259.531,22.234Zm.117-9.121a3.046,3.046,0,0,0-2.441,1.05,4.312,4.312,0,0,0-.9,2.9,4.078,4.078,0,0,0,.908,2.8,3.087,3.087,0,0,0,2.432,1.025,2.928,2.928,0,0,0,2.388-1.006,4.365,4.365,0,0,0,.835-2.861,4.44,4.44,0,0,0-.835-2.891A2.915,2.915,0,0,0,259.648,13.113Zm6.816,8.525V19.92a4.74,4.74,0,0,0,2.881.967q2.109,0,2.109-1.406a1.22,1.22,0,0,0-.181-.679,1.8,1.8,0,0,0-.488-.493,3.758,3.758,0,0,0-.723-.386q-.415-.171-.894-.356A11.508,11.508,0,0,1,268,17.034a3.525,3.525,0,0,1-.84-.605,2.253,2.253,0,0,1-.508-.767,2.712,2.712,0,0,1-.171-1.006,2.389,2.389,0,0,1,.322-1.245,2.858,2.858,0,0,1,.859-.908,4.007,4.007,0,0,1,1.226-.552,5.436,5.436,0,0,1,1.421-.186,5.737,5.737,0,0,1,2.324.449v1.621a4.53,4.53,0,0,0-2.539-.723,2.968,2.968,0,0,0-.811.1,1.984,1.984,0,0,0-.62.288,1.331,1.331,0,0,0-.4.444,1.171,1.171,0,0,0-.142.571,1.37,1.37,0,0,0,.142.654,1.44,1.44,0,0,0,.415.469,3.172,3.172,0,0,0,.664.371q.391.166.889.361a12.367,12.367,0,0,1,1.191.522,4.086,4.086,0,0,1,.9.605,2.366,2.366,0,0,1,.571.776,2.5,2.5,0,0,1,.2,1.045,2.464,2.464,0,0,1-.327,1.289,2.8,2.8,0,0,1-.874.908,4,4,0,0,1-1.26.537,6.22,6.22,0,0,1-1.494.176A5.674,5.674,0,0,1,266.465,21.639Zm8.486,0V19.92a4.74,4.74,0,0,0,2.881.967q2.109,0,2.109-1.406a1.22,1.22,0,0,0-.181-.679,1.8,1.8,0,0,0-.488-.493,3.758,3.758,0,0,0-.723-.386q-.415-.171-.894-.356a11.508,11.508,0,0,1-1.167-.532,3.525,3.525,0,0,1-.84-.605,2.253,2.253,0,0,1-.508-.767,2.712,2.712,0,0,1-.171-1.006,2.389,2.389,0,0,1,.322-1.245,2.858,2.858,0,0,1,.859-.908,4.007,4.007,0,0,1,1.226-.552,5.436,5.436,0,0,1,1.421-.186,5.737,5.737,0,0,1,2.324.449v1.621a4.53,4.53,0,0,0-2.539-.723,2.968,2.968,0,0,0-.811.1,1.984,1.984,0,0,0-.62.288,1.331,1.331,0,0,0-.4.444,1.171,1.171,0,0,0-.142.571,1.37,1.37,0,0,0,.142.654,1.44,1.44,0,0,0,.415.469,3.172,3.172,0,0,0,.664.371q.391.166.889.361a12.367,12.367,0,0,1,1.191.522,4.086,4.086,0,0,1,.9.605,2.366,2.366,0,0,1,.571.776,2.5,2.5,0,0,1,.2,1.045,2.464,2.464,0,0,1-.327,1.289,2.8,2.8,0,0,1-.874.908,4,4,0,0,1-1.26.537,6.22,6.22,0,0,1-1.494.176A5.674,5.674,0,0,1,274.951,21.639Z" transform="translate(341 1826.351)" fill="#69374b"/>
    <g id="DepletionSCAN" transform="translate(277 1807.073)">
      <g id="DepletionSCAN-2" data-name="DepletionSCAN" transform="translate(-45 -37.344)">
        <path id="Path_523" data-name="Path 523" d="M54.39,77.264V62.4H61.41L49.983,44.7,38.556,62.4h7.021V77.264H21.9V86H79.112V77.264Z" transform="translate(-5.543 -11.314)" fill="#69374b"/>
        <path id="Path_524" data-name="Path 524" d="M59.8,60.9Z" transform="translate(-15.136 -15.415)" fill="#69374b"/>
        <path id="Path_525" data-name="Path 525" d="M81.261,0V9.934a9.261,9.261,0,0,1-18.448-1.2H54.3a9.261,9.261,0,0,1-18.523,0H27.187a9.261,9.261,0,0,1-18.448,1.2V0H0V74.689H8.739V23.975a17.776,17.776,0,0,0,22.705-3.734,17.776,17.776,0,0,0,27.112,0,17.776,17.776,0,0,0,22.705,3.734V74.689H90V0Z" fill="#69374b"/>
      </g>
    </g>
  </g>
</svg>
