<svg xmlns="http://www.w3.org/2000/svg" width="120.5" height="100" viewBox="0 0 120.5 100">
  <g id="DiverterSCAN" transform="translate(-1509 -867)">
    <path id="DiverterSCAN-2" data-name="DiverterSCAN" d="M108.8,0V19.7a12.4,12.4,0,1,1-24.8,0H72.5a12.4,12.4,0,0,1-24.8,0H36.3A12.4,12.4,0,0,1,11.7,22V0H0V100H11.7V81.7a23.8,23.8,0,0,0,30.3-5,23.8,23.8,0,0,0,36.3,0,23.8,23.8,0,0,0,30.5,4.9V100h11.7V0ZM96.4,73.6A12.4,12.4,0,0,1,84,61.2H72.5a12.4,12.4,0,1,1-24.8,0H36.3a12.4,12.4,0,0,1-24.6,2.3V40.2a23.8,23.8,0,0,0,30.3-5,23.8,23.8,0,0,0,36.3,0,23.8,23.8,0,0,0,30.5,4.9V61.2A12.4,12.4,0,0,1,96.4,73.6Z" transform="translate(1509 867)" fill="#dca0c3"/>
  </g>
</svg>
