<svg xmlns="http://www.w3.org/2000/svg" width="107.229" height="75.817" viewBox="0 0 107.229 75.817"><g transform="translate(0 0)"><path d="M74.719,75.395a42.021,42.021,0,0,1-6.86-.722A37.7,37.7,0,0,0,81.038,49.941h3.43l1.264,9.206,1.444-9.206h3.791L92.41,66.008l1.625-16.066h3.971l1.083,6.86,1.264-6.86h3.61A29.433,29.433,0,0,1,74.719,75.395M59.014,70.882A30.12,30.12,0,0,1,45.295,49.761a9.849,9.849,0,0,0,5.957-4.152,9.537,9.537,0,0,0,7.582,4.332,9.09,9.09,0,0,0,7.582-4.332,9.236,9.236,0,0,0,6.318,4.152A29.756,29.756,0,0,1,59.014,70.882M43.129,75.395A29.773,29.773,0,0,1,13.7,49.941H18.4l1.264,6.86,1.083-6.86h3.971L26.34,66.008l1.444-16.066h3.791l1.444,9.206,1.264-9.206H36.63A37.7,37.7,0,0,0,49.808,74.673a25.256,25.256,0,0,1-6.679.722m0-59.391a42.021,42.021,0,0,1,6.86.722A37.834,37.834,0,0,0,36.63,43.984H34.825L33.38,32.07,31.756,43.984h-3.43L26.7,25.21,24.9,43.984h-3.61l-1.264-8.3-1.625,8.3H13.523A29.808,29.808,0,0,1,43.129,16m15.886,4.513a30.178,30.178,0,0,1,14.08,23.648,6.185,6.185,0,0,1-4.332-6.138H64.069c0,3.43-2.347,6.318-5.235,6.318S53.6,41.457,53.6,38.027H48.905c0,2.888-1.625,5.416-3.791,6.138a28.586,28.586,0,0,1,13.9-23.648M74.719,16a29.585,29.585,0,0,1,29.605,28.161h-3.61l-1.625-8.3-1.264,8.3h-3.61L92.41,25.391,90.786,44.165h-3.43L85.731,32.251,84.106,43.984H81.218A37.837,37.837,0,0,0,67.86,16.726,28.547,28.547,0,0,1,74.719,16m0-8.3a37.726,37.726,0,0,0-15.705,3.43A38.361,38.361,0,0,0,43.309,7.7,37.909,37.909,0,1,0,59.014,80.088a38.361,38.361,0,0,0,15.705,3.43,37.909,37.909,0,1,0,0-75.818" transform="translate(-5.4 -7.7)" fill="#593242"/></g></svg>