<svg xmlns="http://www.w3.org/2000/svg" width="483" height="75.817" viewBox="0 0 483 75.817"><g transform="translate(-5.4 -7.7)"><g transform="translate(131.041 65.827)"><path d="M82.582,51.773h0l-5.777-8.484V56.105H75V40.4h1.805l5.777,8.665L88.358,40.4h1.805V56.105H88.358V43.288Z" transform="translate(-75 -39.497)" fill="#593242"/><path d="M86.1,42.086V40.1h1.986v1.986Zm0,14.261V44.613h1.805V56.347Z" transform="translate(-66.062 -39.739)" fill="#593242"/><path d="M91.405,54.495H89.6V42.761h1.805v1.986A4.4,4.4,0,0,1,95.377,42.4c2.888,0,4.513,1.805,4.513,4.693v7.221H98.084v-6.86c0-2.166-1.083-3.43-3.249-3.43a3.368,3.368,0,0,0-3.43,3.61v6.86Z" transform="translate(-63.244 -37.887)" fill="#593242"/><path d="M97.7,42.086V40.1h1.986v1.986Zm.181,14.261V44.613h1.805V56.347Z" transform="translate(-56.722 -39.739)" fill="#593242"/><path d="M114.739,42.5c2.708,0,4.332,1.805,4.332,4.693v7.221h-1.805v-6.86c0-2.166-1.083-3.43-3.069-3.43-1.805,0-3.249,1.264-3.249,3.61v6.679h-1.625v-6.86c0-2.166-1.083-3.43-3.069-3.43a3.334,3.334,0,0,0-3.249,3.61v6.679H101.2V42.681h1.805v1.986a4.315,4.315,0,0,1,7.582.181A4.939,4.939,0,0,1,114.739,42.5Z" transform="translate(-53.904 -37.807)" fill="#593242"/><path d="M113.5,42.086V40.1h1.986v1.986Zm.181,14.261V44.613h1.805V56.347Z" transform="translate(-44 -39.739)" fill="#593242"/><path d="M117.061,44.044V42.6h9.748v1.083l-7.762,9.026h7.762v1.444H116.7V53.07l7.762-9.026Z" transform="translate(-41.424 -37.726)" fill="#593242"/><path d="M129.757,53.231a4.865,4.865,0,0,0,3.61-1.625l1.083.9a5.957,5.957,0,0,1-4.874,2.166,5.8,5.8,0,0,1-5.777-6.138c0-3.43,2.347-6.138,5.6-6.138,3.43,0,5.416,2.708,5.416,6.138v.542h-9.206A4.075,4.075,0,0,0,129.757,53.231ZM133.006,48c-.181-2.166-1.444-3.971-3.791-3.971A3.973,3.973,0,0,0,125.425,48Z" transform="translate(-35.707 -37.887)" fill="#593242"/><path d="M138.83,52.453a1.731,1.731,0,0,0,1.986,1.986,5.27,5.27,0,0,0,1.625-.361v1.444a3.85,3.85,0,0,1-2.166.542,2.942,2.942,0,0,1-3.249-3.249v-7.04H135.4V44.33h1.625V40.9h1.805v3.43h3.61v1.444h-3.61Z" transform="translate(-26.366 -39.095)" fill="#593242"/><path d="M143.105,56.427H141.3V40h1.805v6.86a4.4,4.4,0,0,1,3.971-2.347c2.888,0,4.513,1.805,4.513,4.693v7.221h-1.805v-6.86c0-2.166-1.083-3.43-3.249-3.43a3.368,3.368,0,0,0-3.43,3.61Z" transform="translate(-21.616 -39.819)" fill="#593242"/><path d="M154.957,53.231a4.865,4.865,0,0,0,3.61-1.625l1.083.9a6.222,6.222,0,0,1-4.874,2.166A5.8,5.8,0,0,1,149,48.538c0-3.43,2.347-6.138,5.6-6.138,3.43,0,5.416,2.708,5.416,6.138v.542h-9.207A4.075,4.075,0,0,0,154.957,53.231ZM158.206,48c-.181-2.166-1.444-3.971-3.791-3.971A3.973,3.973,0,0,0,150.625,48Z" transform="translate(-15.416 -37.887)" fill="#593242"/><path d="M166.757,53.231a4.865,4.865,0,0,0,3.61-1.625l1.083.9a5.957,5.957,0,0,1-4.874,2.166,5.8,5.8,0,0,1-5.777-6.138c0-3.43,2.347-6.138,5.6-6.138,3.43,0,5.416,2.708,5.416,6.138v.542h-9.206A4.075,4.075,0,0,0,166.757,53.231ZM170.006,48c-.181-2.166-1.444-3.971-3.791-3.971A3.973,3.973,0,0,0,162.425,48Z" transform="translate(-5.915 -37.887)" fill="#593242"/><path d="M175.44,44.955V46.4h-3.61V56.508h-1.805V46.4H168.4V44.955h1.625V43.871c0-2.527,1.264-3.971,3.43-3.971a3.571,3.571,0,0,1,1.986.361v1.444a6.7,6.7,0,0,0-1.625-.361c-1.444,0-1.986.9-1.986,2.527v.9h3.61Z" transform="translate(0.205 -39.9)" fill="#593242"/><path d="M180.34,44.955V46.4h-3.61V56.508h-1.805V46.4H173.3V44.955h1.625V43.871c0-2.527,1.264-3.971,3.43-3.971a3.571,3.571,0,0,1,1.986.361v1.444a6.7,6.7,0,0,0-1.625-.361c-1.444,0-1.986.9-1.986,2.527v.9h3.61Z" transform="translate(4.15 -39.9)" fill="#593242"/><path d="M184.157,53.231a4.865,4.865,0,0,0,3.61-1.625l1.083.9a6.222,6.222,0,0,1-4.874,2.166,5.8,5.8,0,0,1-5.777-6.138c0-3.43,2.347-6.138,5.6-6.138,3.43,0,5.416,2.708,5.416,6.138v.542h-9.206A4.075,4.075,0,0,0,184.157,53.231ZM187.587,48c-.181-2.166-1.444-3.971-3.791-3.971A3.973,3.973,0,0,0,180.005,48Z" transform="translate(8.096 -37.887)" fill="#593242"/><path d="M191.957,54.675A5.937,5.937,0,0,1,186,48.538a6.048,6.048,0,0,1,5.957-6.138,5.841,5.841,0,0,1,4.694,2.166l-1.083,1.264a5.008,5.008,0,0,0-3.61-1.805,4.523,4.523,0,0,0,.18,9.026,4.712,4.712,0,0,0,3.61-1.805l1.083,1.083A6.076,6.076,0,0,1,191.957,54.675Z" transform="translate(14.376 -37.887)" fill="#593242"/><path d="M196.63,52.453a1.731,1.731,0,0,0,1.986,1.986,5.27,5.27,0,0,0,1.625-.361v1.444a3.85,3.85,0,0,1-2.166.542,2.942,2.942,0,0,1-3.249-3.249v-7.04H193.2V44.33h1.625V40.9h1.805v3.43h3.791v1.444H196.63Z" transform="translate(20.174 -39.095)" fill="#593242"/><path d="M208.857,54.675a6.139,6.139,0,0,1,.18-12.275,6.087,6.087,0,0,1,6.138,6.138A6.242,6.242,0,0,1,208.857,54.675Zm0-10.651a4.517,4.517,0,1,0,4.332,4.513A4.43,4.43,0,0,0,208.857,44.025Z" transform="translate(27.984 -37.887)" fill="#593242"/><path d="M218.14,44.955V46.4h-3.61V56.508h-1.805V46.4H211.1V44.955h1.625V43.871c0-2.527,1.264-3.971,3.43-3.971a3.277,3.277,0,0,1,1.986.361v1.444a5.271,5.271,0,0,0-1.625-.361c-1.444,0-1.986.9-1.986,2.527v.9h3.61Z" transform="translate(34.587 -39.9)" fill="#593242"/><path d="M227.14,44.955V46.4h-3.61V56.508h-1.805V46.4H220.1V44.955h1.625V43.871c0-2.527,1.264-3.971,3.43-3.971a3.277,3.277,0,0,1,1.986.361v1.444a5.271,5.271,0,0,0-1.625-.361c-1.444,0-1.986.9-1.986,2.527v.9h3.61Z" transform="translate(41.833 -39.9)" fill="#593242"/><path d="M227.305,54.414H225.5V42.681h1.805v3.069A5.059,5.059,0,0,1,232,42.5v1.805h-.181c-2.527,0-4.694,1.805-4.694,5.416v4.693Z" transform="translate(46.181 -37.807)" fill="#593242"/><path d="M231.725,44.947l-.542-1.444a10.028,10.028,0,0,1,4.152-.9c3.249,0,4.874,1.625,4.874,4.693v7.04h-1.625V52.529a4.874,4.874,0,0,1-4.152,1.986c-2.166,0-4.332-1.264-4.332-3.61,0-2.527,1.986-3.791,5.055-3.791a10.856,10.856,0,0,1,3.61.542v-.361c0-2.166-1.264-3.249-3.43-3.249A7.632,7.632,0,0,0,231.725,44.947Zm.181,5.957c0,1.444,1.264,2.347,2.888,2.347,2.166,0,3.971-1.264,3.971-3.069V49.1a15.163,15.163,0,0,0-3.43-.542C233.169,48.377,231.905,49.279,231.905,50.9Z" transform="translate(49.885 -37.726)" fill="#593242"/><path d="M243.757,54.675a5.937,5.937,0,0,1-5.957-6.138,6.048,6.048,0,0,1,5.957-6.138,5.841,5.841,0,0,1,4.694,2.166l-1.083,1.264a5.008,5.008,0,0,0-3.61-1.805,4.523,4.523,0,0,0,.181,9.026,4.712,4.712,0,0,0,3.61-1.805l1.083,1.083A6.076,6.076,0,0,1,243.757,54.675Z" transform="translate(56.085 -37.887)" fill="#593242"/><path d="M251.505,56.427H249.7V40h1.805v6.86a4.4,4.4,0,0,1,3.971-2.347c2.888,0,4.513,1.805,4.513,4.693v7.221h-1.805v-6.86c0-2.166-1.083-3.43-3.249-3.43a3.368,3.368,0,0,0-3.43,3.61Z" transform="translate(68.667 -39.819)" fill="#593242"/><path d="M257.8,42.086V40.1h1.986v1.986Zm.181,14.261V44.613h1.805V56.347Z" transform="translate(75.189 -39.739)" fill="#593242"/><path d="M264.23,52.453a1.731,1.731,0,0,0,1.986,1.986,5.271,5.271,0,0,0,1.625-.361v1.444a3.85,3.85,0,0,1-2.166.542,2.942,2.942,0,0,1-3.249-3.249v-7.04H260.8V44.33h1.625V40.9h1.805v3.43h3.61v1.444h-3.61Z" transform="translate(77.605 -39.095)" fill="#593242"/><path d="M271.074,54.514a8.106,8.106,0,0,1-4.874-1.805l.9-1.264a7.156,7.156,0,0,0,3.971,1.444c1.444,0,2.347-.722,2.347-1.805h0c0-1.083-1.444-1.625-2.888-1.986-1.805-.542-3.791-1.083-3.791-3.249h0c0-1.986,1.625-3.249,3.971-3.249a8.033,8.033,0,0,1,4.152,1.264l-.722,1.264a6.38,6.38,0,0,0-3.43-1.083c-1.444,0-2.166.722-2.166,1.625h0c0,1.083,1.444,1.444,3.069,1.986,1.805.542,3.791,1.264,3.791,3.249h0C275.226,53.251,273.421,54.514,271.074,54.514Z" transform="translate(81.953 -37.726)" fill="#593242"/><path d="M257.8,42.086h0Zm.19,7.5V43.415h1.9v6.171Z" transform="translate(357.445 -248.413) rotate(90)" fill="#593242"/></g><path d="M74.7,8.5V47.673h7.4V29.982H93.835v-7.04H82.1V15.721H93.835V8.5Z" transform="translate(55.8 0.644)" fill="#593242"/><g transform="translate(155.772 18.351)"><path d="M88.7,14.522h6.138v3.61a8.176,8.176,0,0,1,2.708-3.249,6.509,6.509,0,0,1,3.61-1.083,6.19,6.19,0,0,1,2.888.722l-2.166,6.138a6.749,6.749,0,0,0-1.986-.722,3.253,3.253,0,0,0-2.708,1.986Q96.1,24.09,96.1,30.047V43.225h-7.04v-28.7Z" transform="translate(-88.7 -13.439)" fill="#593242"/><path d="M121.3,14.6h7.221V43.486H121.3V40.417a14.444,14.444,0,0,1-4.152,2.888,12.569,12.569,0,0,1-4.513.9,12.8,12.8,0,0,1-9.568-4.332A15.155,15.155,0,0,1,99.1,29.044c0-4.513,1.264-8.123,3.971-11.012a12.155,12.155,0,0,1,9.387-4.332,15.477,15.477,0,0,1,4.874.9,15.664,15.664,0,0,1,4.152,2.888V14.6Zm-7.582,5.957a6.865,6.865,0,0,0-5.416,2.347,8.793,8.793,0,0,0-2.166,6.138,8.793,8.793,0,0,0,2.166,6.138,6.865,6.865,0,0,0,5.416,2.347,7.239,7.239,0,0,0,5.6-2.347,8.793,8.793,0,0,0,2.166-6.138,8.793,8.793,0,0,0-2.166-6.138,6.987,6.987,0,0,0-5.6-2.347" transform="translate(-80.326 -13.519)" fill="#593242"/><path d="M147.825,20.46l-5.957,3.249a9.954,9.954,0,0,0-3.249-2.527,8.373,8.373,0,0,0-3.791-.722,8.729,8.729,0,0,0-6.5,2.347,8.3,8.3,0,0,0-2.527,6.138,7.5,7.5,0,0,0,2.347,5.957,8.307,8.307,0,0,0,6.318,2.347,8.962,8.962,0,0,0,7.4-3.249l5.6,3.971q-4.6,5.957-13,5.957c-5.055,0-8.845-1.444-11.734-4.513a14.761,14.761,0,0,1-4.332-10.47,16.535,16.535,0,0,1,1.986-7.762,15.64,15.64,0,0,1,5.777-5.6,18.181,18.181,0,0,1,8.3-1.986,16.75,16.75,0,0,1,7.582,1.625,16.27,16.27,0,0,1,5.777,5.235" transform="translate(-64.786 -13.6)" fill="#593242"/></g><path d="M138.7,8.5V47.673h21.121v-7.4H146.1V29.982h13.719v-7.04H146.1V15.9h13.719V8.5Z" transform="translate(107.332 0.644)" fill="#593242"/><path d="M175.4,8.5l-7.221,14.08L161.143,8.5H153.2l11.373,22.2V47.673h7.4V30.7L183.166,8.5Z" transform="translate(119.007 0.644)" fill="#593242"/><path d="M172.5,8.5V47.673h21.121v-7.4H179.9V29.982h13.719v-7.04H179.9V15.9h13.719V8.5Z" transform="translate(134.548 0.644)" fill="#593242"/><g transform="translate(338.638 8.242)"><path d="M195.416,14.138c2.888.542,4.152,1.625,4.152,3.61,0,2.166-1.805,3.61-4.332,3.61A7.865,7.865,0,0,1,190,19.373l.9-1.083a5.867,5.867,0,0,0,4.332,1.805c1.805,0,2.888-.9,2.888-2.166s-.722-1.805-3.249-2.527c-2.888-.722-4.332-1.625-4.332-3.791A3.881,3.881,0,0,1,194.694,8a6.6,6.6,0,0,1,4.513,1.625l-.9,1.083a6.209,6.209,0,0,0-3.791-1.444c-1.625,0-2.708.9-2.708,2.166,0,1.444.722,2.166,3.61,2.708" transform="translate(-190 -8)" fill="#593242"/></g><path d="M208.331,8.3l-4.694,6.86L198.944,8.3H197.5V21.117h1.444V10.647l4.693,6.86h0l4.694-6.86v10.47h1.444V8.3Z" transform="translate(154.677 0.483)" fill="#593242"/><g transform="translate(5.4 7.7)"><path d="M74.719,75.395a42.021,42.021,0,0,1-6.86-.722A37.7,37.7,0,0,0,81.038,49.941h3.43l1.264,9.206,1.444-9.206h3.791L92.41,66.008l1.625-16.066h3.971l1.083,6.86,1.264-6.86h3.61A29.433,29.433,0,0,1,74.719,75.395M59.014,70.882A30.12,30.12,0,0,1,45.295,49.761a9.849,9.849,0,0,0,5.957-4.152,9.537,9.537,0,0,0,7.582,4.332,9.09,9.09,0,0,0,7.582-4.332,9.236,9.236,0,0,0,6.318,4.152A29.756,29.756,0,0,1,59.014,70.882M43.129,75.395A29.773,29.773,0,0,1,13.7,49.941H18.4l1.264,6.86,1.083-6.86h3.971L26.34,66.008l1.444-16.066h3.791l1.444,9.206,1.264-9.206H36.63A37.7,37.7,0,0,0,49.808,74.673a25.256,25.256,0,0,1-6.679.722m0-59.391a42.021,42.021,0,0,1,6.86.722A37.834,37.834,0,0,0,36.63,43.984H34.825L33.38,32.07,31.756,43.984h-3.43L26.7,25.21,24.9,43.984h-3.61l-1.264-8.3-1.625,8.3H13.523A29.808,29.808,0,0,1,43.129,16m15.886,4.513a30.178,30.178,0,0,1,14.08,23.648,6.185,6.185,0,0,1-4.332-6.138H64.069c0,3.43-2.347,6.318-5.235,6.318S53.6,41.457,53.6,38.027H48.905c0,2.888-1.625,5.416-3.791,6.138a28.586,28.586,0,0,1,13.9-23.648M74.719,16a29.585,29.585,0,0,1,29.605,28.161h-3.61l-1.625-8.3-1.264,8.3h-3.61L92.41,25.391,90.786,44.165h-3.43L85.731,32.251,84.106,43.984H81.218A37.837,37.837,0,0,0,67.86,16.726,28.547,28.547,0,0,1,74.719,16m0-8.3a37.726,37.726,0,0,0-15.705,3.43A38.361,38.361,0,0,0,43.309,7.7,37.909,37.909,0,1,0,59.014,80.088a38.361,38.361,0,0,0,15.705,3.43,37.909,37.909,0,1,0,0-75.818" transform="translate(-5.4 -7.7)" fill="#593242"/></g></g></svg>