<svg xmlns="http://www.w3.org/2000/svg" xmlns:xlink="http://www.w3.org/1999/xlink" width="416" height="80" viewBox="0 0 416 80"><defs><path id="96ria" d="M750 1842.837v-8.842h90v8.842z"/><path id="96rib" d="M785.76 1786.891l-11.42-17.654-11.343 17.654h6.986v37.338h8.79v-37.338z"/><path id="96ric" d="M823.998 1815.289c-2.003 2.404-4.833 3.906-8.489 4.507v6.16h-6.01v-5.934c-5.209-.451-9.466-2.304-12.771-5.56l4.432-6.836a14.574 14.574 0 0 0 4.733 3.456 13.898 13.898 0 0 0 5.935 1.277 6.386 6.386 0 0 0 4.507-1.503 4.958 4.958 0 0 0 1.653-3.831 4.808 4.808 0 0 0-1.803-3.906 24.19 24.19 0 0 0-5.484-3.156 60.852 60.852 0 0 1-6.536-3.005 12.997 12.997 0 0 1-4.282-3.906 11.043 11.043 0 0 1-1.803-6.461 12.02 12.02 0 0 1 3.08-8.189 13.372 13.372 0 0 1 8.339-4.357v-6.31h6.01v6.235a18.48 18.48 0 0 1 10.668 4.658l-4.282 6.61a12.846 12.846 0 0 0-4.433-2.779 14.048 14.048 0 0 0-5.033-.901 5.56 5.56 0 0 0-3.831 1.352 4.357 4.357 0 0 0-1.428 3.38 3.982 3.982 0 0 0 1.728 3.306 27.796 27.796 0 0 0 5.334 2.855c2.225.87 4.384 1.9 6.46 3.08a14.274 14.274 0 0 1 4.433 4.207 11.494 11.494 0 0 1 1.878 6.761 13.222 13.222 0 0 1-3.005 8.79z"/></defs><g><g transform="translate(-750 -1767)"><g><g><text dominant-baseline="text-before-edge" style="line-height:56px;font-kerning:normal" fill="#826f82" font-family="'Gotham','Gotham-Book'" font-size="50" letter-spacing="-.5" transform="translate(859 1762)"><tspan font-family="Gotham-Bold" font-style="none" font-weight="700">FracSCAN</tspan><tspan font-family="'Lucida Grande','LucidaGrande'" font-style="none" font-weight="400">℠</tspan></text></g></g><g><g><text dominant-baseline="text-before-edge" style="line-height:30px;font-kerning:normal" fill="#826f82" font-family="'Gotham','Gotham-Book'" font-size="20" transform="translate(859 1828)"><tspan>Increase pad commercial value</tspan></text></g></g><g><g><g><use fill="#826f82" xlink:href="#96ria"/></g><g><use fill="#826f82" xlink:href="#96rib"/></g><g><use fill="#826f82" xlink:href="#96ric"/></g></g></g></g></g></svg>