<svg xmlns="http://www.w3.org/2000/svg" xmlns:xlink="http://www.w3.org/1999/xlink" width="538" height="78" viewBox="0 0 538 78"><defs><path id="2l0ga" d="M735.846 6573.95v-14.863h7.021l-11.427-17.701-11.428 17.701h7.021v14.863h-23.676v8.739h57.211v-8.739z"/><path id="2l0gb" d="M768.261 6508v9.934a9.261 9.261 0 0 1-18.448-1.195H741.3a9.261 9.261 0 0 1-18.523 0h-8.59a9.261 9.261 0 0 1-18.447 1.195V6508H687v74.689h8.739v-50.714a17.776 17.776 0 0 0 22.705-3.734 17.776 17.776 0 0 0 27.112 0 17.776 17.776 0 0 0 22.705 3.734v50.714H777v-74.69z"/></defs><g><g transform="translate(-687 -6508)"><g><g><text dominant-baseline="text-before-edge" style="line-height:56px;font-kerning:normal" fill="#69374b" font-family="'Gotham','Gotham-Book'" font-size="50" letter-spacing="-.5" transform="translate(796 6501)"><tspan font-family="Gotham-Bold" font-style="none" font-weight="700">DepletionSCAN</tspan><tspan font-family="'Lucida Grande','LucidaGrande'" font-style="none" font-weight="400">℠</tspan></text></g></g><g><g><text dominant-baseline="text-before-edge" style="line-height:30px;font-kerning:normal" fill="#69374b" font-family="'Gotham','Gotham-Book'" font-size="20" transform="translate(796 6567)"><tspan>Reduce nonproductive fluid loss</tspan></text></g></g><g><g><g><use fill="#69374b" xlink:href="#2l0ga"/></g><g/><g><use fill="#69374b" xlink:href="#2l0gb"/></g></g></g></g></g></svg>