<svg xmlns="http://www.w3.org/2000/svg" xmlns:xlink="http://www.w3.org/1999/xlink" width="495" height="75" viewBox="0 0 495 75"><defs><path id="4et0a" d="M781 5980.97a9.261 9.261 0 0 1-9.261-9.26h-8.59a9.261 9.261 0 1 1-18.522 0h-8.515a9.261 9.261 0 0 1-18.373 1.717v-17.402a17.776 17.776 0 0 0 22.63-3.735 17.776 17.776 0 0 0 27.112 0 17.776 17.776 0 0 0 22.78 3.66v15.76a9.261 9.261 0 0 1-9.261 9.26zm9.261-54.97v14.714a9.261 9.261 0 1 1-18.522 0h-8.59a9.261 9.261 0 1 1-18.522 0h-8.515a9.261 9.261 0 0 1-18.373 1.717V5926H709v74.689h8.739v-13.668a17.776 17.776 0 0 0 22.63-3.735 17.776 17.776 0 0 0 27.112 0 17.776 17.776 0 0 0 22.78 3.66v13.743H799v-74.69z"/></defs><g><g transform="translate(-709 -5926)"><g><g><text dominant-baseline="text-before-edge" style="line-height:56px;font-kerning:normal" fill="#dca0c3" font-family="'Gotham','Gotham-Book'" font-size="50" letter-spacing="-.5" transform="translate(818 5919)"><tspan font-family="Gotham-Bold" font-style="none" font-weight="700">DiverterSCAN</tspan><tspan font-family="'Lucida Grande','LucidaGrande'" font-style="none" font-weight="400">℠</tspan></text></g></g><g><g><text dominant-baseline="text-before-edge" style="line-height:30px;font-kerning:normal" fill="#dca0c3" font-family="'Gotham','Gotham-Book'" font-size="20" transform="translate(818 5985)"><tspan>Enhance fluid distribution</tspan></text></g></g><g><g><use fill="#dca0c3" xlink:href="#4et0a"/></g></g></g></g></svg>