<svg xmlns="http://www.w3.org/2000/svg" width="406.979" height="88.33" viewBox="0 0 406.979 88.33">
  <g id="Group_383" data-name="Group 383" transform="translate(-232 -1764.729)">
    <path id="Path_568" data-name="Path 568" d="M11.89,41.939V54H4V18.99H16.357q13.232,0,13.232,11.157a10.705,10.705,0,0,1-3.8,8.533Q22,41.939,15.649,41.939Zm0-16.895V35.958h3.1q6.3,0,6.3-5.518,0-5.4-6.3-5.4ZM54.432,43.7H38.123q.391,5.444,6.86,5.444a13.394,13.394,0,0,0,7.251-1.953v5.566a19.049,19.049,0,0,1-9.009,1.855q-6.055,0-9.4-3.357t-3.345-9.363q0-6.226,3.613-9.863a12.038,12.038,0,0,1,8.887-3.638q5.469,0,8.459,3.247t2.991,8.813Zm-7.153-4.736q0-5.371-4.346-5.371a4.149,4.149,0,0,0-3.21,1.538,6.981,6.981,0,0,0-1.648,3.833Zm27.552-3a6.692,6.692,0,0,0-3.247-.757,4.678,4.678,0,0,0-3.931,1.843,8.041,8.041,0,0,0-1.416,5.017V54H58.521V29h7.715v4.639h.1q1.831-5.078,6.592-5.078a4.968,4.968,0,0,1,1.9.293ZM95.473,22.9a7.793,7.793,0,0,0-2.856-.586q-3.711,0-3.711,4.028V29h5.713v5.688H88.905V54h-7.69V34.688h-4.2V29h4.2V25.9A9,9,0,0,1,84,19.015,10.615,10.615,0,0,1,91.566,16.4a13.291,13.291,0,0,1,3.906.488Zm1.5,29.761V44.845a15.012,15.012,0,0,0,4.614,2.673,14.832,14.832,0,0,0,5.029.891,11.153,11.153,0,0,0,2.6-.269,6.09,6.09,0,0,0,1.855-.745,3.247,3.247,0,0,0,1.111-1.123,2.8,2.8,0,0,0,.366-1.4,3.035,3.035,0,0,0-.586-1.831,6.305,6.305,0,0,0-1.6-1.489,16.709,16.709,0,0,0-2.4-1.318q-1.392-.635-3-1.294a15.326,15.326,0,0,1-6.116-4.175A9.114,9.114,0,0,1,96.828,28.8a9.488,9.488,0,0,1,1.1-4.7,9.331,9.331,0,0,1,2.991-3.235A13.41,13.41,0,0,1,105.3,19a22.518,22.518,0,0,1,5.273-.6,31.718,31.718,0,0,1,4.846.33,19.059,19.059,0,0,1,3.894,1.013v7.3a11.775,11.775,0,0,0-1.917-1.074,15.184,15.184,0,0,0-2.136-.769,16.3,16.3,0,0,0-2.185-.452,15.465,15.465,0,0,0-2.063-.146,10.759,10.759,0,0,0-2.441.256,6.262,6.262,0,0,0-1.855.72,3.583,3.583,0,0,0-1.172,1.111,2.633,2.633,0,0,0-.415,1.453,2.774,2.774,0,0,0,.464,1.575,5.321,5.321,0,0,0,1.318,1.318,13.99,13.99,0,0,0,2.075,1.221q1.221.6,2.759,1.233a30.741,30.741,0,0,1,3.772,1.868,13.409,13.409,0,0,1,2.869,2.234,8.7,8.7,0,0,1,1.831,2.844,10.05,10.05,0,0,1,.635,3.723,9.973,9.973,0,0,1-1.111,4.919,9.019,9.019,0,0,1-3.015,3.223,13.075,13.075,0,0,1-4.431,1.77,25.609,25.609,0,0,1-5.334.537,29.662,29.662,0,0,1-5.481-.488A16.545,16.545,0,0,1,96.975,52.657Zm54.236.1A23.087,23.087,0,0,1,141.2,54.61q-8.057,0-12.671-4.736t-4.614-12.622q0-8.4,5.188-13.623T142.568,18.4a25.18,25.18,0,0,1,8.643,1.294v7.593a15.314,15.314,0,0,0-8.008-2.1,10.623,10.623,0,0,0-7.959,3.1,11.5,11.5,0,0,0-3.027,8.4,11.284,11.284,0,0,0,2.856,8.093,10.091,10.091,0,0,0,7.69,3.015,16.4,16.4,0,0,0,8.447-2.246ZM187.6,54h-8.594l-2.49-7.788H164.065L161.6,54h-8.545L165.8,18.99h9.351ZM174.71,40.157,170.95,28.39a15.336,15.336,0,0,1-.586-3.149h-.2a13.353,13.353,0,0,1-.61,3.052L165.75,40.157ZM222.965,54h-7.959L200.577,32a31.807,31.807,0,0,1-1.758-2.905h-.1q.2,1.855.2,5.664V54h-7.446V18.99h8.5L213.858,40.3q.952,1.44,1.758,2.856h.1a37.433,37.433,0,0,1-.2-4.81V18.99h7.446ZM259.94,35.152H257.3V23.482h-.1l-5.347,11.67h-1.44l-5.225-11.67h-.1v11.67h-2.49V18.99h3.1L251.2,31.1h.1l5.566-12.109h3.076ZM229.2,31.588a5.861,5.861,0,0,0,1.917,1.025,7.192,7.192,0,0,0,2.307.391,5.776,5.776,0,0,0,1.135-.11,2.768,2.768,0,0,0,.952-.366,2,2,0,0,0,.647-.659,1.875,1.875,0,0,0,.244-.989,2.126,2.126,0,0,0-.146-.818,1.83,1.83,0,0,0-.513-.671,5.353,5.353,0,0,0-.952-.635q-.586-.317-1.465-.732-1.05-.488-1.831-.952a6.606,6.606,0,0,1-1.306-.989,3.475,3.475,0,0,1-.781-1.16,4.035,4.035,0,0,1-.256-1.514,4.335,4.335,0,0,1,.513-2.173,4.286,4.286,0,0,1,1.318-1.453,5.711,5.711,0,0,1,1.782-.806,7.4,7.4,0,0,1,1.88-.256q.464,0,1.038.037t1.135.122q.562.085,1.086.22a4.6,4.6,0,0,1,.916.33v2.637a5.286,5.286,0,0,0-.806-.415,8.01,8.01,0,0,0-1-.342,9.585,9.585,0,0,0-1.111-.232,7.7,7.7,0,0,0-1.135-.085,3.807,3.807,0,0,0-2.075.513,1.8,1.8,0,0,0-.806,1.636,1.738,1.738,0,0,0,.183.83,2.081,2.081,0,0,0,.525.623,4.416,4.416,0,0,0,.83.525q.488.244,1.123.537.83.391,1.648.818a7.927,7.927,0,0,1,1.477.989,4.546,4.546,0,0,1,1.062,1.306,3.668,3.668,0,0,1,.4,1.77,4.575,4.575,0,0,1-.415,1.978,4.3,4.3,0,0,1-1.172,1.5,5.3,5.3,0,0,1-1.819.952,7.836,7.836,0,0,1-2.332.33,10.39,10.39,0,0,1-2.319-.256,6.252,6.252,0,0,1-1.88-.72Z" transform="translate(341 1762.729)" fill="#5f0532"/>
    <path id="Path_567" data-name="Path 567" d="M3.477,22H1.836V8H3.477Zm17.666,0h-1.6V16.258a4.332,4.332,0,0,0-.513-2.4,1.944,1.944,0,0,0-1.724-.742,2.134,2.134,0,0,0-1.743.938,3.586,3.586,0,0,0-.718,2.246V22h-1.6V16.063q0-2.949-2.275-2.949A2.108,2.108,0,0,0,9.229,14a3.653,3.653,0,0,0-.684,2.3V22h-1.6V12h1.6v1.582h.039a3.4,3.4,0,0,1,3.105-1.816,2.888,2.888,0,0,1,2.832,2.07,3.569,3.569,0,0,1,3.32-2.07q3.3,0,3.3,4.072Zm4.668-1.445h-.039V26.6h-1.6V12h1.6v1.758h.039a3.787,3.787,0,0,1,3.457-1.992,3.662,3.662,0,0,1,3.018,1.343,5.562,5.562,0,0,1,1.084,3.6,6.2,6.2,0,0,1-1.221,4.019,4.064,4.064,0,0,1-3.34,1.509A3.346,3.346,0,0,1,25.811,20.555Zm-.039-4.033v1.4a2.973,2.973,0,0,0,.806,2.1,2.874,2.874,0,0,0,4.326-.249,5.107,5.107,0,0,0,.825-3.1,4.032,4.032,0,0,0-.771-2.617,2.553,2.553,0,0,0-2.09-.947,2.838,2.838,0,0,0-2.246.972A3.568,3.568,0,0,0,25.771,16.521Zm15.371-2.9a1.958,1.958,0,0,0-1.211-.322,2.044,2.044,0,0,0-1.714.967,4.47,4.47,0,0,0-.688,2.637V22h-1.6V12h1.6v2.061h.039a3.492,3.492,0,0,1,1.045-1.646,2.383,2.383,0,0,1,1.572-.591,2.615,2.615,0,0,1,.957.137Zm5.918,8.613a4.638,4.638,0,0,1-3.54-1.4A5.191,5.191,0,0,1,42.2,17.117a5.407,5.407,0,0,1,1.377-3.936,4.95,4.95,0,0,1,3.721-1.416,4.485,4.485,0,0,1,3.491,1.377,5.46,5.46,0,0,1,1.255,3.818,5.372,5.372,0,0,1-1.353,3.833A4.739,4.739,0,0,1,47.061,22.234Zm.117-9.121a3.046,3.046,0,0,0-2.441,1.05,4.312,4.312,0,0,0-.9,2.9,4.078,4.078,0,0,0,.908,2.8,3.087,3.087,0,0,0,2.432,1.025,2.928,2.928,0,0,0,2.388-1.006A4.365,4.365,0,0,0,50.4,17.02a4.44,4.44,0,0,0-.835-2.891A2.915,2.915,0,0,0,47.178,13.113ZM62.461,12,58.477,22H56.9L53.115,12h1.758l2.539,7.266a6.521,6.521,0,0,1,.352,1.4H57.8a6.6,6.6,0,0,1,.313-1.357L60.771,12Zm9.756,5.4H65.156a3.74,3.74,0,0,0,.9,2.578,3.1,3.1,0,0,0,2.363.908,4.913,4.913,0,0,0,3.105-1.113v1.5a5.8,5.8,0,0,1-3.486.957,4.227,4.227,0,0,1-3.33-1.362A5.576,5.576,0,0,1,63.5,17.039a5.468,5.468,0,0,1,1.323-3.8,4.243,4.243,0,0,1,3.286-1.47,3.76,3.76,0,0,1,3.037,1.27,5.293,5.293,0,0,1,1.074,3.525Zm-1.641-1.357a3.259,3.259,0,0,0-.669-2.158,2.279,2.279,0,0,0-1.831-.771,2.587,2.587,0,0,0-1.924.811,3.678,3.678,0,0,0-.977,2.119Zm16.357,5.5a5.2,5.2,0,0,1-2.734.693,4.527,4.527,0,0,1-3.452-1.392,5.043,5.043,0,0,1-1.313-3.608,5.544,5.544,0,0,1,1.416-3.97,4.954,4.954,0,0,1,3.779-1.5,5.261,5.261,0,0,1,2.324.488v1.641a4.072,4.072,0,0,0-2.383-.781,3.22,3.22,0,0,0-2.515,1.1,4.169,4.169,0,0,0-.981,2.886A3.969,3.969,0,0,0,82,19.871a3.181,3.181,0,0,0,2.476,1.016,4.014,4.014,0,0,0,2.461-.869ZM90.957,22h-1.6V7.2h1.6Zm11.328,0h-1.6V20.418h-.039a3.289,3.289,0,0,1-3.086,1.816q-3.574,0-3.574-4.258V12h1.592v5.723q0,3.164,2.422,3.164a2.45,2.45,0,0,0,1.929-.864,3.307,3.307,0,0,0,.757-2.261V12h1.6Zm2.627-.361V19.92a4.74,4.74,0,0,0,2.881.967q2.109,0,2.109-1.406a1.22,1.22,0,0,0-.181-.679,1.8,1.8,0,0,0-.488-.493,3.758,3.758,0,0,0-.723-.386q-.415-.171-.894-.356a11.508,11.508,0,0,1-1.167-.532,3.525,3.525,0,0,1-.84-.605,2.253,2.253,0,0,1-.508-.767,2.712,2.712,0,0,1-.171-1.006,2.389,2.389,0,0,1,.322-1.245,2.858,2.858,0,0,1,.859-.908,4.007,4.007,0,0,1,1.226-.552,5.436,5.436,0,0,1,1.421-.186,5.737,5.737,0,0,1,2.324.449v1.621a4.53,4.53,0,0,0-2.539-.723,2.968,2.968,0,0,0-.811.1,1.984,1.984,0,0,0-.62.288,1.331,1.331,0,0,0-.4.444,1.171,1.171,0,0,0-.142.571,1.37,1.37,0,0,0,.142.654,1.44,1.44,0,0,0,.415.469,3.172,3.172,0,0,0,.664.371q.391.166.889.361a12.368,12.368,0,0,1,1.191.522,4.086,4.086,0,0,1,.9.605,2.366,2.366,0,0,1,.571.776,2.5,2.5,0,0,1,.2,1.045,2.464,2.464,0,0,1-.327,1.289,2.8,2.8,0,0,1-.874.908,4,4,0,0,1-1.26.537,6.22,6.22,0,0,1-1.494.176A5.674,5.674,0,0,1,104.912,21.639Zm13.73.264a3.088,3.088,0,0,1-1.494.313q-2.627,0-2.627-2.93V13.367H112.8V12h1.719V9.559l1.6-.518V12h2.52v1.367h-2.52V19a2.336,2.336,0,0,0,.342,1.436,1.364,1.364,0,0,0,1.133.43,1.684,1.684,0,0,0,1.045-.332Zm10.176-4.5h-7.061a3.74,3.74,0,0,0,.9,2.578,3.1,3.1,0,0,0,2.363.908,4.913,4.913,0,0,0,3.105-1.113v1.5a5.8,5.8,0,0,1-3.486.957,4.227,4.227,0,0,1-3.33-1.362,5.576,5.576,0,0,1-1.211-3.833,5.468,5.468,0,0,1,1.323-3.8,4.243,4.243,0,0,1,3.286-1.47,3.76,3.76,0,0,1,3.037,1.27,5.293,5.293,0,0,1,1.074,3.525Zm-1.641-1.357a3.259,3.259,0,0,0-.669-2.158,2.279,2.279,0,0,0-1.831-.771,2.587,2.587,0,0,0-1.924.811,3.678,3.678,0,0,0-.977,2.119Zm9.277-2.422a1.958,1.958,0,0,0-1.211-.322,2.044,2.044,0,0,0-1.714.967,4.47,4.47,0,0,0-.688,2.637V22h-1.6V12h1.6v2.061h.039a3.492,3.492,0,0,1,1.045-1.646,2.383,2.383,0,0,1,1.572-.591,2.615,2.615,0,0,1,.957.137Zm6.855,3.438h-5.332V15.8h5.332Zm2.275,4.58V19.92a4.74,4.74,0,0,0,2.881.967q2.109,0,2.109-1.406a1.22,1.22,0,0,0-.181-.679,1.8,1.8,0,0,0-.488-.493,3.759,3.759,0,0,0-.723-.386q-.415-.171-.894-.356a11.508,11.508,0,0,1-1.167-.532,3.526,3.526,0,0,1-.84-.605,2.253,2.253,0,0,1-.508-.767,2.712,2.712,0,0,1-.171-1.006,2.389,2.389,0,0,1,.322-1.245,2.858,2.858,0,0,1,.859-.908,4.007,4.007,0,0,1,1.226-.552,5.436,5.436,0,0,1,1.421-.186,5.737,5.737,0,0,1,2.324.449v1.621a4.53,4.53,0,0,0-2.539-.723,2.968,2.968,0,0,0-.811.1,1.984,1.984,0,0,0-.62.288,1.331,1.331,0,0,0-.4.444,1.17,1.17,0,0,0-.142.571,1.37,1.37,0,0,0,.142.654,1.44,1.44,0,0,0,.415.469,3.172,3.172,0,0,0,.664.371q.391.166.889.361a12.369,12.369,0,0,1,1.191.522,4.086,4.086,0,0,1,.9.605,2.366,2.366,0,0,1,.571.776,2.5,2.5,0,0,1,.2,1.045,2.464,2.464,0,0,1-.327,1.289,2.8,2.8,0,0,1-.874.908,4,4,0,0,1-1.26.537,6.22,6.22,0,0,1-1.494.176A5.674,5.674,0,0,1,145.586,21.639Zm10.732-1.084h-.039V26.6h-1.6V12h1.6v1.758h.039a3.787,3.787,0,0,1,3.457-1.992,3.662,3.662,0,0,1,3.018,1.343,5.562,5.562,0,0,1,1.084,3.6,6.2,6.2,0,0,1-1.221,4.019,4.064,4.064,0,0,1-3.34,1.509A3.346,3.346,0,0,1,156.318,20.555Zm-.039-4.033v1.4a2.973,2.973,0,0,0,.806,2.1,2.874,2.874,0,0,0,4.326-.249,5.107,5.107,0,0,0,.825-3.1,4.032,4.032,0,0,0-.771-2.617,2.553,2.553,0,0,0-2.09-.947,2.838,2.838,0,0,0-2.246.972A3.568,3.568,0,0,0,156.279,16.521ZM173.594,22h-1.6V20.438h-.039a3.353,3.353,0,0,1-3.076,1.8,3.288,3.288,0,0,1-2.339-.791,2.741,2.741,0,0,1-.845-2.1q0-2.8,3.3-3.262l3-.42q0-2.549-2.061-2.549a4.923,4.923,0,0,0-3.262,1.23V12.7a6.2,6.2,0,0,1,3.4-.937q3.525,0,3.525,3.73Zm-1.6-5.059-2.412.332a3.916,3.916,0,0,0-1.68.552,1.591,1.591,0,0,0-.566,1.4,1.526,1.526,0,0,0,.522,1.2,2.019,2.019,0,0,0,1.392.464,2.571,2.571,0,0,0,1.968-.835,2.983,2.983,0,0,0,.776-2.114Zm11.436,4.6a5.2,5.2,0,0,1-2.734.693,4.527,4.527,0,0,1-3.452-1.392,5.043,5.043,0,0,1-1.313-3.608,5.544,5.544,0,0,1,1.416-3.97,4.954,4.954,0,0,1,3.779-1.5,5.261,5.261,0,0,1,2.324.488v1.641a4.072,4.072,0,0,0-2.383-.781,3.22,3.22,0,0,0-2.515,1.1,4.169,4.169,0,0,0-.981,2.886,3.969,3.969,0,0,0,.923,2.773,3.181,3.181,0,0,0,2.476,1.016,4.014,4.014,0,0,0,2.461-.869Zm3.242-12.08a1.015,1.015,0,0,1-.732-.293.989.989,0,0,1-.3-.742,1.026,1.026,0,0,1,1.035-1.045,1.034,1.034,0,0,1,.747.3,1.043,1.043,0,0,1,0,1.479A1.025,1.025,0,0,1,186.67,9.461ZM187.451,22h-1.6V12h1.6Zm11.543,0h-1.6V16.3q0-3.184-2.324-3.184a2.521,2.521,0,0,0-1.987.9,3.348,3.348,0,0,0-.786,2.28V22h-1.6V12h1.6v1.66h.039a3.609,3.609,0,0,1,3.281-1.895,3.059,3.059,0,0,1,2.51,1.06,4.72,4.72,0,0,1,.869,3.062Zm11.553-.8q0,5.508-5.273,5.508a7.08,7.08,0,0,1-3.242-.7V24.4a6.659,6.659,0,0,0,3.223.938q3.691,0,3.691-3.926V20.32h-.039a4.046,4.046,0,0,1-6.44.581,5.329,5.329,0,0,1-1.138-3.579,6.226,6.226,0,0,1,1.226-4.053,4.094,4.094,0,0,1,3.354-1.5,3.26,3.26,0,0,1,3,1.621h.039V12h1.6Zm-1.6-3.721V16a2.861,2.861,0,0,0-.806-2.041,2.652,2.652,0,0,0-2.007-.85,2.781,2.781,0,0,0-2.324,1.079,4.817,4.817,0,0,0-.84,3.022,4.135,4.135,0,0,0,.806,2.671,2.6,2.6,0,0,0,2.134,1,2.788,2.788,0,0,0,2.192-.957A3.567,3.567,0,0,0,208.945,17.479ZM227.8,22h-1.6V20.3h-.039a3.7,3.7,0,0,1-3.437,1.934,3.735,3.735,0,0,1-3.013-1.343,5.509,5.509,0,0,1-1.128-3.657,5.993,5.993,0,0,1,1.25-3.975,4.123,4.123,0,0,1,3.33-1.494,3.206,3.206,0,0,1,3,1.621h.039V7.2h1.6Zm-1.6-4.521V16a2.861,2.861,0,0,0-.8-2.051,2.686,2.686,0,0,0-2.031-.84,2.766,2.766,0,0,0-2.3,1.074,4.707,4.707,0,0,0-.84,2.969,4.234,4.234,0,0,0,.806,2.729,2.633,2.633,0,0,0,2.163,1,2.735,2.735,0,0,0,2.173-.967A3.6,3.6,0,0,0,226.2,17.479Zm12.881-.078h-7.061a3.74,3.74,0,0,0,.9,2.578,3.1,3.1,0,0,0,2.363.908,4.913,4.913,0,0,0,3.105-1.113v1.5a5.8,5.8,0,0,1-3.486.957,4.227,4.227,0,0,1-3.33-1.362,5.576,5.576,0,0,1-1.211-3.833,5.468,5.468,0,0,1,1.323-3.8,4.243,4.243,0,0,1,3.286-1.47,3.76,3.76,0,0,1,3.037,1.27,5.293,5.293,0,0,1,1.074,3.525Zm-1.641-1.357a3.259,3.259,0,0,0-.669-2.158,2.279,2.279,0,0,0-1.831-.771,2.587,2.587,0,0,0-1.924.811,3.678,3.678,0,0,0-.977,2.119Zm10.879,5.5a5.2,5.2,0,0,1-2.734.693,4.527,4.527,0,0,1-3.452-1.392,5.043,5.043,0,0,1-1.313-3.608,5.544,5.544,0,0,1,1.416-3.97,4.954,4.954,0,0,1,3.779-1.5,5.261,5.261,0,0,1,2.324.488v1.641a4.072,4.072,0,0,0-2.383-.781,3.22,3.22,0,0,0-2.515,1.1,4.169,4.169,0,0,0-.981,2.886,3.969,3.969,0,0,0,.923,2.773,3.181,3.181,0,0,0,2.476,1.016,4.014,4.014,0,0,0,2.461-.869Zm3.242-12.08a1.015,1.015,0,0,1-.732-.293.989.989,0,0,1-.3-.742,1.026,1.026,0,0,1,1.035-1.045,1.034,1.034,0,0,1,.747.3,1.043,1.043,0,0,1,0,1.479A1.025,1.025,0,0,1,251.563,9.461ZM252.344,22h-1.6V12h1.6Zm2.637-.361V19.92a4.74,4.74,0,0,0,2.881.967q2.109,0,2.109-1.406a1.22,1.22,0,0,0-.181-.679,1.8,1.8,0,0,0-.488-.493,3.758,3.758,0,0,0-.723-.386q-.415-.171-.894-.356a11.508,11.508,0,0,1-1.167-.532,3.525,3.525,0,0,1-.84-.605,2.253,2.253,0,0,1-.508-.767A2.712,2.712,0,0,1,255,14.656a2.389,2.389,0,0,1,.322-1.245,2.858,2.858,0,0,1,.859-.908,4.007,4.007,0,0,1,1.226-.552,5.436,5.436,0,0,1,1.421-.186,5.737,5.737,0,0,1,2.324.449v1.621a4.53,4.53,0,0,0-2.539-.723,2.968,2.968,0,0,0-.811.1,1.984,1.984,0,0,0-.62.288,1.331,1.331,0,0,0-.4.444,1.171,1.171,0,0,0-.142.571,1.37,1.37,0,0,0,.142.654,1.44,1.44,0,0,0,.415.469,3.172,3.172,0,0,0,.664.371q.391.166.889.361a12.367,12.367,0,0,1,1.191.522,4.086,4.086,0,0,1,.9.605,2.366,2.366,0,0,1,.571.776,2.5,2.5,0,0,1,.2,1.045,2.464,2.464,0,0,1-.327,1.289,2.8,2.8,0,0,1-.874.908,4,4,0,0,1-1.26.537,6.22,6.22,0,0,1-1.494.176A5.673,5.673,0,0,1,254.98,21.639Zm9.912-12.178a1.015,1.015,0,0,1-.732-.293.989.989,0,0,1-.3-.742,1.026,1.026,0,0,1,1.035-1.045,1.034,1.034,0,0,1,.747.3,1.043,1.043,0,0,1,0,1.479A1.025,1.025,0,0,1,264.893,9.461ZM265.674,22h-1.6V12h1.6Zm7.422.234a4.638,4.638,0,0,1-3.54-1.4,5.191,5.191,0,0,1-1.323-3.716,5.407,5.407,0,0,1,1.377-3.936,4.95,4.95,0,0,1,3.721-1.416,4.485,4.485,0,0,1,3.491,1.377,5.46,5.46,0,0,1,1.255,3.818,5.372,5.372,0,0,1-1.353,3.833A4.739,4.739,0,0,1,273.1,22.234Zm.117-9.121a3.046,3.046,0,0,0-2.441,1.05,4.312,4.312,0,0,0-.9,2.9,4.078,4.078,0,0,0,.908,2.8,3.087,3.087,0,0,0,2.432,1.025,2.928,2.928,0,0,0,2.388-1.006,4.365,4.365,0,0,0,.835-2.861,4.44,4.44,0,0,0-.835-2.891A2.915,2.915,0,0,0,273.213,13.113ZM288.936,22h-1.6V16.3q0-3.184-2.324-3.184a2.521,2.521,0,0,0-1.987.9,3.348,3.348,0,0,0-.786,2.28V22h-1.6V12h1.6v1.66h.039a3.609,3.609,0,0,1,3.281-1.895,3.059,3.059,0,0,1,2.51,1.06,4.72,4.72,0,0,1,.869,3.062Zm2.412-.361V19.92a4.74,4.74,0,0,0,2.881.967q2.109,0,2.109-1.406a1.22,1.22,0,0,0-.181-.679,1.8,1.8,0,0,0-.488-.493,3.758,3.758,0,0,0-.723-.386q-.415-.171-.894-.356a11.508,11.508,0,0,1-1.167-.532,3.525,3.525,0,0,1-.84-.605,2.253,2.253,0,0,1-.508-.767,2.712,2.712,0,0,1-.171-1.006,2.389,2.389,0,0,1,.322-1.245,2.858,2.858,0,0,1,.859-.908,4.007,4.007,0,0,1,1.226-.552,5.436,5.436,0,0,1,1.421-.186,5.737,5.737,0,0,1,2.324.449v1.621a4.53,4.53,0,0,0-2.539-.723,2.968,2.968,0,0,0-.811.1,1.984,1.984,0,0,0-.62.288,1.331,1.331,0,0,0-.4.444,1.171,1.171,0,0,0-.142.571,1.37,1.37,0,0,0,.142.654,1.44,1.44,0,0,0,.415.469,3.172,3.172,0,0,0,.664.371q.391.166.889.361a12.367,12.367,0,0,1,1.191.522,4.086,4.086,0,0,1,.9.605,2.366,2.366,0,0,1,.571.776,2.5,2.5,0,0,1,.2,1.045,2.464,2.464,0,0,1-.327,1.289,2.8,2.8,0,0,1-.874.908,4,4,0,0,1-1.26.537,6.22,6.22,0,0,1-1.494.176A5.674,5.674,0,0,1,291.348,21.639Z" transform="translate(341 1826.351)" fill="#5f0532"/>
    <g id="PerfSCAN" transform="translate(277 1806.242)">
      <g id="PerfSCAN-2" data-name="PerfSCAN" transform="translate(-45 -41.513)">
        <circle id="Ellipse_269" data-name="Ellipse 269" cx="6.476" cy="6.476" r="6.476" transform="translate(46.827 70.074)" fill="#5f0532"/>
        <circle id="Ellipse_270" data-name="Ellipse 270" cx="6.476" cy="6.476" r="6.476" transform="translate(62.601 61.522)" fill="#5f0532"/>
        <circle id="Ellipse_271" data-name="Ellipse 271" cx="6.476" cy="6.476" r="6.476" transform="translate(46.827 52.97)" fill="#5f0532"/>
        <circle id="Ellipse_272" data-name="Ellipse 272" cx="6.476" cy="6.476" r="6.476" transform="translate(62.601 44.336)" fill="#5f0532"/>
        <circle id="Ellipse_273" data-name="Ellipse 273" cx="6.476" cy="6.476" r="6.476" transform="translate(46.827 35.784)" fill="#5f0532"/>
        <circle id="Ellipse_274" data-name="Ellipse 274" cx="6.476" cy="6.476" r="6.476" transform="translate(62.601 27.232)" fill="#5f0532"/>
        <circle id="Ellipse_275" data-name="Ellipse 275" cx="6.476" cy="6.476" r="6.476" transform="translate(46.827 18.681)" fill="#5f0532"/>
        <circle id="Ellipse_276" data-name="Ellipse 276" cx="6.476" cy="6.476" r="6.476" transform="translate(62.601 8.552)" fill="#5f0532"/>
        <circle id="Ellipse_277" data-name="Ellipse 277" cx="6.476" cy="6.476" r="6.476" transform="translate(46.827)" fill="#5f0532"/>
        <circle id="Ellipse_278" data-name="Ellipse 278" cx="6.476" cy="6.476" r="6.476" transform="translate(30.72)" fill="#5f0532"/>
        <circle id="Ellipse_279" data-name="Ellipse 279" cx="6.476" cy="6.476" r="6.476" transform="translate(15.028 8.552)" fill="#5f0532"/>
        <circle id="Ellipse_280" data-name="Ellipse 280" cx="6.476" cy="6.476" r="6.476" transform="translate(30.72 18.681)" fill="#5f0532"/>
        <circle id="Ellipse_281" data-name="Ellipse 281" cx="6.476" cy="6.476" r="6.476" transform="translate(15.028 27.232)" fill="#5f0532"/>
        <circle id="Ellipse_282" data-name="Ellipse 282" cx="6.476" cy="6.476" r="6.476" transform="translate(30.72 35.784)" fill="#5f0532"/>
        <circle id="Ellipse_283" data-name="Ellipse 283" cx="6.476" cy="6.476" r="6.476" transform="translate(15.028 44.336)" fill="#5f0532"/>
        <circle id="Ellipse_284" data-name="Ellipse 284" cx="6.476" cy="6.476" r="6.476" transform="translate(30.72 52.97)" fill="#5f0532"/>
        <circle id="Ellipse_285" data-name="Ellipse 285" cx="6.476" cy="6.476" r="6.476" transform="translate(15.028 61.522)" fill="#5f0532"/>
        <circle id="Ellipse_286" data-name="Ellipse 286" cx="6.476" cy="6.476" r="6.476" transform="translate(30.72 70.074)" fill="#5f0532"/>
        <circle id="Ellipse_287" data-name="Ellipse 287" cx="6.476" cy="6.476" r="6.476" transform="translate(0 18.017)" fill="#5f0532"/>
        <circle id="Ellipse_288" data-name="Ellipse 288" cx="6.476" cy="6.476" r="6.476" transform="translate(0 35.12)" fill="#5f0532"/>
        <circle id="Ellipse_289" data-name="Ellipse 289" cx="6.476" cy="6.476" r="6.476" transform="translate(0 52.306)" fill="#5f0532"/>
        <circle id="Ellipse_290" data-name="Ellipse 290" cx="6.476" cy="6.476" r="6.476" transform="translate(77.048 18.017)" fill="#5f0532"/>
        <circle id="Ellipse_291" data-name="Ellipse 291" cx="6.476" cy="6.476" r="6.476" transform="translate(77.048 35.12)" fill="#5f0532"/>
        <circle id="Ellipse_292" data-name="Ellipse 292" cx="6.476" cy="6.476" r="6.476" transform="translate(77.048 52.306)" fill="#5f0532"/>
      </g>
    </g>
  </g>
</svg>
