<svg xmlns="http://www.w3.org/2000/svg" width="10" height="6" viewBox="0 0 10 6">
    <path fill="#9B2271" fill-rule="nonzero" d="M8.696.297a.74.74 0 0 1 .54-.232.74.74 0 0 1 .54.232c.146.15.224.346.224.559a.793.793 0 0 1-.224.559L5.57 5.768a.74.74 0 0 1-.54.232.74.74 0 0 1-.539-.232L.224 1.358a.688.688 0 0 1-.1-.132C.094 1.17.094 1.17.069 1.11L.05 1.065C.029 1.002.029 1.002.013.935.002.86.002.86 0 .791 0 .578.078.383.224.232A.74.74 0 0 1 .764 0a.74.74 0 0 1 .54.232l3.727 3.86L8.696.297z"/>
</svg>
