<?xml version="1.0" encoding="utf-8"?>
<!-- Generator: Adobe Illustrator 22.1.0, SVG Export Plug-In . SVG Version: 6.00 Build 0)  -->
<svg version="1.1" id="Layer_1" xmlns="http://www.w3.org/2000/svg" xmlns:xlink="http://www.w3.org/1999/xlink" x="0px" y="0px"
	 viewBox="0 0 123 59" style="enable-background:new 0 0 123 59;" xml:space="preserve">
<path d="M4,10.1L0.6,0.9h0.8L4.3,9l2.7-8.1h0.5L10.1,9L13,0.9h0.7l-3.3,9.2H9.8L7.2,2.2l-2.7,7.9C4.5,10.1,4,10.1,4,10.1z M15.4,1.6
	V0.8h0.8v0.9C16.1,1.6,15.4,1.6,15.4,1.6z M15.4,10V3.4h0.6V10C16.1,10,15.4,10,15.4,10z M18.6,10V3.4h0.6v1.2
	c0.4-0.8,1.2-1.4,2.4-1.4c1.7,0,2.7,1.1,2.7,2.7V10h-0.6V6.1c0-1.4-0.8-2.3-2.1-2.3c-1.3,0-2.3,1-2.3,2.4V10H18.6z M26.5,10V3.4h0.6
	v1.2c0.4-0.8,1.2-1.4,2.4-1.4c1.7,0,2.7,1.1,2.7,2.7V10h-0.6V6.1c0-1.4-0.8-2.3-2.1-2.3c-1.3,0-2.3,1-2.3,2.4V10
	C27.2,10,26.5,10,26.5,10z M37.3,10.2c-1.7,0-3.3-1.4-3.3-3.5v0c0-1.9,1.4-3.5,3.1-3.5c1.9,0,3,1.5,3,3.5c0,0.1,0,0.2,0,0.3h-5.5
	c0.1,1.7,1.3,2.6,2.6,2.6c1,0,1.7-0.5,2.3-1l0.4,0.4C39.4,9.6,38.6,10.2,37.3,10.2z M34.7,6.4h4.8c-0.1-1.3-0.9-2.6-2.4-2.6
	C35.9,3.8,34.9,4.9,34.7,6.4z M42.1,10V3.4h0.6v1.9c0.5-1.2,1.6-2,2.9-2V4h-0.1c-1.5,0-2.9,1.2-2.9,3.3V10H42.1z M50.7,11v-0.5
	l3.4-3.1c1.5-1.4,2-2.1,2-3.1c0-1.2-1-1.9-2.1-1.9c-1.2,0-1.9,0.6-2.7,1.7l-0.5-0.3c0.8-1.2,1.6-2,3.2-2c1.5,0,2.7,1.1,2.7,2.5v0
	c0,1.2-0.7,2.1-2.3,3.5l-2.8,2.5h5.1V11C56.9,11,50.7,11,50.7,11z M62.4,11.2c-2.3,0-3.8-2.2-3.8-4.7v0c0-2.5,1.5-4.7,3.8-4.7
	s3.8,2.2,3.8,4.7v0C66.2,9,64.7,11.2,62.4,11.2z M62.4,10.5c1.9,0,3.1-2,3.1-4.1v0c0-2.1-1.2-4.1-3.1-4.1c-1.9,0-3.1,2-3.1,4.1v0
	C59.3,8.6,60.5,10.5,62.4,10.5z M69.3,11V2.5l-1.8,0.6l-0.2-0.5l2.1-0.8h0.5V11C69.9,11,69.3,11,69.3,11z M75.4,11.1
	c-1.9,0-3.4-1.1-3.4-2.6v0c0-1.1,0.9-1.9,2-2.2c-0.9-0.4-1.7-1-1.7-2.1v0c0-1.4,1.5-2.4,3.1-2.4s3.1,1,3.1,2.4v0
	c0,1.1-0.8,1.8-1.7,2.1c1.1,0.4,2,1.2,2,2.2v0C78.8,10.1,77.3,11.1,75.4,11.1z M75.4,6c1.3,0,2.4-0.8,2.4-1.9v0c0-1-1-1.8-2.4-1.8
	S73,3.1,73,4.1v0C73,5.3,74.1,6,75.4,6z M75.4,10.5c1.7,0,2.7-0.9,2.7-1.9v0c0-1.1-1.2-1.9-2.7-1.9s-2.7,0.8-2.7,1.9v0
	C72.7,9.6,73.7,10.5,75.4,10.5z M1.4,26v-9.1H2l3.7,5.4l3.7-5.4h0.6V26H9.3v-7.9l-3.6,5.2H5.6L2,18.1V26C2,26,1.4,26,1.4,26z
	 M15.3,26.2c-1.7,0-3.3-1.4-3.3-3.5v0c0-1.9,1.4-3.5,3.1-3.5c1.9,0,3,1.5,3,3.5c0,0.1,0,0.2,0,0.3h-5.5c0.1,1.7,1.3,2.6,2.6,2.6
	c1,0,1.7-0.5,2.3-1l0.4,0.4C17.4,25.6,16.6,26.2,15.3,26.2z M12.7,22.4h4.8c-0.1-1.3-0.9-2.6-2.4-2.6C13.8,19.8,12.8,20.9,12.7,22.4
	z M20.1,26v-6.6h0.6v1.9c0.5-1.2,1.6-2,2.9-2V20h-0.1c-1.5,0-2.9,1.2-2.9,3.3V26H20.1z M25.3,17.6v-0.9h0.8v0.9H25.3z M25.4,26v-6.6
	H26V26H25.4z M30.7,26.1c-1,0-1.9-0.6-1.9-1.8V20h-1v-0.6h1v-2.1h0.6v2.1h2.3V20h-2.3v4.3c0,0.9,0.6,1.3,1.3,1.3
	c0.3,0,0.6-0.1,1-0.2v0.6C31.5,26,31.1,26.1,30.7,26.1z M36.5,26.2c-2,0-3.4-1.6-3.4-3.4v0c0-1.9,1.4-3.5,3.4-3.5
	c2,0,3.4,1.6,3.4,3.4v0C39.9,24.5,38.4,26.2,36.5,26.2z M36.5,25.6c1.6,0,2.7-1.3,2.7-2.8v0c0-1.6-1.2-2.9-2.7-2.9
	c-1.6,0-2.7,1.3-2.7,2.8v0C33.8,24.3,35,25.6,36.5,25.6z M41.8,26v-6.6h0.6v1.9c0.5-1.2,1.6-2,2.9-2V20h-0.1c-1.5,0-2.9,1.2-2.9,3.3
	V26H41.8z M47.1,17.6v-0.9h0.8v0.9H47.1z M47.1,26v-6.6h0.6V26H47.1z M53.2,26.2c-2,0-3.4-1.6-3.4-3.4v0c0-1.9,1.4-3.5,3.4-3.5
	c2,0,3.4,1.6,3.4,3.4v0C56.6,24.5,55.2,26.2,53.2,26.2z M53.2,25.6c1.6,0,2.7-1.3,2.7-2.8v0c0-1.6-1.2-2.9-2.7-2.9
	c-1.6,0-2.7,1.3-2.7,2.8v0C50.5,24.3,51.7,25.6,53.2,25.6z M61.1,26.2c-1.7,0-2.7-1.1-2.7-2.7v-4.1h0.6v3.9c0,1.4,0.8,2.3,2.1,2.3
	c1.3,0,2.3-1,2.3-2.4v-3.8h0.6V26h-0.6v-1.2C63.1,25.5,62.3,26.2,61.1,26.2z M68.7,26.1c-1,0-2-0.4-2.7-1l0.4-0.5
	c0.7,0.6,1.5,0.9,2.4,0.9c0.9,0,1.6-0.5,1.6-1.3v0c0-0.8-0.8-1.1-1.8-1.3c-1.1-0.3-2.3-0.6-2.3-1.8v0c0-1.1,0.9-1.8,2.2-1.8
	c0.8,0,1.7,0.3,2.4,0.7l-0.3,0.5c-0.6-0.4-1.3-0.7-2-0.7c-0.9,0-1.5,0.5-1.5,1.2v0c0,0.7,0.9,1,1.8,1.3c1.1,0.3,2.2,0.7,2.2,1.9v0
	C71,25.4,70,26.1,68.7,26.1L68.7,26.1z M76.3,26l4.2-9.2h0.7l4.2,9.2h-0.7l-1.2-2.5h-5.4L77,26C77,26,76.3,26,76.3,26z M78.4,22.8
	h4.8l-2.4-5.3L78.4,22.8z M88.5,26.1L86,19.4h0.7l2,5.8l2-5.9h0.5l2,5.9l2-5.8H96l-2.4,6.7H93l-2-5.7l-2,5.7
	C89,26.1,88.5,26.1,88.5,26.1z M99.6,26.2c-1.2,0-2.6-0.7-2.6-2.1v0c0-1.4,1.2-2.2,2.9-2.2c0.9,0,1.6,0.1,2.2,0.3v-0.3
	c0-1.3-0.8-2-2.2-2c-0.8,0-1.5,0.2-2.1,0.5l-0.2-0.6c0.7-0.3,1.4-0.6,2.4-0.6c0.9,0,1.6,0.2,2.1,0.7c0.4,0.4,0.7,1.1,0.7,1.9V26
	h-0.6v-1.1C101.6,25.5,100.8,26.2,99.6,26.2z M99.6,25.6c1.4,0,2.5-0.8,2.5-2v-0.8c-0.7-0.2-1.5-0.3-2.2-0.3c-1.4,0-2.2,0.6-2.2,1.5
	v0C97.7,25,98.6,25.6,99.6,25.6z M105,26v-6.6h0.6v1.9c0.5-1.2,1.6-2,2.9-2V20h-0.1c-1.5,0-2.9,1.2-2.9,3.3V26
	C105.7,26,105,26,105,26z M112.7,26.2c-1.6,0-3.2-1.3-3.2-3.4v0c0-2.2,1.6-3.5,3.2-3.5c1.3,0,2.2,0.8,2.7,1.6v-4.3h0.6V26h-0.6v-1.5
	C114.8,25.4,114,26.2,112.7,26.2z M112.7,25.5c1.4,0,2.7-1.2,2.7-2.8v0c0-1.7-1.3-2.8-2.7-2.8c-1.4,0-2.6,1.1-2.6,2.8v0
	C110.1,24.4,111.4,25.5,112.7,25.5z M120.6,26.1c-1,0-2-0.4-2.7-1l0.4-0.5c0.7,0.6,1.5,0.9,2.4,0.9c0.9,0,1.6-0.5,1.6-1.3v0
	c0-0.8-0.8-1.1-1.8-1.3c-1.1-0.3-2.3-0.6-2.3-1.8v0c0-1.1,0.9-1.8,2.2-1.8c0.8,0,1.7,0.3,2.4,0.7l-0.3,0.5c-0.6-0.4-1.3-0.7-2-0.7
	c-0.9,0-1.5,0.5-1.5,1.2v0c0,0.7,0.9,1,1.8,1.3c1.1,0.3,2.2,0.7,2.2,1.9v0C122.9,25.4,121.9,26.1,120.6,26.1L120.6,26.1z M1.6,42v-6
	h-1v-0.6h1v-0.7c0-0.8,0.2-1.4,0.6-1.7c0.3-0.3,0.8-0.5,1.4-0.5c0.4,0,0.7,0.1,1,0.2v0.6c-0.4-0.1-0.7-0.2-1-0.2
	c-0.9,0-1.3,0.5-1.3,1.7v0.6h2.3V36H2.2v6H1.6z M8.7,42.2c-2,0-3.4-1.6-3.4-3.4v0c0-1.9,1.4-3.5,3.4-3.5c2,0,3.4,1.6,3.4,3.4v0
	C12.1,40.5,10.7,42.2,8.7,42.2z M8.7,41.6c1.6,0,2.7-1.3,2.7-2.8v0c0-1.6-1.2-2.9-2.7-2.9c-1.6,0-2.7,1.3-2.7,2.8v0
	C6,40.3,7.2,41.6,8.7,41.6z M14.1,42v-6.6h0.6v1.9c0.5-1.2,1.6-2,2.9-2V36h-0.1c-1.5,0-2.9,1.2-2.9,3.3V42H14.1z M23.3,42v-9.1h6.5
	v0.6H24v3.6h5.2v0.6H24v3.7h5.9V42C29.9,42,23.3,42,23.3,42z M31.9,42v-6.6h0.6v1.2c0.4-0.8,1.2-1.4,2.4-1.4c1.7,0,2.7,1.1,2.7,2.7
	V42H37v-3.9c0-1.4-0.8-2.3-2.1-2.3c-1.3,0-2.3,1-2.3,2.4V42C32.6,42,31.9,42,31.9,42z M42.8,44.1c-1.1,0-2.2-0.4-3-1l0.4-0.5
	c0.8,0.6,1.7,0.9,2.7,0.9c1.5,0,2.6-0.9,2.6-2.6v-1c-0.6,0.8-1.5,1.5-2.8,1.5c-1.6,0-3.2-1.2-3.2-3.1v0c0-1.9,1.6-3.1,3.2-3.1
	c1.3,0,2.2,0.7,2.8,1.5v-1.3H46V41c0,1-0.3,1.7-0.8,2.2C44.6,43.8,43.8,44.1,42.8,44.1z M42.7,40.9c1.4,0,2.7-1,2.7-2.5v0
	c0-1.5-1.4-2.5-2.7-2.5c-1.4,0-2.6,1-2.6,2.5v0C40.1,39.9,41.3,40.9,42.7,40.9z M48.5,33.6v-0.9h0.8v0.9H48.5z M48.6,42v-6.6h0.6V42
	H48.6z M51.7,42v-6.6h0.6v1.2c0.4-0.8,1.2-1.4,2.4-1.4c1.7,0,2.7,1.1,2.7,2.7V42h-0.6v-3.9c0-1.4-0.8-2.3-2.1-2.3
	c-1.3,0-2.3,1-2.3,2.4V42H51.7z M62.5,42.2c-1.7,0-3.3-1.4-3.3-3.5v0c0-1.9,1.4-3.5,3.1-3.5c1.9,0,3,1.5,3,3.5c0,0.1,0,0.2,0,0.3
	h-5.5c0.1,1.7,1.3,2.6,2.6,2.6c1,0,1.7-0.5,2.3-1l0.4,0.4C64.5,41.6,63.7,42.2,62.5,42.2z M59.9,38.4h4.8c-0.1-1.3-0.9-2.6-2.4-2.6
	C61,35.8,60,36.9,59.9,38.4z M70.1,42.2c-1.7,0-3.3-1.4-3.3-3.5v0c0-1.9,1.4-3.5,3.1-3.5c1.9,0,3,1.5,3,3.5c0,0.1,0,0.2,0,0.3h-5.5
	c0.1,1.7,1.3,2.6,2.6,2.6c1,0,1.7-0.5,2.3-1l0.4,0.4C72.1,41.6,71.3,42.2,70.1,42.2z M67.5,38.4h4.8c-0.1-1.3-0.9-2.6-2.4-2.6
	C68.6,35.8,67.6,36.9,67.5,38.4z M74.9,42v-6.6h0.6v1.9c0.5-1.2,1.6-2,2.9-2V36h-0.1c-1.5,0-2.9,1.2-2.9,3.3V42H74.9z M80.1,33.6
	v-0.9h0.8v0.9H80.1z M80.1,42v-6.6h0.6V42H80.1z M83.3,42v-6.6h0.6v1.2c0.4-0.8,1.2-1.4,2.4-1.4c1.7,0,2.7,1.1,2.7,2.7V42h-0.6v-3.9
	c0-1.4-0.8-2.3-2.1-2.3c-1.3,0-2.3,1-2.3,2.4V42C83.9,42,83.3,42,83.3,42z M94.2,44.1c-1.1,0-2.2-0.4-3-1l0.4-0.5
	c0.8,0.6,1.7,0.9,2.7,0.9c1.5,0,2.6-0.9,2.6-2.6v-1c-0.6,0.8-1.5,1.5-2.8,1.5c-1.6,0-3.2-1.2-3.2-3.1v0c0-1.9,1.6-3.1,3.2-3.1
	c1.3,0,2.2,0.7,2.8,1.5v-1.3h0.6V41c0,1-0.3,1.7-0.8,2.2C96,43.8,95.1,44.1,94.2,44.1z M94.1,40.9c1.4,0,2.7-1,2.7-2.5v0
	c0-1.5-1.4-2.5-2.7-2.5c-1.4,0-2.6,1-2.6,2.5v0C91.5,39.9,92.7,40.9,94.1,40.9z M1.4,58v-9.1h0.7V58H1.4z M4.8,58v-6.6h0.6v1.2
	c0.4-0.8,1.2-1.4,2.4-1.4c1.7,0,2.7,1.1,2.7,2.7V58H9.8v-3.9c0-1.4-0.8-2.3-2.1-2.3c-1.3,0-2.3,1-2.3,2.4V58C5.4,58,4.8,58,4.8,58z
	 M12.7,58v-6.6h0.6v1.2c0.4-0.8,1.2-1.4,2.4-1.4c1.7,0,2.7,1.1,2.7,2.7V58h-0.6v-3.9c0-1.4-0.8-2.3-2.1-2.3c-1.3,0-2.3,1-2.3,2.4V58
	C13.4,58,12.7,58,12.7,58z M23.6,58.2c-2,0-3.4-1.6-3.4-3.4v0c0-1.9,1.4-3.5,3.4-3.5c2,0,3.4,1.6,3.4,3.4v0
	C27.1,56.5,25.6,58.2,23.6,58.2z M23.7,57.6c1.6,0,2.7-1.3,2.7-2.8v0c0-1.6-1.2-2.9-2.7-2.9c-1.6,0-2.7,1.3-2.7,2.8v0
	C20.9,56.3,22.1,57.6,23.7,57.6z M30.9,58.1l-3-6.7h0.7l2.5,5.9l2.5-5.9h0.7l-3,6.7C31.5,58.1,30.9,58.1,30.9,58.1z M37.9,58.2
	c-1.2,0-2.6-0.7-2.6-2.1v0c0-1.4,1.2-2.2,2.9-2.2c0.9,0,1.6,0.1,2.2,0.3v-0.3c0-1.3-0.8-2-2.2-2c-0.8,0-1.5,0.2-2.1,0.5l-0.2-0.6
	c0.7-0.3,1.4-0.6,2.4-0.6c0.9,0,1.6,0.2,2.1,0.7c0.4,0.4,0.7,1.1,0.7,1.9V58h-0.6v-1.1C40,57.5,39.2,58.2,37.9,58.2z M37.9,57.6
	c1.4,0,2.5-0.8,2.5-2v-0.8c-0.7-0.2-1.5-0.3-2.2-0.3c-1.4,0-2.2,0.6-2.2,1.5v0C36,57,36.9,57.6,37.9,57.6z M45.5,58.1
	c-1,0-1.9-0.6-1.9-1.8V52h-1v-0.6h1v-2.1h0.6v2.1h2.3V52h-2.3v4.3c0,0.9,0.6,1.3,1.3,1.3c0.3,0,0.6-0.1,1-0.2v0.6
	C46.2,58,45.9,58.1,45.5,58.1z M48.5,49.6v-0.9h0.8v0.9H48.5z M48.6,58v-6.6h0.6V58H48.6z M54.7,58.2c-2,0-3.4-1.6-3.4-3.4v0
	c0-1.9,1.4-3.5,3.4-3.5c2,0,3.4,1.6,3.4,3.4v0C58.1,56.5,56.6,58.2,54.7,58.2z M54.7,57.6c1.6,0,2.7-1.3,2.7-2.8v0
	c0-1.6-1.2-2.9-2.7-2.9c-1.6,0-2.7,1.3-2.7,2.8v0C51.9,56.3,53.1,57.6,54.7,57.6z M60,58v-6.6h0.6v1.2c0.4-0.8,1.2-1.4,2.4-1.4
	c1.7,0,2.7,1.1,2.7,2.7V58h-0.6v-3.9c0-1.4-0.8-2.3-2.1-2.3c-1.3,0-2.3,1-2.3,2.4V58C60.7,58,60,58,60,58z"/>
</svg>
