<svg xmlns="http://www.w3.org/2000/svg" width="135.4" height="116.2" viewBox="0 0 135.4 116.2">
  <g id="Zipper-Frac-Icon" transform="translate(-753.982 -1614)">
    <g id="Group_243" data-name="Group 243" transform="translate(753.982 1614)">
      <rect id="Rectangle_140" data-name="Rectangle 140" width="135.4" height="13.99" transform="translate(0 83.6)" fill="#0a78be"/>
      <g id="Group_241" data-name="Group 241">
        <path id="Path_196" data-name="Path 196" d="M36.7,116.2,11.1,90.6,36.7,65l7.4,7.4L26,90.6l18.1,18.1Z" fill="#0a78be"/>
        <path id="Path_197" data-name="Path 197" d="M76.5,116.2,50.9,90.6,76.5,65l7.4,7.4L65.7,90.6l18.2,18.1Z" fill="#0a78be"/>
        <path id="Path_198" data-name="Path 198" d="M116.2,116.2,90.7,90.6,116.2,65l7.5,7.4L105.5,90.6l18.2,18.1Z" fill="#0a78be"/>
      </g>
      <rect id="Rectangle_141" data-name="Rectangle 141" width="135.4" height="13.99" transform="translate(0 18.6)" fill="#0a78be"/>
      <g id="Group_242" data-name="Group 242">
        <path id="Path_199" data-name="Path 199" d="M36.7,51.2,11.1,25.6,36.7,0l7.4,7.4L26,25.6,44.1,43.8Z" fill="#0a78be"/>
        <path id="Path_200" data-name="Path 200" d="M76.5,51.2,50.9,25.6,76.5,0l7.4,7.4L65.7,25.6,83.9,43.8Z" fill="#0a78be"/>
        <path id="Path_201" data-name="Path 201" d="M116.2,51.2,90.7,25.6,116.2,0l7.5,7.4L105.5,25.6l18.2,18.2Z" fill="#0a78be"/>
      </g>
    </g>
  </g>
</svg>
