<svg xmlns="http://www.w3.org/2000/svg" xmlns:xlink="http://www.w3.org/1999/xlink" width="158" height="182" viewBox="0 0 158 182">
    <defs>
        <path id="a" d="M.032.157h97.244v80.787H.032z"/>
    </defs>
    <g fill="none" fill-rule="evenodd">
        <g fill="#565656">
            <path d="M24.428 96.608h6.948v1.195H25.64v3.791h5.686v1.187H25.64v4.756h5.686v1.195h-6.898V96.608zm8.852 3.157h1.153v1.607c.462-.615.973-1.076 1.533-1.38a3.767 3.767 0 0 1 1.83-.458c.67 0 1.265.17 1.784.511.52.34.903.8 1.15 1.376.247.577.37 1.476.37 2.695v4.616h-1.145v-4.278c0-1.033-.044-1.722-.132-2.068-.137-.594-.395-1.04-.774-1.34-.38-.3-.874-.449-1.484-.449-.698 0-1.323.231-1.875.693a3.243 3.243 0 0 0-1.092 1.714c-.11.445-.165 1.258-.165 2.44v3.288H33.28v-8.967zm10.293-3.462h1.154v5.069c.467-.615.98-1.076 1.541-1.38a3.75 3.75 0 0 1 1.822-.458c.67 0 1.265.17 1.784.511.52.34.902.798 1.15 1.372.247.574.37 1.474.37 2.7v4.615h-1.153v-4.278c0-1.033-.042-1.722-.124-2.068-.143-.594-.402-1.04-.779-1.34-.376-.3-.87-.449-1.48-.449-.697 0-1.322.231-1.874.693a3.243 3.243 0 0 0-1.092 1.714c-.11.44-.165 1.252-.165 2.44v3.288h-1.154V96.303zM62.753 99.765v8.967h-1.138v-1.542c-.483.588-1.026 1.03-1.627 1.327a4.401 4.401 0 0 1-1.974.445c-1.27 0-2.353-.46-3.252-1.38-.898-.92-1.347-2.04-1.347-3.359 0-1.29.453-2.395 1.36-3.313.906-.917 1.997-1.376 3.272-1.376.736 0 1.402.157 1.998.47.596.313 1.12.783 1.57 1.41v-1.65h1.138zm-4.616.882a3.482 3.482 0 0 0-3.078 1.805 3.643 3.643 0 0 0-.482 1.813c0 .632.162 1.236.486 1.813a3.54 3.54 0 0 0 1.306 1.347 3.414 3.414 0 0 0 1.76.482c.632 0 1.23-.159 1.797-.478a3.343 3.343 0 0 0 1.306-1.293c.305-.544.457-1.157.457-1.838 0-1.039-.342-1.907-1.026-2.605-.684-.697-1.526-1.046-2.526-1.046zm7.212-.882h1.153v1.607c.462-.615.973-1.076 1.533-1.38a3.767 3.767 0 0 1 1.83-.458c.67 0 1.265.17 1.784.511.52.34.903.8 1.15 1.376.247.577.37 1.476.37 2.695v4.616h-1.145v-4.278c0-1.033-.044-1.722-.132-2.068-.137-.594-.395-1.04-.774-1.34-.38-.3-.874-.449-1.484-.449-.698 0-1.323.231-1.875.693a3.243 3.243 0 0 0-1.092 1.714c-.11.445-.165 1.258-.165 2.44v3.288H65.35v-8.967zm18.996 1.862l-.914.57c-.792-1.05-1.871-1.575-3.24-1.575-1.093 0-2 .352-2.723 1.055-.723.703-1.084 1.558-1.084 2.563 0 .654.166 1.27.499 1.846a3.495 3.495 0 0 0 1.368 1.343c.58.32 1.23.478 1.949.478 1.319 0 2.395-.524 3.23-1.574l.915.602a4.314 4.314 0 0 1-1.726 1.496c-.723.354-1.545.531-2.469.531-1.417 0-2.593-.45-3.527-1.351-.934-.901-1.401-1.997-1.401-3.289 0-.868.218-1.674.655-2.418a4.616 4.616 0 0 1 1.801-1.744c.764-.417 1.618-.626 2.563-.626.594 0 1.166.09 1.718.272.553.181 1.021.418 1.406.709.384.291.711.662.98 1.112zm9.767 4.13l.972.51c-.319.627-.687 1.132-1.104 1.517a4.386 4.386 0 0 1-1.41.878c-.521.2-1.112.3-1.771.3-1.462 0-2.605-.479-3.429-1.438-.824-.959-1.236-2.042-1.236-3.251 0-1.137.349-2.151 1.046-3.041.885-1.132 2.07-1.698 3.553-1.698 1.527 0 2.747.58 3.659 1.739.648.819.978 1.84.989 3.066h-8.06c.022 1.044.354 1.9.997 2.567.643.668 1.437 1.001 2.382 1.001.456 0 .9-.08 1.33-.239.432-.159.799-.37 1.1-.634.303-.264.63-.69.982-1.278zm0-2.415c-.154-.616-.378-1.107-.672-1.476a3.178 3.178 0 0 0-1.166-.89 3.568 3.568 0 0 0-1.525-.338c-.879 0-1.634.283-2.266.85-.462.411-.81 1.03-1.047 1.854h6.676zM105.716 96.303v1.13c-.423-.182-.785-.273-1.087-.273-.226 0-.413.046-.56.136-.15.091-.243.196-.281.314-.039.118-.058.432-.058.943v1.212h1.871v.989h-1.879v7.978h-1.154v-7.978h-1.178v-.99h1.178v-1.4c0-.643.06-1.102.177-1.377.119-.274.32-.495.602-.663.283-.168.625-.251 1.026-.251.374 0 .821.077 1.343.23zm1.434 0h1.154v12.429h-1.154V96.303zM110.788 99.765h1.162v4.187c0 1.021.055 1.725.165 2.11.165.549.48.983.943 1.302.465.318 1.018.478 1.661.478s1.188-.156 1.636-.466c.448-.31.757-.718.927-1.224.116-.346.173-1.08.173-2.2v-4.187h1.179v4.4c0 1.237-.144 2.168-.433 2.795a3.305 3.305 0 0 1-1.302 1.47c-.58.355-1.306.532-2.18.532-.874 0-1.603-.177-2.188-.531a3.278 3.278 0 0 1-1.31-1.484c-.289-.634-.433-1.589-.433-2.864v-4.318zM121.45 96.073c.264 0 .49.093.676.28.187.187.28.412.28.676 0 .258-.093.48-.28.667a.921.921 0 0 1-.676.28.912.912 0 0 1-.667-.28.912.912 0 0 1-.28-.667c0-.264.093-.49.28-.676a.912.912 0 0 1 .667-.28zm-.577 3.692h1.163v8.967h-1.163v-8.967zM133.423 96.303v12.429h-1.137v-1.542c-.484.588-1.026 1.03-1.628 1.327a4.401 4.401 0 0 1-1.974.445c-1.269 0-2.353-.46-3.251-1.38-.898-.92-1.347-2.04-1.347-3.359 0-1.29.453-2.395 1.36-3.313.906-.917 1.997-1.376 3.271-1.376.737 0 1.403.157 1.999.47.596.313 1.12.783 1.57 1.41v-5.11h1.137zm-4.615 4.344a3.482 3.482 0 0 0-3.078 1.805 3.643 3.643 0 0 0-.482 1.813c0 .632.162 1.236.486 1.813a3.54 3.54 0 0 0 1.306 1.347 3.414 3.414 0 0 0 1.76.482c.632 0 1.23-.159 1.796-.478a3.343 3.343 0 0 0 1.307-1.293c.305-.544.457-1.157.457-1.838 0-1.039-.342-1.907-1.026-2.605-.684-.697-1.526-1.046-2.526-1.046zM45.165 116.507v12.428h-1.138v-1.54c-.483.587-1.026 1.03-1.627 1.326a4.401 4.401 0 0 1-1.974.445c-1.27 0-2.353-.46-3.252-1.38-.898-.92-1.347-2.04-1.347-3.359 0-1.29.453-2.395 1.36-3.313.906-.917 1.997-1.376 3.272-1.376.736 0 1.402.156 1.998.47.596.313 1.12.783 1.57 1.409v-5.11h1.138zm-4.616 4.343a3.482 3.482 0 0 0-3.078 1.805 3.643 3.643 0 0 0-.482 1.813c0 .632.162 1.237.486 1.814a3.54 3.54 0 0 0 1.306 1.347 3.414 3.414 0 0 0 1.76.482c.632 0 1.23-.16 1.797-.478a3.343 3.343 0 0 0 1.306-1.294c.305-.544.457-1.156.457-1.838 0-1.038-.342-1.906-1.026-2.604-.684-.698-1.526-1.047-2.526-1.047zm7.632-4.574c.264 0 .489.094.676.28.187.187.28.413.28.676 0 .259-.093.481-.28.668a.921.921 0 0 1-.676.28.912.912 0 0 1-.668-.28.912.912 0 0 1-.28-.668c0-.263.094-.489.28-.675a.912.912 0 0 1 .668-.28zm-.577 3.693h1.162v8.966h-1.162v-8.966zM55.829 120.95l-.742.766c-.615-.6-1.217-.899-1.805-.899-.373 0-.694.124-.96.371-.266.248-.4.536-.4.866 0 .29.11.568.33.832.22.27.681.585 1.385.948.857.445 1.44.873 1.747 1.286.302.417.453.887.453 1.409 0 .736-.258 1.36-.775 1.87-.516.512-1.162.767-1.936.767a3.38 3.38 0 0 1-1.48-.338 3.213 3.213 0 0 1-1.166-.931l.725-.824c.588.665 1.212.997 1.871.997.462 0 .854-.148 1.179-.445.324-.297.486-.646.486-1.047 0-.33-.107-.623-.322-.882-.214-.252-.697-.57-1.45-.956-.808-.417-1.357-.83-1.648-1.236a2.332 2.332 0 0 1-.437-1.393c0-.68.232-1.247.696-1.697.465-.45 1.051-.676 1.76-.676.824 0 1.654.404 2.489 1.211zM58.824 116.639h1.162v3.33h1.83v.989h-1.83v7.977h-1.162v-7.977H57.25v-.99h1.574zM63.02 119.969h1.178v1.31c.352-.516.723-.902 1.113-1.158.39-.255.796-.383 1.22-.383.318 0 .659.101 1.021.305l-.601.972c-.242-.104-.445-.156-.61-.156-.385 0-.755.158-1.113.474-.357.316-.629.806-.816 1.47-.142.512-.214 1.545-.214 3.1v3.032H63.02v-8.966zm5.917-3.693c.264 0 .49.094.676.28.187.187.28.413.28.676 0 .259-.093.481-.28.668a.921.921 0 0 1-.676.28.912.912 0 0 1-.667-.28.912.912 0 0 1-.28-.668c0-.263.093-.489.28-.675a.912.912 0 0 1 .667-.28zm-.577 3.693h1.162v8.966H68.36v-8.966zM72.156 128.935v-12.428H73.3v5.003c.484-.594 1.025-1.037 1.624-1.331a4.41 4.41 0 0 1 1.97-.441c1.269 0 2.352.46 3.25 1.38.9.92 1.348 2.037 1.348 3.35 0 1.297-.453 2.404-1.36 3.322-.906.917-1.997 1.376-3.271 1.376-.731 0-1.393-.156-1.987-.47-.593-.313-1.118-.783-1.574-1.409v1.648h-1.145zm4.615-.881a3.482 3.482 0 0 0 3.078-1.805 3.643 3.643 0 0 0-.004-3.635 3.54 3.54 0 0 0-1.306-1.347 3.399 3.399 0 0 0-1.752-.482c-.631 0-1.232.16-1.8.482a3.363 3.363 0 0 0-1.31 1.298c-.306.544-.458 1.156-.458 1.838 0 1.038.342 1.906 1.026 2.604.684.698 1.526 1.047 2.526 1.047zM83.326 119.969h1.162v4.186c0 1.022.055 1.726.165 2.11.165.55.48.984.944 1.302.464.319 1.018.478 1.66.478.643 0 1.189-.155 1.636-.465.448-.31.757-.719.928-1.224.115-.346.173-1.08.173-2.2v-4.187h1.178v4.4c0 1.237-.144 2.168-.433 2.794a3.305 3.305 0 0 1-1.302 1.472c-.58.354-1.306.531-2.18.531-.873 0-1.603-.177-2.188-.531a3.278 3.278 0 0 1-1.31-1.484c-.289-.634-.433-1.59-.433-2.864v-4.318zm11.415-3.33h1.162v3.33h1.83v.989h-1.83v7.977H94.74v-7.977h-1.574v-.99h1.574v-3.329zM99.626 116.276c.264 0 .49.094.676.28.187.187.28.413.28.676 0 .259-.093.481-.28.668a.921.921 0 0 1-.676.28.912.912 0 0 1-.667-.28.912.912 0 0 1-.28-.668c0-.263.093-.489.28-.675a.912.912 0 0 1 .667-.28zm-.577 3.693h1.162v8.966H99.05v-8.966zM106.893 119.738c1.38 0 2.522.5 3.429 1.5.824.912 1.236 1.992 1.236 3.239 0 1.252-.436 2.347-1.306 3.284-.871.937-1.99 1.405-3.359 1.405-1.373 0-2.496-.468-3.367-1.405-.87-.937-1.306-2.032-1.306-3.284 0-1.242.412-2.319 1.236-3.23.907-1.006 2.053-1.51 3.437-1.51zm0 1.129c-.956 0-1.777.354-2.464 1.063s-1.03 1.566-1.03 2.571c0 .649.156 1.253.47 1.814.313.56.736.993 1.269 1.298a3.473 3.473 0 0 0 1.755.457c.638 0 1.223-.152 1.756-.457a3.334 3.334 0 0 0 1.269-1.298c.313-.56.47-1.165.47-1.814 0-1.005-.345-1.862-1.035-2.57-.69-.71-1.51-1.064-2.46-1.064zM113.637 119.969h1.154v1.607c.461-.616.972-1.076 1.533-1.38a3.767 3.767 0 0 1 1.83-.458c.67 0 1.264.17 1.783.51.52.341.903.8 1.15 1.377.247.577.371 1.475.371 2.695v4.615h-1.146v-4.277c0-1.033-.044-1.722-.131-2.069-.138-.593-.396-1.04-.775-1.339-.38-.3-.874-.449-1.484-.449-.697 0-1.322.23-1.875.692a3.243 3.243 0 0 0-1.092 1.715c-.11.445-.164 1.258-.164 2.439v3.288h-1.154v-8.966z"/>
        </g>
        <path fill="#E7B2CE" d="M.974 166.057h3.508c2.261 0 3.941.28 5.04.84 1.1.56 2.004 1.47 2.716 2.732.711 1.26 1.067 2.733 1.067 4.416 0 1.198-.199 2.299-.597 3.302-.398 1.004-.947 1.837-1.648 2.5-.701.661-1.46 1.12-2.277 1.373-.817.253-2.233.38-4.248.38H.975v-15.543zm2.948 2.853v9.795h1.374c1.352 0 2.333-.155 2.943-.465.609-.31 1.107-.831 1.495-1.564.387-.732.58-1.634.58-2.705 0-1.648-.46-2.926-1.383-3.835-.832-.817-2.166-1.226-4.005-1.226H3.922zm13.007-3.54c.507 0 .942.184 1.305.55.363.366.544.81.544 1.331 0 .515-.18.953-.539 1.316a1.75 1.75 0 0 1-1.289.544c-.514 0-.952-.185-1.315-.555a1.852 1.852 0 0 1-.544-1.347c0-.507.18-.94.539-1.3.359-.359.792-.538 1.3-.538zm-1.447 4.734h2.895V181.6h-2.895v-11.496zm4.268 0h2.938l2.905 6.784 2.895-6.784h2.927L26.523 181.6h-1.87l-4.903-11.496zm24.873 6.583h-9.267c.134.817.492 1.467 1.073 1.95.581.482 1.322.723 2.224.723a3.846 3.846 0 0 0 2.779-1.13l2.43 1.14c-.606.86-1.331 1.496-2.176 1.908-.846.412-1.85.618-3.012.618-1.803 0-3.272-.569-4.406-1.706-1.134-1.138-1.701-2.563-1.701-4.274 0-1.754.565-3.21 1.696-4.37 1.13-1.158 2.548-1.738 4.253-1.738 1.81 0 3.282.58 4.416 1.739 1.134 1.158 1.701 2.689 1.701 4.59l-.01.55zm-2.895-2.272a2.894 2.894 0 0 0-1.126-1.564c-.56-.401-1.21-.602-1.949-.602-.803 0-1.507.226-2.113.676-.38.282-.733.779-1.057 1.49h6.245zm4.554-4.31h2.472v1.447c.268-.57.624-1.004 1.067-1.3.444-.296.93-.444 1.459-.444.373 0 .764.1 1.172.296l-.898 2.483c-.338-.169-.616-.253-.834-.253-.444 0-.82.274-1.126.824-.306.55-.46 1.627-.46 3.233l.011.56v4.65h-2.863v-11.497zm7.945-4.238h2.874v4.237h1.712v2.483h-1.712v9.013h-2.874v-9.013h-1.479v-2.483h1.48v-4.237zm17.656 10.82h-9.266c.134.817.491 1.467 1.072 1.95.582.482 1.323.723 2.225.723a3.846 3.846 0 0 0 2.778-1.13l2.43 1.14c-.605.86-1.33 1.496-2.176 1.908-.845.412-1.849.618-3.011.618-1.804 0-3.272-.569-4.406-1.706-1.134-1.138-1.702-2.563-1.702-4.274 0-1.754.566-3.21 1.696-4.37 1.13-1.158 2.549-1.738 4.253-1.738 1.81 0 3.283.58 4.417 1.739 1.134 1.158 1.7 2.689 1.7 4.59l-.01.55zm-2.895-2.272a2.894 2.894 0 0 0-1.125-1.564c-.56-.401-1.21-.602-1.95-.602-.802 0-1.507.226-2.113.676-.38.282-.732.779-1.056 1.49h6.244zm4.554-4.31h2.473v1.447c.267-.57.623-1.004 1.067-1.3.444-.296.93-.444 1.458-.444.373 0 .764.1 1.173.296l-.898 2.483c-.338-.169-.617-.253-.835-.253-.444 0-.819.274-1.125.824-.307.55-.46 1.627-.46 3.233l.01.56v4.65h-2.863v-11.497zm16.06-1.934l-2.186 1.933c-.768-1.07-1.55-1.606-2.346-1.606-.388 0-.705.104-.951.312-.247.208-.37.442-.37.703 0 .26.088.507.264.74.24.31.962.975 2.166 1.996 1.127.944 1.81 1.54 2.05 1.786.599.606 1.023 1.185 1.273 1.738.25.553.375 1.157.375 1.812 0 1.275-.44 2.328-1.32 3.16-.88.83-2.029 1.246-3.445 1.246-1.106 0-2.07-.271-2.89-.813-.82-.543-1.523-1.395-2.108-2.557l2.483-1.5c.747 1.373 1.606 2.06 2.579 2.06.507 0 .933-.148 1.278-.444.345-.296.518-.638.518-1.025 0-.352-.13-.705-.391-1.057-.26-.352-.835-.89-1.722-1.616-1.691-1.381-2.783-2.446-3.276-3.197-.493-.75-.74-1.498-.74-2.245 0-1.078.41-2.002 1.231-2.773.821-.772 1.834-1.157 3.038-1.157.775 0 1.513.18 2.214.538.7.36 1.46 1.015 2.277 1.966zm17.392.623l-2.07 1.976c-1.41-1.486-2.994-2.23-4.755-2.23-1.487 0-2.739.508-3.756 1.522-1.018 1.014-1.527 2.265-1.527 3.751 0 1.035.225 1.955.676 2.758a4.843 4.843 0 0 0 1.912 1.891c.825.458 1.74.687 2.748.687.859 0 1.644-.16 2.356-.48.711-.321 1.493-.904 2.346-1.75l2.007 2.092c-1.148 1.12-2.233 1.897-3.254 2.33-1.022.434-2.187.65-3.498.65-2.416 0-4.393-.766-5.932-2.298-1.54-1.532-2.31-3.496-2.31-5.89 0-1.55.351-2.927 1.052-4.132.701-1.204 1.705-2.173 3.011-2.906a8.492 8.492 0 0 1 4.222-1.098c1.282 0 2.516.27 3.703.813a8.857 8.857 0 0 1 3.07 2.314zm7.323-2.737h3l5.981 15.543h-3.075l-1.215-3.201h-6.34l-1.267 3.201h-3.075l5.99-15.543zm1.521 4.121l-2.07 5.336h4.13l-2.06-5.336zm9.763-4.12h2.832l6.667 10.227v-10.228h2.959V181.6h-2.842l-6.657-10.196V181.6H125.6v-15.543zM140.05 174.9l.784-.471c.551 1.016 1.189 1.523 1.912 1.523.31 0 .6-.072.871-.216a1.53 1.53 0 0 0 .621-.58 1.5 1.5 0 0 0 .213-.771c0-.31-.104-.612-.313-.909-.289-.41-.815-.903-1.58-1.48-.77-.58-1.248-1-1.436-1.26a2.304 2.304 0 0 1-.489-1.41c0-.401.096-.767.289-1.097.192-.33.462-.59.811-.78a2.34 2.34 0 0 1 1.138-.286c.435 0 .841.107 1.22.323.378.215.778.611 1.2 1.188l-.752.57c-.347-.46-.643-.763-.887-.909a1.529 1.529 0 0 0-.8-.22c-.371 0-.676.114-.912.34a1.108 1.108 0 0 0-.354.833c0 .2.042.395.125.583.084.188.237.393.458.615.121.117.518.424 1.191.921.799.59 1.346 1.114 1.643 1.574.297.46.445.921.445 1.385 0 .669-.254 1.25-.762 1.743-.508.493-1.125.74-1.852.74-.56 0-1.068-.15-1.524-.448-.455-.3-.875-.8-1.26-1.502zM146.939 176.617l1.31-9.222h.15l3.75 7.567 3.71-7.567h.151l1.323 9.222h-.91l-.902-6.595-3.26 6.595h-.232l-3.304-6.646-.896 6.646z"/>
        <g transform="translate(29.874 .459)">
            <mask id="b" fill="#fff">
                <use xlink:href="#a"/>
            </mask>
            <path fill="#E0A0C3" d="M87.868.145V16.13a9.921 9.921 0 0 1-9.937 9.943c-5.676 0-10.115-4.44-10.115-9.943H58.59a9.923 9.923 0 0 1-9.934 9.943c-5.502 0-10.116-4.44-10.116-9.943h-9.228a9.923 9.923 0 0 1-9.937 9.943c-4.966 0-9.049-3.552-9.935-8.168V.145H.032v80.8H9.44V66.028c3.017 1.775 6.386 2.84 9.935 2.84 5.856 0 11.003-2.662 14.553-6.925 3.548 4.263 8.872 6.925 14.728 6.925 5.855 0 11-2.662 14.55-6.925 3.546 4.263 8.87 6.925 14.726 6.925 3.552 0 7.098-1.065 9.937-2.84v14.915h9.408V.145h-9.408zm-9.937 59.49c-5.676 0-10.115-4.617-10.115-10.122H58.59c0 5.505-4.434 10.122-9.934 10.122-5.502 0-10.116-4.617-10.116-10.122h-9.228c0 5.505-4.434 10.122-9.937 10.122a10.108 10.108 0 0 1-9.935-8.17V32.643c3.017 1.597 6.386 2.663 9.935 2.663 5.856 0 11.003-2.663 14.553-6.748 3.548 4.085 8.872 6.748 14.728 6.748 5.855 0 11-2.663 14.55-6.748 3.546 4.085 8.87 6.748 14.726 6.748 3.552 0 7.098-1.066 9.937-2.841v17.048c0 5.505-4.433 10.122-9.937 10.122z" mask="url(#b)"/>
        </g>
    </g>
</svg>
