<svg xmlns="http://www.w3.org/2000/svg" width="119.8" height="99.97" viewBox="0 0 119.8 99.97">
  <g id="FracSCAN" transform="translate(-1509 -867)">
    <g id="FracSCAN-2" data-name="FracSCAN" transform="translate(1509 867)">
      <rect id="Rectangle_152" data-name="Rectangle 152" width="119.8" height="11.77" transform="translate(0 88.2)" fill="#826f82"/>
      <path id="Path_214" data-name="Path 214" d="M47.6,25.5,32.4,2,17.3,25.5h9.3V75.2H38.3V25.5Z" fill="#826f82"/>
      <path id="Path_215" data-name="Path 215" d="M98.5,63.3q-4,4.8-11.3,6v8.2h-8V69.6q-10.4-.9-17-7.4l5.9-9.1a19.4,19.4,0,0,0,6.3,4.6,18.5,18.5,0,0,0,7.9,1.7,8.5,8.5,0,0,0,6-2,6.6,6.6,0,0,0,2.2-5.1,6.4,6.4,0,0,0-2.4-5.2,32.2,32.2,0,0,0-7.3-4.2,81,81,0,0,1-8.7-4,17.3,17.3,0,0,1-5.7-5.2A14.7,14.7,0,0,1,64,25.1a16,16,0,0,1,4.1-10.9A17.8,17.8,0,0,1,79.2,8.4V0h8V8.3a24.6,24.6,0,0,1,14.2,6.2l-5.7,8.8a17.1,17.1,0,0,0-5.9-3.7,18.7,18.7,0,0,0-6.7-1.2A7.4,7.4,0,0,0,78,20.2a5.8,5.8,0,0,0-1.9,4.5,5.3,5.3,0,0,0,2.3,4.4,37,37,0,0,0,7.1,3.8A66.2,66.2,0,0,1,94.1,37a19,19,0,0,1,5.9,5.6,15.3,15.3,0,0,1,2.5,9,17.6,17.6,0,0,1-4,11.7Z" fill="#826f82"/>
    </g>
  </g>
</svg>
