<svg xmlns="http://www.w3.org/2000/svg" width="379.059" height="84.486" viewBox="0 0 379.059 84.486">
  <g id="Group_367" data-name="Group 367" transform="translate(-232 -1768.465)">
    <path id="Path_564" data-name="Path 564" d="M24.243,25.411H11.89V34H23.242v6.4H11.89V54H4V18.99H24.243ZM45.057,35.958A6.692,6.692,0,0,0,41.81,35.2a4.678,4.678,0,0,0-3.931,1.843,8.041,8.041,0,0,0-1.416,5.017V54H28.748V29h7.715v4.639h.1q1.831-5.078,6.592-5.078a4.968,4.968,0,0,1,1.9.293ZM68.946,54h-7.3V50.411h-.1a8.148,8.148,0,0,1-7.446,4.2,7.789,7.789,0,0,1-5.725-2.063,7.392,7.392,0,0,1-2.087-5.505q0-7.275,8.618-8.4l6.787-.9q0-4.1-4.443-4.1a15.167,15.167,0,0,0-8.5,2.661V30.489a19.114,19.114,0,0,1,4.407-1.465,23.165,23.165,0,0,1,5.09-.635q10.693,0,10.693,10.669ZM61.7,43.844V42.159l-4.541.586q-3.76.488-3.76,3.394A2.8,2.8,0,0,0,54.31,48.3a3.518,3.518,0,0,0,2.478.842,4.567,4.567,0,0,0,3.54-1.5A5.423,5.423,0,0,0,61.7,43.844ZM93.5,53.1q-2.612,1.514-7.544,1.514a12.758,12.758,0,0,1-9.326-3.491,12.058,12.058,0,0,1-3.564-9.009q0-6.372,3.821-10.046T87.1,28.39q4.419,0,6.4,1.172V36.1A8.8,8.8,0,0,0,88.1,34.3a7.109,7.109,0,0,0-5.261,1.941A7.242,7.242,0,0,0,80.9,41.6a7.124,7.124,0,0,0,1.855,5.212,6.819,6.819,0,0,0,5.1,1.892A10.183,10.183,0,0,0,93.5,46.9Zm3.7-.439V44.845a15.012,15.012,0,0,0,4.614,2.673,14.832,14.832,0,0,0,5.029.891,11.153,11.153,0,0,0,2.6-.269,6.09,6.09,0,0,0,1.855-.745,3.247,3.247,0,0,0,1.111-1.123,2.8,2.8,0,0,0,.366-1.4,3.035,3.035,0,0,0-.586-1.831,6.305,6.305,0,0,0-1.6-1.489,16.709,16.709,0,0,0-2.4-1.318q-1.392-.635-3-1.294a15.326,15.326,0,0,1-6.116-4.175A9.114,9.114,0,0,1,97.048,28.8a9.488,9.488,0,0,1,1.1-4.7,9.331,9.331,0,0,1,2.991-3.235A13.41,13.41,0,0,1,105.52,19a22.518,22.518,0,0,1,5.273-.6,31.718,31.718,0,0,1,4.846.33,19.059,19.059,0,0,1,3.894,1.013v7.3a11.775,11.775,0,0,0-1.917-1.074,15.184,15.184,0,0,0-2.136-.769,16.3,16.3,0,0,0-2.185-.452,15.465,15.465,0,0,0-2.063-.146,10.759,10.759,0,0,0-2.441.256,6.262,6.262,0,0,0-1.855.72,3.583,3.583,0,0,0-1.172,1.111,2.633,2.633,0,0,0-.415,1.453,2.774,2.774,0,0,0,.464,1.575,5.321,5.321,0,0,0,1.318,1.318,13.99,13.99,0,0,0,2.075,1.221q1.221.6,2.759,1.233a30.741,30.741,0,0,1,3.772,1.868,13.409,13.409,0,0,1,2.869,2.234,8.7,8.7,0,0,1,1.831,2.844,10.05,10.05,0,0,1,.635,3.723,9.973,9.973,0,0,1-1.111,4.919,9.019,9.019,0,0,1-3.015,3.223,13.075,13.075,0,0,1-4.431,1.77,25.609,25.609,0,0,1-5.334.537,29.662,29.662,0,0,1-5.481-.488A16.545,16.545,0,0,1,97.194,52.657Zm54.236.1a23.087,23.087,0,0,1-10.01,1.855q-8.057,0-12.671-4.736t-4.614-12.622q0-8.4,5.188-13.623T142.788,18.4a25.18,25.18,0,0,1,8.643,1.294v7.593a15.314,15.314,0,0,0-8.008-2.1,10.623,10.623,0,0,0-7.959,3.1,11.5,11.5,0,0,0-3.027,8.4,11.284,11.284,0,0,0,2.856,8.093,10.091,10.091,0,0,0,7.69,3.015,16.4,16.4,0,0,0,8.447-2.246ZM187.82,54h-8.594l-2.49-7.788H164.285L161.819,54h-8.545l12.744-35.01h9.351ZM174.93,40.157,171.17,28.39a15.336,15.336,0,0,1-.586-3.149h-.2a13.353,13.353,0,0,1-.61,3.052L165.97,40.157ZM223.185,54h-7.959L200.8,32a31.807,31.807,0,0,1-1.758-2.905h-.1q.2,1.855.2,5.664V54H191.69V18.99h8.5L214.078,40.3q.952,1.44,1.758,2.856h.1a37.433,37.433,0,0,1-.2-4.81V18.99h7.446ZM260.16,35.152h-2.637V23.482h-.1l-5.347,11.67h-1.44l-5.225-11.67h-.1v11.67h-2.49V18.99h3.1L251.42,31.1h.1l5.566-12.109h3.076Zm-30.737-3.564a5.861,5.861,0,0,0,1.917,1.025,7.192,7.192,0,0,0,2.307.391,5.776,5.776,0,0,0,1.135-.11,2.768,2.768,0,0,0,.952-.366,2,2,0,0,0,.647-.659,1.875,1.875,0,0,0,.244-.989,2.126,2.126,0,0,0-.146-.818,1.83,1.83,0,0,0-.513-.671,5.353,5.353,0,0,0-.952-.635q-.586-.317-1.465-.732-1.05-.488-1.831-.952a6.606,6.606,0,0,1-1.306-.989,3.475,3.475,0,0,1-.781-1.16,4.035,4.035,0,0,1-.256-1.514,4.335,4.335,0,0,1,.513-2.173,4.286,4.286,0,0,1,1.318-1.453,5.711,5.711,0,0,1,1.782-.806,7.4,7.4,0,0,1,1.88-.256q.464,0,1.038.037t1.135.122q.562.085,1.086.22a4.6,4.6,0,0,1,.916.33v2.637a5.286,5.286,0,0,0-.806-.415,8.01,8.01,0,0,0-1-.342,9.585,9.585,0,0,0-1.111-.232,7.7,7.7,0,0,0-1.135-.085,3.807,3.807,0,0,0-2.075.513,1.8,1.8,0,0,0-.806,1.636,1.738,1.738,0,0,0,.183.83,2.081,2.081,0,0,0,.525.623,4.416,4.416,0,0,0,.83.525q.488.244,1.123.537.83.391,1.648.818a7.927,7.927,0,0,1,1.477.989,4.546,4.546,0,0,1,1.062,1.306,3.668,3.668,0,0,1,.4,1.77,4.575,4.575,0,0,1-.415,1.978,4.3,4.3,0,0,1-1.172,1.5,5.3,5.3,0,0,1-1.819.952,7.836,7.836,0,0,1-2.332.33,10.39,10.39,0,0,1-2.319-.256,6.252,6.252,0,0,1-1.88-.72Z" transform="translate(341 1762.729)" fill="#826f82"/>
    <path id="Path_563" data-name="Path 563" d="M3.477,22H1.836V8H3.477Zm11.768,0h-1.6V16.3q0-3.184-2.324-3.184a2.521,2.521,0,0,0-1.987.9,3.348,3.348,0,0,0-.786,2.28V22h-1.6V12h1.6v1.66h.039a3.609,3.609,0,0,1,3.281-1.895,3.059,3.059,0,0,1,2.51,1.06,4.72,4.72,0,0,1,.869,3.062Zm9.834-.459a5.2,5.2,0,0,1-2.734.693,4.527,4.527,0,0,1-3.452-1.392,5.043,5.043,0,0,1-1.313-3.608,5.544,5.544,0,0,1,1.416-3.97,4.954,4.954,0,0,1,3.779-1.5,5.261,5.261,0,0,1,2.324.488v1.641a4.072,4.072,0,0,0-2.383-.781,3.22,3.22,0,0,0-2.515,1.1,4.169,4.169,0,0,0-.981,2.886,3.969,3.969,0,0,0,.923,2.773,3.181,3.181,0,0,0,2.476,1.016,4.014,4.014,0,0,0,2.461-.869Zm7.637-7.92A1.958,1.958,0,0,0,31.5,13.3a2.044,2.044,0,0,0-1.714.967A4.47,4.47,0,0,0,29.1,16.9V22H27.5V12h1.6v2.061h.039a3.492,3.492,0,0,1,1.045-1.646,2.383,2.383,0,0,1,1.572-.591,2.615,2.615,0,0,1,.957.137ZM42.49,17.4H35.43a3.74,3.74,0,0,0,.9,2.578,3.1,3.1,0,0,0,2.363.908A4.913,4.913,0,0,0,41.8,19.773v1.5a5.8,5.8,0,0,1-3.486.957,4.227,4.227,0,0,1-3.33-1.362,5.576,5.576,0,0,1-1.211-3.833,5.468,5.468,0,0,1,1.323-3.8,4.243,4.243,0,0,1,3.286-1.47,3.76,3.76,0,0,1,3.037,1.27,5.293,5.293,0,0,1,1.074,3.525ZM40.85,16.043a3.259,3.259,0,0,0-.669-2.158,2.279,2.279,0,0,0-1.831-.771,2.587,2.587,0,0,0-1.924.811,3.678,3.678,0,0,0-.977,2.119ZM52.07,22h-1.6V20.438H50.43a3.353,3.353,0,0,1-3.076,1.8,3.288,3.288,0,0,1-2.339-.791,2.741,2.741,0,0,1-.845-2.1q0-2.8,3.3-3.262l3-.42q0-2.549-2.061-2.549a4.923,4.923,0,0,0-3.262,1.23V12.7a6.2,6.2,0,0,1,3.4-.937q3.525,0,3.525,3.73Zm-1.6-5.059-2.412.332a3.916,3.916,0,0,0-1.68.552,1.591,1.591,0,0,0-.566,1.4,1.526,1.526,0,0,0,.522,1.2,2.019,2.019,0,0,0,1.392.464,2.571,2.571,0,0,0,1.968-.835,2.983,2.983,0,0,0,.776-2.114Zm4.014,4.7V19.92a4.74,4.74,0,0,0,2.881.967q2.109,0,2.109-1.406a1.22,1.22,0,0,0-.181-.679,1.8,1.8,0,0,0-.488-.493,3.759,3.759,0,0,0-.723-.386q-.415-.171-.894-.356a11.508,11.508,0,0,1-1.167-.532,3.525,3.525,0,0,1-.84-.605,2.253,2.253,0,0,1-.508-.767,2.712,2.712,0,0,1-.171-1.006,2.389,2.389,0,0,1,.322-1.245,2.858,2.858,0,0,1,.859-.908,4.007,4.007,0,0,1,1.226-.552,5.436,5.436,0,0,1,1.421-.186,5.737,5.737,0,0,1,2.324.449v1.621a4.53,4.53,0,0,0-2.539-.723,2.968,2.968,0,0,0-.811.1,1.984,1.984,0,0,0-.62.288,1.331,1.331,0,0,0-.4.444,1.17,1.17,0,0,0-.142.571,1.37,1.37,0,0,0,.142.654,1.44,1.44,0,0,0,.415.469,3.172,3.172,0,0,0,.664.371q.391.166.889.361a12.368,12.368,0,0,1,1.191.522,4.086,4.086,0,0,1,.9.605,2.366,2.366,0,0,1,.571.776,2.5,2.5,0,0,1,.2,1.045,2.464,2.464,0,0,1-.327,1.289,2.8,2.8,0,0,1-.874.908,4,4,0,0,1-1.26.537,6.22,6.22,0,0,1-1.494.176A5.674,5.674,0,0,1,54.482,21.639ZM71.611,17.4H64.551a3.74,3.74,0,0,0,.9,2.578,3.1,3.1,0,0,0,2.363.908,4.913,4.913,0,0,0,3.105-1.113v1.5a5.8,5.8,0,0,1-3.486.957,4.227,4.227,0,0,1-3.33-1.362,5.576,5.576,0,0,1-1.211-3.833,5.468,5.468,0,0,1,1.323-3.8,4.243,4.243,0,0,1,3.286-1.47,3.76,3.76,0,0,1,3.037,1.27,5.293,5.293,0,0,1,1.074,3.525Zm-1.641-1.357a3.259,3.259,0,0,0-.669-2.158,2.279,2.279,0,0,0-1.831-.771,2.587,2.587,0,0,0-1.924.811,3.678,3.678,0,0,0-.977,2.119Zm11.182,4.512h-.039V26.6h-1.6V12h1.6v1.758h.039a3.787,3.787,0,0,1,3.457-1.992,3.662,3.662,0,0,1,3.018,1.343,5.562,5.562,0,0,1,1.084,3.6,6.2,6.2,0,0,1-1.221,4.019,4.064,4.064,0,0,1-3.34,1.509A3.346,3.346,0,0,1,81.152,20.555Zm-.039-4.033v1.4a2.973,2.973,0,0,0,.806,2.1,2.874,2.874,0,0,0,4.326-.249,5.107,5.107,0,0,0,.825-3.1,4.032,4.032,0,0,0-.771-2.617,2.553,2.553,0,0,0-2.09-.947,2.838,2.838,0,0,0-2.246.972A3.568,3.568,0,0,0,81.113,16.521ZM98.428,22h-1.6V20.438h-.039a3.353,3.353,0,0,1-3.076,1.8,3.288,3.288,0,0,1-2.339-.791,2.741,2.741,0,0,1-.845-2.1q0-2.8,3.3-3.262l3-.42q0-2.549-2.061-2.549a4.923,4.923,0,0,0-3.262,1.23V12.7a6.2,6.2,0,0,1,3.4-.937q3.525,0,3.525,3.73Zm-1.6-5.059-2.412.332a3.916,3.916,0,0,0-1.68.552,1.591,1.591,0,0,0-.566,1.4,1.526,1.526,0,0,0,.522,1.2,2.019,2.019,0,0,0,1.392.464,2.571,2.571,0,0,0,1.968-.835,2.983,2.983,0,0,0,.776-2.114ZM109.98,22h-1.6V20.3h-.039a3.7,3.7,0,0,1-3.437,1.934,3.735,3.735,0,0,1-3.013-1.343,5.509,5.509,0,0,1-1.128-3.657,5.993,5.993,0,0,1,1.25-3.975,4.123,4.123,0,0,1,3.33-1.494,3.206,3.206,0,0,1,3,1.621h.039V7.2h1.6Zm-1.6-4.521V16a2.861,2.861,0,0,0-.8-2.051,2.686,2.686,0,0,0-2.031-.84,2.766,2.766,0,0,0-2.3,1.074,4.707,4.707,0,0,0-.84,2.969,4.234,4.234,0,0,0,.806,2.729,2.633,2.633,0,0,0,2.163,1,2.735,2.735,0,0,0,2.173-.967A3.6,3.6,0,0,0,108.379,17.479Zm17.139,4.063a5.2,5.2,0,0,1-2.734.693,4.527,4.527,0,0,1-3.452-1.392,5.043,5.043,0,0,1-1.313-3.608,5.544,5.544,0,0,1,1.416-3.97,4.954,4.954,0,0,1,3.779-1.5,5.261,5.261,0,0,1,2.324.488v1.641a4.072,4.072,0,0,0-2.383-.781,3.22,3.22,0,0,0-2.515,1.1,4.169,4.169,0,0,0-.981,2.886,3.969,3.969,0,0,0,.923,2.773,3.181,3.181,0,0,0,2.476,1.016,4.014,4.014,0,0,0,2.461-.869Zm6.6.693a4.638,4.638,0,0,1-3.54-1.4,5.191,5.191,0,0,1-1.323-3.716,5.407,5.407,0,0,1,1.377-3.936,4.95,4.95,0,0,1,3.721-1.416,4.485,4.485,0,0,1,3.491,1.377,5.46,5.46,0,0,1,1.255,3.818,5.372,5.372,0,0,1-1.353,3.833A4.739,4.739,0,0,1,132.119,22.234Zm.117-9.121a3.046,3.046,0,0,0-2.441,1.05,4.312,4.312,0,0,0-.9,2.9,4.078,4.078,0,0,0,.908,2.8,3.087,3.087,0,0,0,2.432,1.025,2.928,2.928,0,0,0,2.388-1.006,4.365,4.365,0,0,0,.835-2.861,4.44,4.44,0,0,0-.835-2.891A2.915,2.915,0,0,0,132.236,13.113ZM153.857,22h-1.6V16.258a4.332,4.332,0,0,0-.513-2.4,1.944,1.944,0,0,0-1.724-.742,2.134,2.134,0,0,0-1.743.938,3.586,3.586,0,0,0-.718,2.246V22h-1.6V16.063q0-2.949-2.275-2.949a2.108,2.108,0,0,0-1.738.884,3.653,3.653,0,0,0-.684,2.3V22h-1.6V12h1.6v1.582h.039a3.4,3.4,0,0,1,3.105-1.816,2.888,2.888,0,0,1,2.832,2.07,3.569,3.569,0,0,1,3.32-2.07q3.3,0,3.3,4.072Zm17.227,0h-1.6V16.258a4.332,4.332,0,0,0-.513-2.4,1.944,1.944,0,0,0-1.724-.742,2.134,2.134,0,0,0-1.743.938,3.586,3.586,0,0,0-.718,2.246V22h-1.6V16.063q0-2.949-2.275-2.949A2.108,2.108,0,0,0,159.17,14a3.653,3.653,0,0,0-.684,2.3V22h-1.6V12h1.6v1.582h.039a3.4,3.4,0,0,1,3.105-1.816,2.888,2.888,0,0,1,2.832,2.07,3.569,3.569,0,0,1,3.32-2.07q3.3,0,3.3,4.072Zm11.064-4.6h-7.061a3.74,3.74,0,0,0,.9,2.578,3.1,3.1,0,0,0,2.363.908,4.913,4.913,0,0,0,3.105-1.113v1.5a5.8,5.8,0,0,1-3.486.957,4.227,4.227,0,0,1-3.33-1.362,5.576,5.576,0,0,1-1.211-3.833,5.468,5.468,0,0,1,1.323-3.8,4.243,4.243,0,0,1,3.286-1.47,3.76,3.76,0,0,1,3.037,1.27,5.293,5.293,0,0,1,1.074,3.525Zm-1.641-1.357a3.259,3.259,0,0,0-.669-2.158,2.279,2.279,0,0,0-1.831-.771,2.587,2.587,0,0,0-1.924.811,3.678,3.678,0,0,0-.977,2.119Zm9.277-2.422a1.958,1.958,0,0,0-1.211-.322,2.044,2.044,0,0,0-1.714.967,4.47,4.47,0,0,0-.688,2.637V22h-1.6V12h1.6v2.061h.039a3.492,3.492,0,0,1,1.045-1.646,2.383,2.383,0,0,1,1.572-.591,2.615,2.615,0,0,1,.957.137Zm8.555,7.92a5.2,5.2,0,0,1-2.734.693,4.527,4.527,0,0,1-3.452-1.392,5.043,5.043,0,0,1-1.313-3.608,5.544,5.544,0,0,1,1.416-3.97,4.954,4.954,0,0,1,3.779-1.5,5.261,5.261,0,0,1,2.324.488v1.641a4.072,4.072,0,0,0-2.383-.781,3.22,3.22,0,0,0-2.515,1.1,4.169,4.169,0,0,0-.981,2.886,3.969,3.969,0,0,0,.923,2.773,3.181,3.181,0,0,0,2.476,1.016,4.014,4.014,0,0,0,2.461-.869Zm3.242-12.08a1.015,1.015,0,0,1-.732-.293.989.989,0,0,1-.3-.742,1.026,1.026,0,0,1,1.035-1.045,1.034,1.034,0,0,1,.747.3,1.043,1.043,0,0,1,0,1.479A1.025,1.025,0,0,1,201.582,9.461ZM202.363,22h-1.6V12h1.6Zm10.4,0h-1.6V20.438h-.039a3.353,3.353,0,0,1-3.076,1.8,3.288,3.288,0,0,1-2.339-.791,2.741,2.741,0,0,1-.845-2.1q0-2.8,3.3-3.262l3-.42q0-2.549-2.061-2.549a4.923,4.923,0,0,0-3.262,1.23V12.7a6.2,6.2,0,0,1,3.4-.937q3.525,0,3.525,3.73Zm-1.6-5.059-2.412.332a3.916,3.916,0,0,0-1.68.552,1.591,1.591,0,0,0-.566,1.4,1.526,1.526,0,0,0,.522,1.2,2.019,2.019,0,0,0,1.392.464,2.571,2.571,0,0,0,1.968-.835,2.983,2.983,0,0,0,.776-2.114ZM217.383,22h-1.6V7.2h1.6Zm16.582-10L229.98,22h-1.572l-3.789-10h1.758l2.539,7.266a6.522,6.522,0,0,1,.352,1.4h.039a6.6,6.6,0,0,1,.313-1.357l2.656-7.3Zm8.877,10h-1.6V20.438H241.2a3.353,3.353,0,0,1-3.076,1.8,3.288,3.288,0,0,1-2.339-.791,2.741,2.741,0,0,1-.845-2.1q0-2.8,3.3-3.262l3-.42q0-2.549-2.061-2.549a4.923,4.923,0,0,0-3.262,1.23V12.7a6.2,6.2,0,0,1,3.4-.937q3.525,0,3.525,3.73Zm-1.6-5.059-2.412.332a3.916,3.916,0,0,0-1.68.552,1.591,1.591,0,0,0-.566,1.4,1.526,1.526,0,0,0,.522,1.2,2.019,2.019,0,0,0,1.392.464,2.571,2.571,0,0,0,1.968-.835,2.983,2.983,0,0,0,.776-2.114ZM247.461,22h-1.6V7.2h1.6Zm11.328,0h-1.6V20.418h-.039a3.289,3.289,0,0,1-3.086,1.816q-3.574,0-3.574-4.258V12h1.592v5.723q0,3.164,2.422,3.164a2.45,2.45,0,0,0,1.929-.864,3.307,3.307,0,0,0,.757-2.261V12h1.6Zm11.27-4.6H263a3.74,3.74,0,0,0,.9,2.578,3.1,3.1,0,0,0,2.363.908,4.913,4.913,0,0,0,3.105-1.113v1.5a5.8,5.8,0,0,1-3.486.957,4.227,4.227,0,0,1-3.33-1.362,5.576,5.576,0,0,1-1.211-3.833,5.468,5.468,0,0,1,1.323-3.8,4.243,4.243,0,0,1,3.286-1.47,3.76,3.76,0,0,1,3.037,1.27,5.293,5.293,0,0,1,1.074,3.525Zm-1.641-1.357a3.259,3.259,0,0,0-.669-2.158,2.279,2.279,0,0,0-1.831-.771,2.587,2.587,0,0,0-1.924.811,3.678,3.678,0,0,0-.977,2.119Z" transform="translate(341 1826.351)" fill="#826f82"/>
    <g id="FracSCAN" transform="translate(277 1806.015)">
      <g id="FracSCAN-2" data-name="FracSCAN" transform="translate(-45 -37.551)">
        <rect id="Rectangle_152" data-name="Rectangle 152" width="90" height="8.842" transform="translate(0 66.26)" fill="#826f82"/>
        <path id="Path_214" data-name="Path 214" d="M40.063,19.654,28.644,2,17.3,19.654h6.987V56.992h8.79V19.654Z" transform="translate(-4.303 -0.497)" fill="#826f82"/>
        <path id="Path_215" data-name="Path 215" d="M89.47,47.554a13.423,13.423,0,0,1-8.489,4.508v6.16h-6.01V52.287A20.017,20.017,0,0,1,62.2,46.728l4.432-6.836a14.574,14.574,0,0,0,4.733,3.456A13.9,13.9,0,0,0,77.3,44.624a6.386,6.386,0,0,0,4.508-1.5A4.958,4.958,0,0,0,83.46,39.29a4.808,4.808,0,0,0-1.8-3.907,24.19,24.19,0,0,0-5.484-3.155,60.852,60.852,0,0,1-6.536-3.005,13,13,0,0,1-4.282-3.907,11.043,11.043,0,0,1-1.8-6.461,12.02,12.02,0,0,1,3.08-8.189,13.372,13.372,0,0,1,8.339-4.357V0h6.01V6.235a18.481,18.481,0,0,1,10.668,4.658L87.367,17.5a12.847,12.847,0,0,0-4.432-2.78,14.048,14.048,0,0,0-5.033-.9,5.559,5.559,0,0,0-3.831,1.352,4.357,4.357,0,0,0-1.427,3.381,3.982,3.982,0,0,0,1.728,3.306A27.8,27.8,0,0,0,79.7,24.716a49.733,49.733,0,0,1,6.461,3.08A14.274,14.274,0,0,1,90.6,32a11.494,11.494,0,0,1,1.878,6.761,13.222,13.222,0,0,1-3.005,8.79Z" transform="translate(-15.472)" fill="#826f82"/>
      </g>
    </g>
  </g>
</svg>
