<svg xmlns="http://www.w3.org/2000/svg" xmlns:xlink="http://www.w3.org/1999/xlink" width="447" height="83" viewBox="0 0 447 83"><defs><path id="z4u9a" d="M781.827 5415.55a6.476 6.476 0 1 1 12.952 0 6.476 6.476 0 0 1-12.952 0z"/><path id="z4u9b" d="M797.601 5406.998a6.476 6.476 0 1 1 12.952 0 6.476 6.476 0 0 1-12.952 0z"/><path id="z4u9c" d="M781.827 5398.447a6.476 6.476 0 1 1 12.952 0 6.476 6.476 0 0 1-12.952 0z"/><path id="z4u9d" d="M797.601 5389.812a6.476 6.476 0 1 1 12.952 0 6.476 6.476 0 0 1-12.952 0z"/><path id="z4u9e" d="M781.827 5381.26a6.476 6.476 0 1 1 12.952 0 6.476 6.476 0 0 1-12.952 0z"/><path id="z4u9f" d="M797.601 5372.709a6.476 6.476 0 1 1 12.952 0 6.476 6.476 0 0 1-12.952 0z"/><path id="z4u9g" d="M781.827 5364.157a6.476 6.476 0 1 1 12.952 0 6.476 6.476 0 0 1-12.952 0z"/><path id="z4u9h" d="M797.601 5354.028a6.476 6.476 0 1 1 12.952 0 6.476 6.476 0 0 1-12.952 0z"/><path id="z4u9i" d="M781.827 5345.476a6.476 6.476 0 1 1 12.952 0 6.476 6.476 0 0 1-12.952 0z"/><path id="z4u9j" d="M765.72 5345.476a6.476 6.476 0 1 1 12.952 0 6.476 6.476 0 0 1-12.953 0z"/><path id="z4u9k" d="M750.028 5354.028a6.476 6.476 0 1 1 12.952 0 6.476 6.476 0 0 1-12.952 0z"/><path id="z4u9l" d="M765.72 5364.157a6.476 6.476 0 1 1 12.952 0 6.476 6.476 0 0 1-12.953 0z"/><path id="z4u9m" d="M750.028 5372.709a6.476 6.476 0 1 1 12.952 0 6.476 6.476 0 0 1-12.952 0z"/><path id="z4u9n" d="M765.72 5381.26a6.476 6.476 0 1 1 12.952 0 6.476 6.476 0 0 1-12.953 0z"/><path id="z4u9o" d="M750.028 5389.812a6.476 6.476 0 1 1 12.952 0 6.476 6.476 0 0 1-12.952 0z"/><path id="z4u9p" d="M765.72 5398.447a6.476 6.476 0 1 1 12.952 0 6.476 6.476 0 0 1-12.953 0z"/><path id="z4u9q" d="M750.028 5406.998a6.476 6.476 0 1 1 12.952 0 6.476 6.476 0 0 1-12.952 0z"/><path id="z4u9r" d="M765.72 5415.55a6.476 6.476 0 1 1 12.952 0 6.476 6.476 0 0 1-12.953 0z"/><path id="z4u9s" d="M735 5363.493a6.476 6.476 0 1 1 12.952 0 6.476 6.476 0 0 1-12.952 0z"/><path id="z4u9t" d="M735 5380.596a6.476 6.476 0 1 1 12.952 0 6.476 6.476 0 0 1-12.952 0z"/><path id="z4u9u" d="M735 5397.782a6.476 6.476 0 1 1 12.952 0 6.476 6.476 0 0 1-12.952 0z"/><path id="z4u9v" d="M812.048 5363.493a6.476 6.476 0 1 1 12.952 0 6.476 6.476 0 0 1-12.952 0z"/><path id="z4u9w" d="M812.048 5380.596a6.476 6.476 0 1 1 12.952 0 6.476 6.476 0 0 1-12.952 0z"/><path id="z4u9x" d="M812.048 5397.782a6.476 6.476 0 1 1 12.952 0 6.476 6.476 0 0 1-12.952 0z"/></defs><g><g transform="translate(-735 -5339)"><g><g><text dominant-baseline="text-before-edge" style="line-height:56px;font-kerning:normal" fill="#5f0532" font-family="'Gotham','Gotham-Book'" font-size="50" letter-spacing="-.5" transform="translate(844 5337)"><tspan font-family="Gotham-Bold" font-style="none" font-weight="700">PerfSCAN</tspan><tspan font-family="'Lucida Grande','LucidaGrande'" font-style="none" font-weight="400">℠</tspan></text></g></g><g><g><text dominant-baseline="text-before-edge" style="line-height:30px;font-kerning:normal" fill="#5f0532" font-family="'Gotham','Gotham-Book'" font-size="20" transform="translate(844 5403)"><tspan>Improve cluster-spacing decisions</tspan></text></g></g><g><g><g><use fill="#5f0532" xlink:href="#z4u9a"/></g><g><use fill="#5f0532" xlink:href="#z4u9b"/></g><g><use fill="#5f0532" xlink:href="#z4u9c"/></g><g><use fill="#5f0532" xlink:href="#z4u9d"/></g><g><use fill="#5f0532" xlink:href="#z4u9e"/></g><g><use fill="#5f0532" xlink:href="#z4u9f"/></g><g><use fill="#5f0532" xlink:href="#z4u9g"/></g><g><use fill="#5f0532" xlink:href="#z4u9h"/></g><g><use fill="#5f0532" xlink:href="#z4u9i"/></g><g><use fill="#5f0532" xlink:href="#z4u9j"/></g><g><use fill="#5f0532" xlink:href="#z4u9k"/></g><g><use fill="#5f0532" xlink:href="#z4u9l"/></g><g><use fill="#5f0532" xlink:href="#z4u9m"/></g><g><use fill="#5f0532" xlink:href="#z4u9n"/></g><g><use fill="#5f0532" xlink:href="#z4u9o"/></g><g><use fill="#5f0532" xlink:href="#z4u9p"/></g><g><use fill="#5f0532" xlink:href="#z4u9q"/></g><g><use fill="#5f0532" xlink:href="#z4u9r"/></g><g><use fill="#5f0532" xlink:href="#z4u9s"/></g><g><use fill="#5f0532" xlink:href="#z4u9t"/></g><g><use fill="#5f0532" xlink:href="#z4u9u"/></g><g><use fill="#5f0532" xlink:href="#z4u9v"/></g><g><use fill="#5f0532" xlink:href="#z4u9w"/></g><g><use fill="#5f0532" xlink:href="#z4u9x"/></g></g></g></g></g></svg>