<?xml version="1.0" encoding="UTF-8"?>
<!DOCTYPE svg PUBLIC "-//W3C//DTD SVG 1.1//EN" "http://www.w3.org/Graphics/SVG/1.1/DTD/svg11.dtd">
<!-- Creator: CorelDRAW 2019 (64-Bit) -->
<svg xmlns="http://www.w3.org/2000/svg" xml:space="preserve" width="1158px" height="311px" version="1.1" style="shape-rendering:geometricPrecision; text-rendering:geometricPrecision; image-rendering:optimizeQuality; fill-rule:evenodd; clip-rule:evenodd"
viewBox="0 0 1158 311"
 xmlns:xlink="http://www.w3.org/1999/xlink">
 <defs>
  <style type="text/css">
   <![CDATA[
    .fil6 {fill:#231F20}
    .fil4 {fill:#231F20;fill-rule:nonzero}
    .fil3 {fill:url(#id0)}
    .fil5 {fill:url(#id1)}
    .fil0 {fill:url(#id2)}
    .fil1 {fill:url(#id3)}
    .fil2 {fill:url(#id4)}
   ]]>
  </style>
  <linearGradient id="id0" gradientUnits="userSpaceOnUse" x1="177" y1="43" x2="306" y2="43">
   <stop offset="0" style="stop-opacity:1; stop-color:#DC69A2"/>
   <stop offset="1" style="stop-opacity:1; stop-color:#A23276"/>
  </linearGradient>
  <linearGradient id="id1" gradientUnits="userSpaceOnUse" x1="207" y1="131" x2="206" y2="97">
   <stop offset="0" style="stop-opacity:1; stop-color:#9E3075"/>
   <stop offset="1" style="stop-opacity:1; stop-color:#D7619C"/>
  </linearGradient>
  <linearGradient id="id2" gradientUnits="userSpaceOnUse" x1="319" y1="37" x2="247" y2="-2">
   <stop offset="0" style="stop-opacity:1; stop-color:#B44484"/>
   <stop offset="1" style="stop-opacity:1; stop-color:#E572A9"/>
  </linearGradient>
  <linearGradient id="id3" gradientUnits="userSpaceOnUse" x1="149" y1="184" x2="81" y2="288">
   <stop offset="0" style="stop-opacity:1; stop-color:#A43478"/>
   <stop offset="1" style="stop-opacity:1; stop-color:#D3619B"/>
  </linearGradient>
  <linearGradient id="id4" gradientUnits="userSpaceOnUse" x1="103" y1="124" x2="40" y2="291">
   <stop offset="0" style="stop-opacity:1; stop-color:#9E3074"/>
   <stop offset="1" style="stop-opacity:1; stop-color:#9E3074"/>
  </linearGradient>
 </defs>
 <g id="Слой_x0020_1">
  <metadata id="CorelCorpID_0Corel-Layer"/>
  <path class="fil0" d="M316 80c-6,8 -14,15 -22,22 -21,18 -44,31 -69,42 3,-2 22,-14 28,-19 26,-20 37,-38 44,-54 11,-25 14,-52 -8,-59 -31,-10 -76,23 -122,57 30,-29 114,-89 158,-63 23,14 13,47 -9,73z"/>
  <path class="fil1" d="M67 223c3,-14 9,-28 16,-41 12,-21 29,-41 47,-57 22,-20 40,-34 69,-43 -7,3 -15,7 -22,10 -4,2 -7,4 -11,7 -5,3 -10,7 -15,11 -25,19 -87,82 -51,114 8,6 18,10 28,10 13,0 27,-2 40,-6 15,-5 29,-12 43,-20 14,-8 27,-18 38,-30 5,-5 9,-10 14,-15 -16,27 -40,53 -64,73 -8,7 -16,13 -24,19 -19,14 -44,26 -68,25 -34,-1 -46,-28 -39,-58z"/>
  <path class="fil2" d="M130 126c16,-14 35,-27 54,-37 -8,3 -17,6 -25,10 -7,4 -15,8 -22,12 -28,16 -54,37 -77,60 -14,14 -26,29 -37,46 -10,14 -16,29 -20,45 -1,4 -1,8 -1,12 0,9 2,17 8,23 8,9 20,13 36,13 19,-1 38,-5 55,-12 20,-8 43,-21 62,-33 -46,11 -70,12 -86,-3 -28,-26 9,-94 55,-137z"/>
  <path class="fil3" d="M295 77c2,-5 3,-10 4,-15 1,-6 -1,-12 -4,-17 -3,-5 -8,-9 -14,-11 -6,-2 -13,-4 -20,-3 -8,0 -16,1 -24,3 -9,2 -18,5 -26,9 -11,5 -24,12 -34,19 29,-28 60,-44 71,-48 15,-5 33,-5 43,-1 25,9 13,48 4,65z"/>
  <path class="fil4" d="M1138 16c11,0 19,9 19,19 0,11 -9,19 -19,19 -11,0 -19,-9 -19,-19 0,-11 9,-19 19,-19zm0 3c-9,0 -16,7 -16,16 0,9 7,16 16,16 9,0 16,-7 16,-16 0,-9 -7,-16 -16,-16zm-8 27l0 -21 7 0c4,0 9,1 9,6 0,3 -3,6 -6,6 3,1 5,6 7,9l-4 0c-3,-5 -3,-9 -10,-9l0 9 -3 0zm3 -12l4 0c2,0 5,0 5,-3 0,-3 -3,-3 -5,-3l-4 0 0 6z"/>
  <circle class="fil5" cx="204" cy="115" r="20"/>
  <path class="fil6" d="M399 55l45 0c1,0 2,0 2,0 11,0 22,4 31,12 7,7 10,16 10,26 0,0 0,1 0,1l0 1c0,1 0,1 0,2 0,16 -8,33 -26,35l28 48 -22 0 -26 -44c0,0 0,0 -1,0 0,0 0,0 -1,0l-20 0 0 44 -20 0 0 -124zm43 62c16,0 25,-8 25,-21l0 0c0,-14 -9,-21 -24,-21l-24 0 1 42 23 0z"/>
  <polygon class="fil6" points="527,55 605,55 605,74 547,74 547,108 598,108 598,126 547,126 547,161 606,161 606,179 527,179 "/>
  <polygon class="fil6" points="636,55 658,55 688,149 719,55 740,55 697,180 679,180 "/>
  <polygon class="fil6" points="776,55 853,55 853,74 796,74 796,108 847,108 847,126 796,126 796,161 854,161 854,179 776,179 "/>
  <path class="fil6" d="M930 55l20 0 45 124 -21 0 -10 -29 -48 0 -10 29 -21 0 46 -124zm27 77l-18 -50 -18 50 35 0z"/>
  <polygon class="fil6" points="1032,55 1052,55 1052,160 1105,160 1105,179 1032,179 "/>
  <polygon class="fil6" points="400,227 431,227 431,232 406,232 406,249 429,249 429,254 406,254 406,273 432,273 432,278 400,278 "/>
  <polygon class="fil6" points="449,227 454,227 481,267 481,227 486,227 486,278 482,278 455,237 455,278 449,278 "/>
  <polygon class="fil6" points="507,227 538,227 538,232 512,232 512,249 535,249 535,254 512,254 512,273 538,273 538,278 507,278 "/>
  <path class="fil6" d="M556 227c6,0 12,0 18,0 5,0 9,2 12,5 8,8 4,23 -8,25l14 21 -7 0 -13 -20 -12 0 0 20 -5 0 0 -51zm16 26c9,0 13,-5 13,-11 0,-5 -4,-10 -12,-10l-12 0 0 21 11 0z"/>
  <path class="fil6" d="M607 252l0 -1c0,-15 9,-26 23,-26 0,0 0,0 1,0 5,0 11,2 15,6l-3 4c-3,-3 -7,-5 -12,-5 0,0 0,0 0,0 -10,0 -17,9 -17,21l0 0c0,13 7,21 17,21 0,0 0,0 0,0 4,0 8,-1 11,-4l0 -14 -13 0 0 -5 18 0 0 22c-5,4 -11,6 -17,6 -14,0 -23,-11 -23,-26z"/>
  <polygon class="fil6" points="676,257 659,227 665,227 679,251 694,226 700,226 682,257 682,277 676,277 "/>
  <path class="fil6" d="M740 271l3 -4c4,4 9,6 14,6 0,0 1,0 1,0 5,0 9,-4 9,-9l0 0c0,-4 -2,-7 -11,-10 -11,-4 -15,-8 -15,-15l0 0c0,-8 7,-14 14,-14 0,0 1,0 1,0 0,0 0,0 0,0 6,0 11,2 15,6l-3 4c-3,-3 -8,-5 -12,-5 0,0 -1,0 -1,0 -4,0 -8,3 -9,8l0 0c0,4 2,7 12,10 10,4 14,8 14,15l0 0c0,8 -7,14 -16,14 0,0 0,0 0,0 -6,0 -13,-3 -17,-7l0 0z"/>
  <polygon class="fil6" points="791,227 822,227 822,232 797,232 797,249 820,249 820,254 797,254 797,273 823,273 823,278 791,278 "/>
  <path class="fil6" d="M840 227l17 0c0,0 1,0 1,0 5,0 9,2 12,5 8,8 4,23 -8,25l14 21 -7 0 -13 -20 -12 0 0 20 -5 0 0 -51zm17 26c8,0 12,-4 12,-11 0,-8 -5,-10 -12,-10l-12 0 0 21 12 0z"/>
  <polygon class="fil6" points="888,227 894,227 909,270 925,227 930,227 912,278 907,278 "/>
  <polygon class="fil6" points="947,227 952,227 952,278 947,278 "/>
  <path class="fil6" d="M993 226c0,0 0,0 0,0 6,0 11,2 15,6l-3 4c-3,-3 -8,-5 -12,-5 -22,0 -22,42 0,42 5,0 9,-2 12,-6l3 4c-4,4 -10,7 -16,7 0,0 0,0 0,0 -29,0 -29,-52 1,-52z"/>
  <polygon class="fil6" points="1026,227 1057,227 1057,232 1031,232 1031,249 1054,249 1054,254 1031,254 1031,273 1057,273 1057,278 1026,278 "/>
  <path class="fil6" d="M1071 271l3 -4c4,4 9,6 14,6 0,0 1,0 1,0 5,0 9,-4 9,-9l0 0c0,-4 -2,-7 -11,-10 -11,-4 -15,-8 -15,-15l0 0c0,-8 6,-13 15,-13 0,0 0,0 0,0 6,0 11,2 15,6l-3 4c-3,-3 -8,-5 -12,-5 0,0 -1,0 -1,0 -4,0 -8,3 -9,8l0 0c0,4 2,7 12,10 10,4 14,8 14,15l0 0c0,8 -7,14 -16,14 0,0 0,0 0,0 -6,0 -13,-3 -17,-7l0 0z"/>
 </g>
</svg>
