<svg xmlns="http://www.w3.org/2000/svg" width="108.4" height="100" viewBox="0 0 108.4 100">
  <g id="PerfSCAN" transform="translate(-1515 -867)">
    <g id="PerfSCAN-2" data-name="PerfSCAN" transform="translate(1515 867)">
      <circle id="Ellipse_98" data-name="Ellipse 98" cx="7.8" cy="7.8" r="7.8" transform="translate(56.4 84.4)" fill="#5f0532"/>
      <circle id="Ellipse_99" data-name="Ellipse 99" cx="7.8" cy="7.8" r="7.8" transform="translate(75.4 74.1)" fill="#5f0532"/>
      <circle id="Ellipse_100" data-name="Ellipse 100" cx="7.8" cy="7.8" r="7.8" transform="translate(56.4 63.8)" fill="#5f0532"/>
      <circle id="Ellipse_101" data-name="Ellipse 101" cx="7.8" cy="7.8" r="7.8" transform="translate(75.4 53.4)" fill="#5f0532"/>
      <circle id="Ellipse_102" data-name="Ellipse 102" cx="7.8" cy="7.8" r="7.8" transform="translate(56.4 43.1)" fill="#5f0532"/>
      <circle id="Ellipse_103" data-name="Ellipse 103" cx="7.8" cy="7.8" r="7.8" transform="translate(75.4 32.8)" fill="#5f0532"/>
      <circle id="Ellipse_104" data-name="Ellipse 104" cx="7.8" cy="7.8" r="7.8" transform="translate(56.4 22.5)" fill="#5f0532"/>
      <circle id="Ellipse_105" data-name="Ellipse 105" cx="7.8" cy="7.8" r="7.8" transform="translate(75.4 10.3)" fill="#5f0532"/>
      <circle id="Ellipse_106" data-name="Ellipse 106" cx="7.8" cy="7.8" r="7.8" transform="translate(56.4)" fill="#5f0532"/>
      <circle id="Ellipse_107" data-name="Ellipse 107" cx="7.8" cy="7.8" r="7.8" transform="translate(37)" fill="#5f0532"/>
      <circle id="Ellipse_108" data-name="Ellipse 108" cx="7.8" cy="7.8" r="7.8" transform="translate(18.1 10.3)" fill="#5f0532"/>
      <circle id="Ellipse_109" data-name="Ellipse 109" cx="7.8" cy="7.8" r="7.8" transform="translate(37 22.5)" fill="#5f0532"/>
      <circle id="Ellipse_110" data-name="Ellipse 110" cx="7.8" cy="7.8" r="7.8" transform="translate(18.1 32.8)" fill="#5f0532"/>
      <circle id="Ellipse_111" data-name="Ellipse 111" cx="7.8" cy="7.8" r="7.8" transform="translate(37 43.1)" fill="#5f0532"/>
      <circle id="Ellipse_112" data-name="Ellipse 112" cx="7.8" cy="7.8" r="7.8" transform="translate(18.1 53.4)" fill="#5f0532"/>
      <circle id="Ellipse_113" data-name="Ellipse 113" cx="7.8" cy="7.8" r="7.8" transform="translate(37 63.8)" fill="#5f0532"/>
      <circle id="Ellipse_114" data-name="Ellipse 114" cx="7.8" cy="7.8" r="7.8" transform="translate(18.1 74.1)" fill="#5f0532"/>
      <circle id="Ellipse_115" data-name="Ellipse 115" cx="7.8" cy="7.8" r="7.8" transform="translate(37 84.4)" fill="#5f0532"/>
      <circle id="Ellipse_116" data-name="Ellipse 116" cx="7.8" cy="7.8" r="7.8" transform="translate(0 21.7)" fill="#5f0532"/>
      <circle id="Ellipse_117" data-name="Ellipse 117" cx="7.8" cy="7.8" r="7.8" transform="translate(0 42.3)" fill="#5f0532"/>
      <circle id="Ellipse_118" data-name="Ellipse 118" cx="7.8" cy="7.8" r="7.8" transform="translate(0 63)" fill="#5f0532"/>
      <circle id="Ellipse_119" data-name="Ellipse 119" cx="7.8" cy="7.8" r="7.8" transform="translate(92.8 21.7)" fill="#5f0532"/>
      <circle id="Ellipse_120" data-name="Ellipse 120" cx="7.8" cy="7.8" r="7.8" transform="translate(92.8 42.3)" fill="#5f0532"/>
      <circle id="Ellipse_121" data-name="Ellipse 121" cx="7.8" cy="7.8" r="7.8" transform="translate(92.8 63)" fill="#5f0532"/>
    </g>
  </g>
</svg>
