<svg xmlns="http://www.w3.org/2000/svg" width="70" height="70" viewBox="0 0 70 70">
    <g fill="none" fill-rule="evenodd">
        <circle cx="35" cy="35" r="35" fill="#FFF"/>
        <path fill="#69364C" d="M28.372 22c.105 0 .205.013.302.04.096.025.192.056.288.09.096.035.188.079.276.13l19.308 11.664a1.536 1.536 0 0 1 .695.848c.062.183.092.37.092.561 0 .627-.262 1.096-.787 1.41L29.211 48.405a1.352 1.352 0 0 1-.406.195 1.627 1.627 0 0 1-.46.066c-.14 0-.28-.018-.42-.053a1.549 1.549 0 0 1-.393-.156c-.577-.33-.865-.818-.865-1.461l.026-23.327c0-.644.288-1.13.866-1.461.244-.14.516-.209.813-.209z"/>
    </g>
</svg>
