<svg xmlns="http://www.w3.org/2000/svg" width="172" height="188" viewBox="0 0 172 188">
    <g fill="none" fill-rule="evenodd">
        <g fill="#AD3984">
            <path d="M.955 167.937h3.138c1.698 0 2.922.157 3.672.47.75.314 1.342.82 1.775 1.522.433.7.65 1.54.65 2.52 0 1.084-.284 1.986-.85 2.705-.568.718-1.337 1.218-2.31 1.5-.57.162-1.609.243-3.116.243v6.583H.955v-15.543zm2.959 6.075h.94c.74 0 1.254-.052 1.543-.158.289-.106.516-.28.681-.523.166-.243.249-.537.249-.882 0-.6-.233-1.036-.698-1.31-.338-.205-.965-.307-1.88-.307h-.835v3.18zm8.178-2.028h2.472v1.447c.268-.57.624-1.003 1.068-1.3.443-.295.93-.443 1.458-.443.373 0 .764.099 1.172.296l-.898 2.483c-.338-.17-.616-.254-.834-.254-.444 0-.82.275-1.126.824-.306.55-.46 1.628-.46 3.234l.011.56v4.649h-2.863v-11.496zm12.996-.296c1.085 0 2.105.271 3.06.814a5.877 5.877 0 0 1 2.234 2.208c.535.93.803 1.933.803 3.011 0 1.085-.27 2.1-.808 3.043a5.832 5.832 0 0 1-2.204 2.214c-.93.532-1.954.798-3.074.798-1.649 0-3.056-.587-4.221-1.76-1.166-1.173-1.75-2.597-1.75-4.274 0-1.796.66-3.293 1.977-4.49 1.155-1.043 2.483-1.564 3.983-1.564zm.042 2.715c-.894 0-1.64.312-2.234.936-.596.623-.893 1.42-.893 2.393 0 1 .294 1.81.882 2.43.588.62 1.333.93 2.235.93.902 0 1.652-.314 2.25-.94.6-.628.899-1.434.899-2.42s-.295-1.788-.883-2.404c-.588-.616-1.34-.925-2.256-.925zm11.274-2.42v1.269a5.424 5.424 0 0 1 1.691-1.173 4.867 4.867 0 0 1 1.944-.391c1.5 0 2.776.567 3.825 1.701 1.05 1.134 1.574 2.589 1.574 4.364 0 1.712-.542 3.143-1.627 4.295-1.085 1.152-2.37 1.728-3.856 1.728a4.79 4.79 0 0 1-1.85-.354c-.57-.236-1.137-.622-1.7-1.157v5.42H33.54v-15.701h2.863zm3.033 2.368c-.909 0-1.662.31-2.261.93-.599.62-.898 1.43-.898 2.43 0 1.021.299 1.847.898 2.477.599.63 1.352.946 2.26.946.881 0 1.623-.32 2.225-.962.602-.64.903-1.458.903-2.45 0-.987-.295-1.795-.887-2.426-.592-.63-1.338-.945-2.24-.945zm11.253-2.367v1.268a5.424 5.424 0 0 1 1.69-1.173 4.867 4.867 0 0 1 1.945-.391c1.5 0 2.775.567 3.824 1.701 1.05 1.134 1.575 2.589 1.575 4.364 0 1.712-.543 3.143-1.627 4.295-1.085 1.152-2.37 1.728-3.857 1.728a4.79 4.79 0 0 1-1.85-.354c-.57-.236-1.137-.622-1.7-1.157v5.42h-2.864v-15.701h2.864zm3.032 2.367c-.908 0-1.662.31-2.26.93-.6.62-.899 1.43-.899 2.43 0 1.021.3 1.847.898 2.477.599.63 1.353.946 2.261.946.88 0 1.622-.32 2.224-.962.603-.64.904-1.458.904-2.45 0-.987-.296-1.795-.888-2.426-.591-.63-1.338-.945-2.24-.945zm16.885-2.367h2.874v11.496h-2.874v-1.215c-.564.535-1.129.92-1.696 1.157a4.751 4.751 0 0 1-1.844.354c-1.486 0-2.772-.576-3.856-1.728-1.085-1.152-1.628-2.583-1.628-4.295 0-1.775.525-3.23 1.575-4.364 1.05-1.134 2.324-1.701 3.825-1.701.69 0 1.338.13 1.944.39.606.262 1.166.652 1.68 1.174v-1.268zm-3.033 2.367c-.894 0-1.637.315-2.229.945-.592.63-.888 1.439-.888 2.425 0 .993.302 1.81.904 2.451a2.932 2.932 0 0 0 2.224.962c.909 0 1.662-.315 2.261-.946.599-.63.898-1.456.898-2.477 0-1-.3-1.81-.898-2.43-.599-.62-1.356-.93-2.272-.93zm8.823-2.367h2.874v1.173c.655-.55 1.249-.932 1.78-1.147a4.322 4.322 0 0 1 1.633-.322c1.141 0 2.11.398 2.906 1.194.669.676 1.003 1.676 1.003 3v7.598h-2.852v-5.04c0-1.374-.062-2.286-.185-2.737-.124-.45-.338-.794-.645-1.03-.306-.236-.685-.354-1.136-.354a2.13 2.13 0 0 0-1.505.586c-.42.391-.71.932-.872 1.622-.085.36-.127 1.138-.127 2.335v4.618h-2.874v-11.496zm13.334-4.237h2.874v4.237h1.712v2.483h-1.712v9.013h-2.874v-9.013h-1.479v-2.483h1.48v-4.237zm14.603 2.303l-2.187 1.934c-.768-1.07-1.55-1.606-2.346-1.606-.387 0-.704.104-.951.311-.247.208-.37.442-.37.703 0 .26.088.507.264.74.24.31.962.975 2.166 1.997 1.127.944 1.81 1.539 2.05 1.785.599.606 1.023 1.186 1.273 1.738.25.553.376 1.157.376 1.813 0 1.275-.44 2.328-1.321 3.159-.88.831-2.029 1.247-3.445 1.247-1.106 0-2.069-.272-2.89-.814-.82-.542-1.523-1.395-2.108-2.557l2.484-1.5c.746 1.373 1.606 2.06 2.578 2.06.507 0 .933-.148 1.278-.444.345-.296.518-.637.518-1.025 0-.352-.13-.704-.391-1.056-.26-.352-.835-.891-1.722-1.617-1.69-1.38-2.783-2.446-3.276-3.196-.493-.75-.74-1.499-.74-2.245 0-1.078.41-2.003 1.231-2.774.821-.771 1.834-1.157 3.038-1.157.775 0 1.513.18 2.214.539.7.36 1.46 1.014 2.277 1.965zm17.392.624l-2.071 1.975c-1.41-1.486-2.994-2.229-4.755-2.229-1.486 0-2.738.507-3.756 1.522-1.018 1.014-1.527 2.264-1.527 3.75 0 1.036.225 1.955.676 2.758a4.843 4.843 0 0 0 1.913 1.892c.824.457 1.74.686 2.747.686.86 0 1.645-.16 2.356-.48.711-.32 1.493-.904 2.346-1.75l2.007 2.093c-1.148 1.12-2.233 1.897-3.254 2.33-1.022.433-2.187.65-3.498.65-2.416 0-4.393-.766-5.932-2.298-1.54-1.533-2.31-3.496-2.31-5.891 0-1.55.351-2.927 1.052-4.131.701-1.205 1.705-2.174 3.012-2.906a8.492 8.492 0 0 1 4.22-1.099c1.283 0 2.517.271 3.704.814a8.857 8.857 0 0 1 3.07 2.314zm7.322-2.737h3l5.981 15.543h-3.075l-1.215-3.202h-6.34l-1.267 3.202h-3.075l5.99-15.543zm1.521 4.12l-2.07 5.337h4.13l-2.06-5.336zm9.763-4.12h2.832l6.667 10.228v-10.228h2.959v15.543h-2.842l-6.657-10.197v10.197h-2.959v-15.543zM154.675 176.786l.784-.47c.552 1.016 1.189 1.524 1.912 1.524.31 0 .6-.072.871-.217a1.53 1.53 0 0 0 .621-.58 1.5 1.5 0 0 0 .213-.77c0-.31-.104-.613-.313-.91-.289-.41-.815-.902-1.58-1.48-.77-.58-1.248-1-1.436-1.26a2.304 2.304 0 0 1-.489-1.41c0-.401.096-.767.289-1.097.192-.33.463-.59.812-.78a2.34 2.34 0 0 1 1.137-.286c.435 0 .842.108 1.22.323.378.215.778.611 1.2 1.188l-.752.57c-.347-.46-.643-.762-.887-.908a1.529 1.529 0 0 0-.8-.22c-.371 0-.675.113-.912.339a1.108 1.108 0 0 0-.354.833c0 .201.042.395.126.583.083.189.236.393.457.615.121.117.519.424 1.191.921.799.59 1.346 1.114 1.643 1.574.297.46.445.922.445 1.386 0 .668-.254 1.25-.762 1.742-.507.494-1.125.74-1.852.74-.56 0-1.068-.15-1.524-.448-.455-.299-.875-.8-1.26-1.502zM161.422 178.504l1.31-9.222h.151l3.75 7.567 3.71-7.567h.151l1.323 9.222h-.91l-.902-6.595-3.26 6.595h-.232l-3.304-6.645-.896 6.645z"/>
        </g>
        <g fill="#565656">
            <path d="M17.64 98.473c1.836 0 3.371.612 4.608 1.838 1.236 1.225 1.854 2.733 1.854 4.524 0 1.775-.617 3.28-1.85 4.517-1.234 1.236-2.738 1.854-4.512 1.854-1.797 0-3.314-.615-4.55-1.846-1.236-1.23-1.854-2.72-1.854-4.467 0-1.165.281-2.244.845-3.239a6.15 6.15 0 0 1 2.303-2.336 6.191 6.191 0 0 1 3.157-.845zm.058 1.187c-.895 0-1.744.233-2.546.7a5.037 5.037 0 0 0-1.88 1.887c-.45.792-.675 1.674-.675 2.646 0 1.44.498 2.655 1.496 3.647.997.992 2.199 1.487 3.605 1.487.94 0 1.81-.228 2.609-.684a4.896 4.896 0 0 0 1.87-1.87c.448-.792.672-1.67.672-2.638 0-.961-.224-1.83-.671-2.608a5.018 5.018 0 0 0-1.892-1.867 5.116 5.116 0 0 0-2.588-.7zm8.662 2.274h1.146v1.649c.456-.627.98-1.097 1.574-1.41a4.189 4.189 0 0 1 1.986-.47c1.275 0 2.365.46 3.272 1.377.907.917 1.36 2.022 1.36 3.313 0 1.319-.45 2.438-1.348 3.358-.898.92-1.982 1.38-3.25 1.38-.715 0-1.372-.147-1.97-.444-.6-.297-1.14-.74-1.624-1.327v4.821H26.36v-12.247zm4.615.882c-1 0-1.841.349-2.526 1.047-.684.698-1.026 1.566-1.026 2.604 0 .681.153 1.294.458 1.838.305.544.742.975 1.31 1.294a3.63 3.63 0 0 0 1.801.478c.62 0 1.205-.16 1.751-.482a3.54 3.54 0 0 0 1.307-1.348 3.65 3.65 0 0 0 .486-1.813c0-.637-.16-1.242-.482-1.813a3.475 3.475 0 0 0-3.079-1.805zM38.909 98.605h1.162v3.33h1.83v.988h-1.83v7.978h-1.162v-7.978h-1.574v-.989h1.574zM43.945 98.242c.263 0 .489.093.675.28.187.187.28.412.28.676 0 .258-.093.48-.28.668a.921.921 0 0 1-.675.28.912.912 0 0 1-.668-.28.912.912 0 0 1-.28-.668c0-.264.093-.489.28-.676a.912.912 0 0 1 .668-.28zm-.577 3.692h1.162v8.967h-1.162v-8.967zM47.11 101.934h1.146v1.55c.401-.572.814-.99 1.237-1.253a3.502 3.502 0 0 1 1.837-.527c.435 0 .847.085 1.237.255.39.17.708.397.956.68.247.283.461.688.643 1.216.384-.704.865-1.238 1.442-1.603a3.418 3.418 0 0 1 1.862-.548c.621 0 1.17.156 1.645.47.475.312.828.75 1.059 1.31.23.56.346 1.4.346 2.522v4.895H59.34v-4.895c0-.962-.068-1.623-.206-1.982a1.786 1.786 0 0 0-.704-.87c-.333-.22-.73-.33-1.191-.33-.56 0-1.073.165-1.537.495-.465.33-.804.77-1.018 1.319-.215.549-.322 1.467-.322 2.752v3.511h-1.145v-4.59c0-1.083-.068-1.818-.202-2.205a1.846 1.846 0 0 0-.705-.931c-.335-.234-.733-.35-1.195-.35-.533 0-1.031.16-1.496.482a2.855 2.855 0 0 0-1.03 1.298c-.222.544-.334 1.376-.334 2.497v3.8h-1.145v-8.968zM63.27 98.242c.264 0 .49.093.676.28.187.187.28.412.28.676 0 .258-.093.48-.28.668a.921.921 0 0 1-.675.28.912.912 0 0 1-.668-.28.912.912 0 0 1-.28-.668c0-.264.093-.489.28-.676a.912.912 0 0 1 .668-.28zm-.576 3.692h1.162v8.967h-1.162v-8.967zM65.458 101.934h6.585l-5.076 7.945h4.912v1.022H64.98l5.077-7.953h-4.599v-1.014zm15.453 5.992l.973.51c-.319.627-.687 1.133-1.105 1.517a4.386 4.386 0 0 1-1.409.878c-.522.2-1.112.3-1.772.3-1.461 0-2.604-.479-3.428-1.437-.824-.96-1.236-2.043-1.236-3.252 0-1.137.348-2.15 1.046-3.04.885-1.133 2.069-1.698 3.552-1.698 1.528 0 2.747.58 3.66 1.739.648.818.978 1.84.989 3.065h-8.06c.021 1.044.354 1.9.997 2.568.642.667 1.436 1 2.381 1 .456 0 .9-.079 1.331-.238.432-.16.798-.37 1.1-.635.303-.263.63-.69.981-1.277zm0-2.415c-.153-.615-.377-1.107-.671-1.475a3.178 3.178 0 0 0-1.167-.89 3.568 3.568 0 0 0-1.524-.338c-.88 0-1.635.283-2.267.849-.461.412-.81 1.03-1.046 1.854h6.675zM88.136 101.934h1.179v1.31c.351-.516.722-.902 1.112-1.157.39-.256.797-.383 1.22-.383.319 0 .66.101 1.022.304l-.601.973c-.242-.104-.446-.157-.61-.157-.385 0-.756.158-1.113.474-.357.316-.63.807-.816 1.471-.143.511-.214 1.544-.214 3.1v3.032h-1.179v-8.967zm12.997 5.992l.973.51c-.319.627-.687 1.133-1.105 1.517a4.386 4.386 0 0 1-1.409.878c-.522.2-1.113.3-1.772.3-1.461 0-2.604-.479-3.428-1.437-.825-.96-1.237-2.043-1.237-3.252 0-1.137.35-2.15 1.047-3.04.885-1.133 2.069-1.698 3.552-1.698 1.528 0 2.747.58 3.66 1.739.648.818.977 1.84.988 3.065h-8.06c.022 1.044.355 1.9.997 2.568.643.667 1.437 1 2.382 1 .456 0 .9-.079 1.331-.238.432-.16.798-.37 1.1-.635.303-.263.63-.69.981-1.277zm0-2.415c-.154-.615-.378-1.107-.671-1.475a3.178 3.178 0 0 0-1.167-.89 3.568 3.568 0 0 0-1.524-.338c-.88 0-1.635.283-2.267.849-.461.412-.81 1.03-1.046 1.854h6.675zm7.929-2.596l-.742.767c-.616-.6-1.217-.899-1.805-.899-.374 0-.694.124-.96.371-.267.247-.4.536-.4.865 0 .292.11.57.33.833.22.269.681.585 1.384.948.857.445 1.44.873 1.748 1.285.302.418.453.888.453 1.41 0 .736-.258 1.36-.775 1.87-.516.511-1.162.767-1.937.767a3.38 3.38 0 0 1-1.479-.338 3.213 3.213 0 0 1-1.166-.931l.725-.824c.588.664 1.212.997 1.87.997.462 0 .855-.149 1.18-.445.324-.297.486-.646.486-1.047 0-.33-.107-.624-.322-.882-.214-.253-.698-.571-1.45-.956-.808-.417-1.357-.83-1.649-1.236a2.332 2.332 0 0 1-.436-1.393c0-.681.232-1.247.696-1.698.464-.45 1.05-.675 1.76-.675.824 0 1.653.403 2.489 1.211zM118.622 107.926l.972.51c-.319.627-.687 1.133-1.104 1.517a4.386 4.386 0 0 1-1.41.878c-.522.2-1.112.3-1.771.3-1.462 0-2.605-.479-3.429-1.437-.824-.96-1.236-2.043-1.236-3.252 0-1.137.349-2.15 1.046-3.04.885-1.133 2.07-1.698 3.553-1.698 1.527 0 2.747.58 3.659 1.739.648.818.978 1.84.989 3.065h-8.06c.022 1.044.354 1.9.997 2.568.643.667 1.437 1 2.382 1 .456 0 .9-.079 1.33-.238.432-.16.799-.37 1.1-.635.303-.263.63-.69.982-1.277zm0-2.415c-.154-.615-.378-1.107-.672-1.475a3.178 3.178 0 0 0-1.166-.89 3.568 3.568 0 0 0-1.525-.338c-.879 0-1.634.283-2.266.849-.462.412-.81 1.03-1.047 1.854h6.676zm2.983-3.577h1.179v1.31c.351-.516.722-.902 1.112-1.157.39-.256.797-.383 1.22-.383.319 0 .66.101 1.022.304l-.602.973c-.241-.104-.445-.157-.61-.157-.384 0-.755.158-1.112.474-.357.316-.63.807-.816 1.471-.143.511-.214 1.544-.214 3.1v3.032h-1.179v-8.967zm4.665 0h1.228l3 6.528 2.975-6.528h1.236l-4.104 8.967h-.206l-4.13-8.967zM140.82 101.704c1.38 0 2.522.5 3.429 1.5.824.912 1.236 1.991 1.236 3.238 0 1.253-.435 2.348-1.306 3.285-.871.936-1.99 1.405-3.359 1.405-1.373 0-2.495-.469-3.366-1.405-.871-.937-1.306-2.032-1.306-3.285 0-1.241.412-2.318 1.236-3.23.906-1.006 2.052-1.508 3.436-1.508zm0 1.129c-.956 0-1.777.354-2.464 1.063s-1.03 1.566-1.03 2.571c0 .648.157 1.253.47 1.813.313.56.736.993 1.269 1.298a3.473 3.473 0 0 0 1.755.458c.638 0 1.223-.153 1.756-.458a3.334 3.334 0 0 0 1.27-1.298c.312-.56.469-1.165.469-1.813 0-1.005-.345-1.862-1.034-2.571-.69-.709-1.51-1.063-2.46-1.063zM148.07 98.242c.263 0 .488.093.675.28.187.187.28.412.28.676 0 .258-.093.48-.28.668a.921.921 0 0 1-.676.28.912.912 0 0 1-.667-.28.912.912 0 0 1-.28-.668c0-.264.093-.489.28-.676a.912.912 0 0 1 .667-.28zm-.578 3.692h1.162v8.967h-1.162v-8.967zM150.807 101.934h1.178v1.31c.352-.516.723-.902 1.113-1.157.39-.256.797-.383 1.22-.383.318 0 .66.101 1.022.304l-.602.973c-.242-.104-.445-.157-.61-.157-.384 0-.755.158-1.112.474-.358.316-.63.807-.816 1.471-.143.511-.215 1.544-.215 3.1v3.032h-1.178v-8.967zM59.654 124l-.915.57c-.791-1.05-1.871-1.575-3.24-1.575-1.093 0-2 .352-2.723 1.055-.723.703-1.084 1.558-1.084 2.563 0 .654.166 1.27.499 1.846a3.495 3.495 0 0 0 1.368 1.344c.58.318 1.23.478 1.95.478 1.318 0 2.395-.525 3.23-1.574l.915.601a4.314 4.314 0 0 1-1.727 1.496c-.723.354-1.545.532-2.468.532-1.418 0-2.594-.45-3.528-1.352-.934-.901-1.4-1.997-1.4-3.288 0-.868.218-1.675.654-2.42a4.616 4.616 0 0 1 1.801-1.742c.764-.418 1.618-.627 2.563-.627.594 0 1.166.091 1.719.272.552.182 1.02.418 1.405.71.384.29.711.661.98 1.112zm6.46-2.093c1.38 0 2.523.5 3.43 1.5.824.912 1.236 1.992 1.236 3.24 0 1.252-.436 2.347-1.307 3.283-.87.937-1.99 1.406-3.358 1.406-1.374 0-2.496-.469-3.367-1.406-.87-.936-1.306-2.031-1.306-3.284 0-1.242.412-2.318 1.236-3.23.907-1.006 2.052-1.509 3.437-1.509zm0 1.13c-.955 0-1.776.354-2.463 1.063-.687.708-1.03 1.565-1.03 2.57 0 .65.156 1.254.47 1.814.312.56.736.993 1.268 1.298a3.473 3.473 0 0 0 1.756.458c.637 0 1.222-.153 1.755-.458a3.334 3.334 0 0 0 1.27-1.298c.313-.56.47-1.165.47-1.813 0-1.006-.345-1.863-1.035-2.571-.69-.71-1.51-1.064-2.46-1.064zM73.01 122.138h1.155v1.607c.461-.615.972-1.075 1.533-1.38a3.767 3.767 0 0 1 1.83-.458c.67 0 1.264.17 1.784.511.519.341.902.8 1.15 1.377.247.577.37 1.475.37 2.695v4.615h-1.145v-4.277c0-1.033-.044-1.723-.132-2.07-.138-.592-.396-1.039-.775-1.338-.38-.3-.874-.45-1.483-.45-.698 0-1.323.231-1.875.693a3.243 3.243 0 0 0-1.092 1.714c-.11.445-.165 1.258-.165 2.44v3.288H73.01v-8.967zM84.279 118.809h1.162v3.33h1.83v.988h-1.83v7.978h-1.162v-7.978h-1.574v-.989h1.574zM97.844 122.138v8.967h-1.137v-1.541c-.483.588-1.026 1.03-1.628 1.327a4.401 4.401 0 0 1-1.973.445c-1.27 0-2.353-.46-3.252-1.38-.898-.921-1.347-2.04-1.347-3.36 0-1.29.453-2.395 1.36-3.312.906-.918 1.997-1.377 3.272-1.377.736 0 1.402.157 1.998.47.596.313 1.12.783 1.57 1.41v-1.649h1.137zm-4.615.882a3.482 3.482 0 0 0-3.078 1.805 3.643 3.643 0 0 0-.482 1.813c0 .632.162 1.236.486 1.813a3.54 3.54 0 0 0 1.306 1.348 3.414 3.414 0 0 0 1.76.482c.632 0 1.23-.16 1.797-.478a3.343 3.343 0 0 0 1.306-1.294c.305-.544.457-1.157.457-1.838 0-1.038-.342-1.907-1.026-2.604-.684-.698-1.526-1.047-2.526-1.047zm15.915.98l-.915.57c-.791-1.05-1.871-1.575-3.24-1.575-1.092 0-2 .352-2.723 1.055-.722.703-1.084 1.558-1.084 2.563 0 .654.167 1.27.499 1.846a3.495 3.495 0 0 0 1.368 1.344c.58.318 1.23.478 1.95.478 1.318 0 2.395-.525 3.23-1.574l.915.601a4.314 4.314 0 0 1-1.727 1.496c-.722.354-1.545.532-2.468.532-1.418 0-2.594-.45-3.528-1.352-.934-.901-1.4-1.997-1.4-3.288 0-.868.218-1.675.654-2.42a4.616 4.616 0 0 1 1.801-1.742c.764-.418 1.618-.627 2.563-.627.594 0 1.167.091 1.719.272.552.182 1.02.418 1.405.71.385.29.711.661.98 1.112zM112.399 118.809h1.162v3.33h1.83v.988h-1.83v7.978h-1.162v-7.978h-1.575v-.989h1.575z"/>
        </g>
        <g fill="#9B2271">
            <path d="M37.65 9.672h95.994V.257H37.65zM37.65 79.675h95.994v-9.418H37.65zM64.65 44.675h41.953v-9.418H64.65z"/>
            <path d="M80.65 61.191h9.422V19.257H80.65z"/>
        </g>
    </g>
</svg>
