<svg xmlns="http://www.w3.org/2000/svg" width="489.475" height="84.223" viewBox="0 0 489.475 84.223">
  <g id="Group_381" data-name="Group 381" transform="translate(-232 -1768.729)">
    <path id="Path_565" data-name="Path 565" d="M11.89,41.939V54H4V18.99H16.357q13.232,0,13.232,11.157a10.705,10.705,0,0,1-3.8,8.533Q22,41.939,15.649,41.939Zm0-16.895V35.958h3.1q6.3,0,6.3-5.518,0-5.4-6.3-5.4ZM49.769,35.958a6.692,6.692,0,0,0-3.247-.757,4.678,4.678,0,0,0-3.931,1.843,8.041,8.041,0,0,0-1.416,5.017V54H33.46V29h7.715v4.639h.1q1.831-5.078,6.592-5.078a4.968,4.968,0,0,1,1.9.293ZM64.576,54.61q-6.25,0-9.827-3.5T51.173,41.6q0-6.2,3.711-9.7t10.034-3.5q6.226,0,9.766,3.5a12.453,12.453,0,0,1,3.54,9.265q0,6.226-3.65,9.839T64.576,54.61Zm.2-20.312a5.146,5.146,0,0,0-4.248,1.88A8.29,8.29,0,0,0,59.01,41.5q0,7.2,5.811,7.2,5.542,0,5.542-7.4Q70.362,34.3,64.771,34.3Zm25.77,16.8h-.1V65.5H82.729V29h7.715v3.76h.1a9.817,9.817,0,0,1,15.54-1.038q2.649,3.333,2.649,9.07,0,6.25-3.088,10.034a10.07,10.07,0,0,1-8.215,3.784A7.784,7.784,0,0,1,90.541,51.095Zm-.22-10.254v2a6.364,6.364,0,0,0,1.367,4.224A4.45,4.45,0,0,0,95.277,48.7a4.73,4.73,0,0,0,4.089-2.039,9.843,9.843,0,0,0,1.453-5.774q0-6.592-5.127-6.592a4.815,4.815,0,0,0-3.87,1.794A7.157,7.157,0,0,0,90.321,40.841Zm30.726,10.254h-.1V65.5h-7.715V29h7.715v3.76h.1a9.817,9.817,0,0,1,15.54-1.038q2.649,3.333,2.649,9.07,0,6.25-3.088,10.034a10.07,10.07,0,0,1-8.215,3.784A7.784,7.784,0,0,1,121.047,51.095Zm-.22-10.254v2a6.364,6.364,0,0,0,1.367,4.224,4.45,4.45,0,0,0,3.589,1.636,4.73,4.73,0,0,0,4.089-2.039,9.843,9.843,0,0,0,1.453-5.774q0-6.592-5.127-6.592a4.815,4.815,0,0,0-3.87,1.794A7.157,7.157,0,0,0,120.827,40.841ZM164.053,54h-7.3V50.411h-.1a8.148,8.148,0,0,1-7.446,4.2,7.789,7.789,0,0,1-5.725-2.063,7.392,7.392,0,0,1-2.087-5.505q0-7.275,8.618-8.4l6.787-.9q0-4.1-4.443-4.1a15.167,15.167,0,0,0-8.5,2.661V30.489a19.114,19.114,0,0,1,4.407-1.465,23.165,23.165,0,0,1,5.09-.635q10.693,0,10.693,10.669ZM156.8,43.844V42.159l-4.541.586q-3.76.488-3.76,3.394a2.8,2.8,0,0,0,.916,2.161,3.518,3.518,0,0,0,2.478.842,4.567,4.567,0,0,0,3.54-1.5A5.423,5.423,0,0,0,156.8,43.844ZM193.8,54h-7.69V40.108q0-5.811-4.15-5.811a4.118,4.118,0,0,0-3.3,1.538,5.86,5.86,0,0,0-1.294,3.906V54h-7.715V29h7.715v3.955h.1A8.841,8.841,0,0,1,185.5,28.39q8.3,0,8.3,10.3Zm20.716-.293a11.4,11.4,0,0,1-5.151.9q-8.154,0-8.154-8.472V34.688h-4.053V29h4.053V23.6l7.69-2.2V29h5.615v5.688H208.9V44.8q0,3.906,3.1,3.906a5.227,5.227,0,0,0,2.515-.708Zm2.991-1.05V44.845a15.012,15.012,0,0,0,4.614,2.673,14.832,14.832,0,0,0,5.029.891,11.153,11.153,0,0,0,2.6-.269,6.09,6.09,0,0,0,1.855-.745,3.248,3.248,0,0,0,1.111-1.123,2.8,2.8,0,0,0,.366-1.4,3.035,3.035,0,0,0-.586-1.831,6.305,6.305,0,0,0-1.6-1.489,16.709,16.709,0,0,0-2.4-1.318q-1.392-.635-3-1.294a15.326,15.326,0,0,1-6.116-4.175,9.114,9.114,0,0,1-2.014-5.957,9.488,9.488,0,0,1,1.1-4.7,9.331,9.331,0,0,1,2.991-3.235A13.41,13.41,0,0,1,225.834,19a22.518,22.518,0,0,1,5.273-.6,31.718,31.718,0,0,1,4.846.33,19.059,19.059,0,0,1,3.894,1.013v7.3a11.775,11.775,0,0,0-1.917-1.074,15.184,15.184,0,0,0-2.136-.769,16.3,16.3,0,0,0-2.185-.452,15.465,15.465,0,0,0-2.063-.146,10.758,10.758,0,0,0-2.441.256,6.262,6.262,0,0,0-1.855.72,3.583,3.583,0,0,0-1.172,1.111,2.633,2.633,0,0,0-.415,1.453,2.774,2.774,0,0,0,.464,1.575,5.321,5.321,0,0,0,1.318,1.318,13.99,13.99,0,0,0,2.075,1.221q1.221.6,2.759,1.233a30.742,30.742,0,0,1,3.772,1.868,13.409,13.409,0,0,1,2.869,2.234,8.7,8.7,0,0,1,1.831,2.844,10.05,10.05,0,0,1,.635,3.723,9.973,9.973,0,0,1-1.111,4.919A9.018,9.018,0,0,1,237.26,52.3a13.075,13.075,0,0,1-4.431,1.77,25.609,25.609,0,0,1-5.334.537,29.662,29.662,0,0,1-5.481-.488A16.545,16.545,0,0,1,217.509,52.657Zm54.236.1a23.087,23.087,0,0,1-10.01,1.855q-8.057,0-12.671-4.736T244.45,37.252q0-8.4,5.188-13.623T263.1,18.4a25.18,25.18,0,0,1,8.643,1.294v7.593a15.314,15.314,0,0,0-8.008-2.1,10.623,10.623,0,0,0-7.959,3.1,11.5,11.5,0,0,0-3.027,8.4,11.284,11.284,0,0,0,2.856,8.093A10.091,10.091,0,0,0,263.3,47.8a16.4,16.4,0,0,0,8.447-2.246ZM308.135,54h-8.594l-2.49-7.788H284.6L282.134,54h-8.545l12.744-35.01h9.351ZM295.244,40.157l-3.76-11.768a15.334,15.334,0,0,1-.586-3.149h-.2a13.353,13.353,0,0,1-.61,3.052l-3.809,11.865ZM343.5,54H335.54L321.111,32a31.814,31.814,0,0,1-1.758-2.905h-.1q.2,1.855.2,5.664V54H312V18.99h8.5L334.393,40.3q.952,1.44,1.758,2.856h.1a37.43,37.43,0,0,1-.2-4.81V18.99H343.5Zm36.976-18.848h-2.637V23.482h-.1l-5.347,11.67h-1.44l-5.225-11.67h-.1v11.67h-2.49V18.99h3.1L371.734,31.1h.1L377.4,18.99h3.076Zm-30.737-3.564a5.861,5.861,0,0,0,1.917,1.025,7.192,7.192,0,0,0,2.307.391,5.776,5.776,0,0,0,1.135-.11,2.768,2.768,0,0,0,.952-.366,2,2,0,0,0,.647-.659,1.875,1.875,0,0,0,.244-.989,2.126,2.126,0,0,0-.146-.818,1.83,1.83,0,0,0-.513-.671,5.353,5.353,0,0,0-.952-.635q-.586-.317-1.465-.732-1.05-.488-1.831-.952a6.606,6.606,0,0,1-1.306-.989,3.475,3.475,0,0,1-.781-1.16,4.035,4.035,0,0,1-.256-1.514,4.335,4.335,0,0,1,.513-2.173,4.286,4.286,0,0,1,1.318-1.453,5.712,5.712,0,0,1,1.782-.806,7.4,7.4,0,0,1,1.88-.256q.464,0,1.038.037t1.135.122q.562.085,1.086.22a4.6,4.6,0,0,1,.916.33v2.637a5.287,5.287,0,0,0-.806-.415,8.01,8.01,0,0,0-1-.342,9.585,9.585,0,0,0-1.111-.232,7.7,7.7,0,0,0-1.135-.085,3.807,3.807,0,0,0-2.075.513,1.8,1.8,0,0,0-.806,1.636,1.738,1.738,0,0,0,.183.83,2.081,2.081,0,0,0,.525.623,4.416,4.416,0,0,0,.83.525q.488.244,1.123.537.83.391,1.648.818a7.927,7.927,0,0,1,1.477.989,4.546,4.546,0,0,1,1.062,1.306,3.668,3.668,0,0,1,.4,1.77,4.575,4.575,0,0,1-.415,1.978,4.3,4.3,0,0,1-1.172,1.5,5.3,5.3,0,0,1-1.819.952,7.837,7.837,0,0,1-2.332.33,10.39,10.39,0,0,1-2.319-.256,6.252,6.252,0,0,1-1.88-.72Z" transform="translate(341 1762.729)" fill="#9b2373"/>
    <path id="Path_566" data-name="Path 566" d="M7.48,22.234A6.147,6.147,0,0,1,2.71,20.271,7.28,7.28,0,0,1,.918,15.164,7.714,7.714,0,0,1,2.744,9.773,6.378,6.378,0,0,1,7.715,7.762a6.009,6.009,0,0,1,4.673,1.953,7.307,7.307,0,0,1,1.772,5.107,7.739,7.739,0,0,1-1.816,5.42A6.26,6.26,0,0,1,7.48,22.234ZM7.6,9.246a4.515,4.515,0,0,0-3.584,1.592,6.162,6.162,0,0,0-1.377,4.18,6.206,6.206,0,0,0,1.343,4.165,4.379,4.379,0,0,0,3.5,1.577,4.6,4.6,0,0,0,3.633-1.5,6.146,6.146,0,0,0,1.328-4.209,6.422,6.422,0,0,0-1.289-4.287A4.42,4.42,0,0,0,7.6,9.246ZM18.34,20.555H18.3V26.6H16.7V12h1.6v1.758h.039A3.787,3.787,0,0,1,21.8,11.766a3.662,3.662,0,0,1,3.018,1.343,5.562,5.562,0,0,1,1.084,3.6,6.2,6.2,0,0,1-1.221,4.019,4.064,4.064,0,0,1-3.34,1.509A3.346,3.346,0,0,1,18.34,20.555ZM18.3,16.521v1.4a2.973,2.973,0,0,0,.806,2.1,2.874,2.874,0,0,0,4.326-.249,5.107,5.107,0,0,0,.825-3.1,4.032,4.032,0,0,0-.771-2.617,2.553,2.553,0,0,0-2.09-.947,2.838,2.838,0,0,0-2.246.972A3.568,3.568,0,0,0,18.3,16.521ZM33.1,21.9a3.088,3.088,0,0,1-1.494.313q-2.627,0-2.627-2.93V13.367H27.256V12h1.719V9.559l1.6-.518V12H33.1v1.367h-2.52V19a2.336,2.336,0,0,0,.342,1.436,1.364,1.364,0,0,0,1.133.43,1.684,1.684,0,0,0,1.045-.332ZM36.055,9.461a1.015,1.015,0,0,1-.732-.293.989.989,0,0,1-.3-.742,1.026,1.026,0,0,1,1.035-1.045,1.034,1.034,0,0,1,.747.3,1.043,1.043,0,0,1,0,1.479A1.025,1.025,0,0,1,36.055,9.461ZM36.836,22h-1.6V12h1.6Zm17.441,0h-1.6V16.258a4.332,4.332,0,0,0-.513-2.4,1.944,1.944,0,0,0-1.724-.742,2.134,2.134,0,0,0-1.743.938,3.586,3.586,0,0,0-.718,2.246V22h-1.6V16.063q0-2.949-2.275-2.949A2.108,2.108,0,0,0,42.363,14a3.653,3.653,0,0,0-.684,2.3V22h-1.6V12h1.6v1.582h.039a3.4,3.4,0,0,1,3.105-1.816,2.888,2.888,0,0,1,2.832,2.07,3.569,3.569,0,0,1,3.32-2.07q3.3,0,3.3,4.072ZM58.125,9.461a1.015,1.015,0,0,1-.732-.293.989.989,0,0,1-.3-.742,1.026,1.026,0,0,1,1.035-1.045,1.034,1.034,0,0,1,.747.3,1.043,1.043,0,0,1,0,1.479A1.025,1.025,0,0,1,58.125,9.461ZM58.906,22H57.3V12h1.6Zm10.215-9.541L63.2,20.633h5.859V22H60.85v-.5l5.918-8.135H61.406V12h7.715ZM79.229,17.4H72.168a3.74,3.74,0,0,0,.9,2.578,3.1,3.1,0,0,0,2.363.908,4.913,4.913,0,0,0,3.105-1.113v1.5a5.8,5.8,0,0,1-3.486.957,4.227,4.227,0,0,1-3.33-1.362,5.576,5.576,0,0,1-1.211-3.833,5.468,5.468,0,0,1,1.323-3.8,4.243,4.243,0,0,1,3.286-1.47,3.76,3.76,0,0,1,3.037,1.27,5.293,5.293,0,0,1,1.074,3.525Zm-1.641-1.357a3.259,3.259,0,0,0-.669-2.158,2.279,2.279,0,0,0-1.831-.771,2.587,2.587,0,0,0-1.924.811,3.678,3.678,0,0,0-.977,2.119Zm14.756-2.422a1.958,1.958,0,0,0-1.211-.322,2.044,2.044,0,0,0-1.714.967A4.47,4.47,0,0,0,88.73,16.9V22h-1.6V12h1.6v2.061h.039a3.492,3.492,0,0,1,1.045-1.646,2.383,2.383,0,0,1,1.572-.591,2.615,2.615,0,0,1,.957.137Zm9.775,3.779H95.059a3.74,3.74,0,0,0,.9,2.578,3.1,3.1,0,0,0,2.363.908,4.913,4.913,0,0,0,3.105-1.113v1.5a5.8,5.8,0,0,1-3.486.957,4.227,4.227,0,0,1-3.33-1.362A5.576,5.576,0,0,1,93.4,17.039a5.468,5.468,0,0,1,1.323-3.8,4.243,4.243,0,0,1,3.286-1.47,3.76,3.76,0,0,1,3.037,1.27,5.293,5.293,0,0,1,1.074,3.525Zm-1.641-1.357a3.259,3.259,0,0,0-.669-2.158,2.279,2.279,0,0,0-1.831-.771,2.587,2.587,0,0,0-1.924.811,3.678,3.678,0,0,0-.977,2.119Zm3.457,5.6V19.92a4.74,4.74,0,0,0,2.881.967q2.109,0,2.109-1.406a1.22,1.22,0,0,0-.181-.679,1.8,1.8,0,0,0-.488-.493,3.758,3.758,0,0,0-.723-.386q-.415-.171-.894-.356a11.508,11.508,0,0,1-1.167-.532,3.525,3.525,0,0,1-.84-.605,2.253,2.253,0,0,1-.508-.767,2.712,2.712,0,0,1-.171-1.006,2.389,2.389,0,0,1,.322-1.245,2.858,2.858,0,0,1,.859-.908,4.007,4.007,0,0,1,1.226-.552,5.436,5.436,0,0,1,1.421-.186,5.737,5.737,0,0,1,2.324.449v1.621a4.53,4.53,0,0,0-2.539-.723,2.968,2.968,0,0,0-.811.1,1.984,1.984,0,0,0-.62.288,1.331,1.331,0,0,0-.4.444,1.171,1.171,0,0,0-.142.571,1.37,1.37,0,0,0,.142.654,1.44,1.44,0,0,0,.415.469,3.172,3.172,0,0,0,.664.371q.391.166.889.361a12.368,12.368,0,0,1,1.191.522,4.086,4.086,0,0,1,.9.605,2.366,2.366,0,0,1,.571.776,2.5,2.5,0,0,1,.2,1.045,2.464,2.464,0,0,1-.327,1.289,2.8,2.8,0,0,1-.874.908,4,4,0,0,1-1.26.537,6.22,6.22,0,0,1-1.494.176A5.674,5.674,0,0,1,103.936,21.639ZM121.064,17.4H114a3.74,3.74,0,0,0,.9,2.578,3.1,3.1,0,0,0,2.363.908,4.913,4.913,0,0,0,3.105-1.113v1.5a5.8,5.8,0,0,1-3.486.957,4.227,4.227,0,0,1-3.33-1.362,5.576,5.576,0,0,1-1.211-3.833,5.468,5.468,0,0,1,1.323-3.8,4.243,4.243,0,0,1,3.286-1.47,3.76,3.76,0,0,1,3.037,1.27,5.293,5.293,0,0,1,1.074,3.525Zm-1.641-1.357a3.259,3.259,0,0,0-.669-2.158,2.279,2.279,0,0,0-1.831-.771,2.587,2.587,0,0,0-1.924.811,3.678,3.678,0,0,0-.977,2.119Zm9.277-2.422a1.958,1.958,0,0,0-1.211-.322,2.044,2.044,0,0,0-1.714.967,4.47,4.47,0,0,0-.688,2.637V22h-1.6V12h1.6v2.061h.039a3.492,3.492,0,0,1,1.045-1.646,2.383,2.383,0,0,1,1.572-.591,2.615,2.615,0,0,1,.957.137ZM138.3,12l-3.984,10h-1.572l-3.789-10h1.758l2.539,7.266a6.522,6.522,0,0,1,.352,1.4h.039a6.6,6.6,0,0,1,.313-1.357l2.656-7.3Zm5.9,10.234a4.638,4.638,0,0,1-3.54-1.4,5.191,5.191,0,0,1-1.323-3.716,5.407,5.407,0,0,1,1.377-3.936,4.95,4.95,0,0,1,3.721-1.416,4.485,4.485,0,0,1,3.491,1.377,5.46,5.46,0,0,1,1.255,3.818,5.372,5.372,0,0,1-1.353,3.833A4.739,4.739,0,0,1,144.2,22.234Zm.117-9.121a3.046,3.046,0,0,0-2.441,1.05,4.312,4.312,0,0,0-.9,2.9,4.078,4.078,0,0,0,.908,2.8,3.087,3.087,0,0,0,2.432,1.025,2.928,2.928,0,0,0,2.388-1.006,4.365,4.365,0,0,0,.835-2.861,4.44,4.44,0,0,0-.835-2.891A2.915,2.915,0,0,0,144.316,13.113Zm8.242-3.652a1.015,1.015,0,0,1-.732-.293.989.989,0,0,1-.3-.742,1.026,1.026,0,0,1,1.035-1.045,1.034,1.034,0,0,1,.747.3,1.043,1.043,0,0,1,0,1.479A1.025,1.025,0,0,1,152.559,9.461ZM153.34,22h-1.6V12h1.6Zm8.457-8.379a1.958,1.958,0,0,0-1.211-.322,2.044,2.044,0,0,0-1.714.967,4.47,4.47,0,0,0-.688,2.637V22h-1.6V12h1.6v2.061h.039a3.492,3.492,0,0,1,1.045-1.646,2.383,2.383,0,0,1,1.572-.591,2.615,2.615,0,0,1,.957.137Zm14.033,7.92a5.2,5.2,0,0,1-2.734.693,4.527,4.527,0,0,1-3.452-1.392,5.043,5.043,0,0,1-1.313-3.608,5.544,5.544,0,0,1,1.416-3.97,4.954,4.954,0,0,1,3.779-1.5,5.261,5.261,0,0,1,2.324.488v1.641a4.072,4.072,0,0,0-2.383-.781,3.22,3.22,0,0,0-2.515,1.1,4.169,4.169,0,0,0-.981,2.886,3.969,3.969,0,0,0,.923,2.773,3.181,3.181,0,0,0,2.476,1.016,4.014,4.014,0,0,0,2.461-.869Zm6.6.693a4.638,4.638,0,0,1-3.54-1.4,5.191,5.191,0,0,1-1.323-3.716,5.407,5.407,0,0,1,1.377-3.936,4.95,4.95,0,0,1,3.721-1.416,4.485,4.485,0,0,1,3.491,1.377,5.46,5.46,0,0,1,1.255,3.818,5.372,5.372,0,0,1-1.353,3.833A4.739,4.739,0,0,1,182.432,22.234Zm.117-9.121a3.046,3.046,0,0,0-2.441,1.05,4.312,4.312,0,0,0-.9,2.9,4.078,4.078,0,0,0,.908,2.8,3.087,3.087,0,0,0,2.432,1.025,2.928,2.928,0,0,0,2.388-1.006,4.365,4.365,0,0,0,.835-2.861,4.44,4.44,0,0,0-.835-2.891A2.915,2.915,0,0,0,182.549,13.113ZM198.271,22h-1.6V16.3q0-3.184-2.324-3.184a2.521,2.521,0,0,0-1.987.9,3.348,3.348,0,0,0-.786,2.28V22h-1.6V12h1.6v1.66h.039a3.609,3.609,0,0,1,3.281-1.895,3.059,3.059,0,0,1,2.51,1.06,4.72,4.72,0,0,1,.869,3.062Zm7.656-.1a3.088,3.088,0,0,1-1.494.313q-2.627,0-2.627-2.93V13.367h-1.719V12h1.719V9.559l1.6-.518V12h2.52v1.367h-2.52V19a2.336,2.336,0,0,0,.342,1.436,1.364,1.364,0,0,0,1.133.43,1.684,1.684,0,0,0,1.045-.332Zm9.3.1h-1.6V20.438h-.039a3.353,3.353,0,0,1-3.076,1.8,3.288,3.288,0,0,1-2.339-.791,2.741,2.741,0,0,1-.845-2.1q0-2.8,3.3-3.262l3-.42q0-2.549-2.061-2.549a4.923,4.923,0,0,0-3.262,1.23V12.7a6.2,6.2,0,0,1,3.4-.937q3.525,0,3.525,3.73Zm-1.6-5.059-2.412.332a3.916,3.916,0,0,0-1.68.552,1.591,1.591,0,0,0-.566,1.4,1.526,1.526,0,0,0,.522,1.2,2.019,2.019,0,0,0,1.392.464,2.571,2.571,0,0,0,1.968-.835,2.983,2.983,0,0,0,.776-2.114Zm11.436,4.6a5.2,5.2,0,0,1-2.734.693,4.527,4.527,0,0,1-3.452-1.392,5.043,5.043,0,0,1-1.313-3.608,5.544,5.544,0,0,1,1.416-3.97,4.954,4.954,0,0,1,3.779-1.5,5.261,5.261,0,0,1,2.324.488v1.641a4.072,4.072,0,0,0-2.383-.781,3.22,3.22,0,0,0-2.515,1.1A4.169,4.169,0,0,0,219.2,17.1a3.969,3.969,0,0,0,.923,2.773,3.181,3.181,0,0,0,2.476,1.016,4.014,4.014,0,0,0,2.461-.869Zm7.061.361a3.088,3.088,0,0,1-1.494.313q-2.627,0-2.627-2.93V13.367h-1.719V12H228V9.559l1.6-.518V12h2.52v1.367H229.6V19a2.336,2.336,0,0,0,.342,1.436,1.364,1.364,0,0,0,1.133.43,1.684,1.684,0,0,0,1.045-.332Z" transform="translate(341 1826.351)" fill="#9b2373"/>
    <g id="ProppantSCAN" transform="translate(277 1806.116)">
      <g id="ProppantSCAN-2" data-name="ProppantSCAN" transform="translate(-45 -37.387)">
        <rect id="Rectangle_259" data-name="Rectangle 259" width="90" height="8.768" fill="#9b2373"/>
        <rect id="Rectangle_260" data-name="Rectangle 260" width="90" height="8.843" transform="translate(0 65.93)" fill="#9b2373"/>
        <rect id="Rectangle_261" data-name="Rectangle 261" width="39.394" height="8.843" transform="translate(25.341 32.89)" fill="#9b2373"/>
        <rect id="Rectangle_262" data-name="Rectangle 262" width="8.821" height="39.371" transform="translate(40.59 17.641)" fill="#9b2373"/>
      </g>
    </g>
  </g>
</svg>
