<svg xmlns="http://www.w3.org/2000/svg" width="420" height="95.621" viewBox="0 0 420 95.621"><g transform="translate(-750 -1762)"><text transform="translate(859 1762)" fill="#826f82" font-size="50" font-family="SegoeUI-Bold, Segoe UI" letter-spacing="-0.01em" font-weight="700"><tspan x="0" y="54">FracSCAN</tspan><tspan y="54" font-family="SegoeUISymbol, Segoe UI Symbol" font-weight="400">℠</tspan></text><text transform="translate(859 1825.622)" fill="#826f82" font-size="20" font-family="SegoeUI, Segoe UI"><tspan x="0" y="22">Increase pad commercial value</tspan></text><g transform="translate(795 1805.286)"><g transform="translate(-45 -37.551)"><rect width="90" height="8.842" transform="translate(0 66.26)" fill="#826f82"/><path d="M40.063,19.654,28.644,2,17.3,19.654h6.987V56.992h8.79V19.654Z" transform="translate(-4.303 -0.497)" fill="#826f82"/><path d="M89.47,47.554a13.423,13.423,0,0,1-8.489,4.508v6.16h-6.01V52.287A20.017,20.017,0,0,1,62.2,46.728l4.432-6.836a14.574,14.574,0,0,0,4.733,3.456A13.9,13.9,0,0,0,77.3,44.624a6.386,6.386,0,0,0,4.508-1.5A4.958,4.958,0,0,0,83.46,39.29a4.808,4.808,0,0,0-1.8-3.907,24.19,24.19,0,0,0-5.484-3.155,60.852,60.852,0,0,1-6.536-3.005,13,13,0,0,1-4.282-3.907,11.043,11.043,0,0,1-1.8-6.461,12.02,12.02,0,0,1,3.08-8.189,13.372,13.372,0,0,1,8.339-4.357V0h6.01V6.235a18.481,18.481,0,0,1,10.668,4.658L87.367,17.5a12.847,12.847,0,0,0-4.432-2.78,14.048,14.048,0,0,0-5.033-.9,5.559,5.559,0,0,0-3.831,1.352,4.357,4.357,0,0,0-1.427,3.381,3.982,3.982,0,0,0,1.728,3.306A27.8,27.8,0,0,0,79.7,24.716a49.733,49.733,0,0,1,6.461,3.08A14.274,14.274,0,0,1,90.6,32a11.494,11.494,0,0,1,1.878,6.761,13.222,13.222,0,0,1-3.005,8.79Z" transform="translate(-15.472)" fill="#826f82"/></g></g></g></svg>