<svg xmlns="http://www.w3.org/2000/svg" width="40" height="34" viewBox="0 0 40 34">
  <g id="Artwork_1" data-name="Artwork 1" transform="translate(20 17)">
    <g id="Group_121" data-name="Group 121" transform="translate(-20 -17)">
      <g id="Group_120" data-name="Group 120">
        <path id="Path_68" data-name="Path 68" d="M30,6a4,4,0,0,1,4,4V28a4,4,0,0,1-4,4H6a4,4,0,0,1-4-4V10A4,4,0,0,1,6,6H30m0-2H6a6,6,0,0,0-6,6V28a6,6,0,0,0,6,6H30a6,6,0,0,0,6-6V10A6,6,0,0,0,30,4Z" fill="#2b2b2b"/>
        <rect id="Rectangle_45" data-name="Rectangle 45" width="36" height="30" rx="4" transform="translate(40 30) rotate(180)" fill="#2b2b2b"/>
      </g>
      <path id="Path_69" data-name="Path 69" d="M27.8,14a1.1,1.1,0,0,1,.5.6,1.2,1.2,0,0,1,0,.8,1.1,1.1,0,0,1-.5.6l-8.9,5.3a1.1,1.1,0,0,1-.8.2,1.2,1.2,0,0,1-.7-.4,1.1,1.1,0,0,1-.3-.8V9.7a1.1,1.1,0,0,1,.3-.8,1.2,1.2,0,0,1,.7-.4,1.1,1.1,0,0,1,.8.2Z" fill="#b8de1c"/>
    </g>
  </g>
</svg>
